<?xml version="1.0" standalone="no"?>
<!DOCTYPE svg PUBLIC "-//W3C//DTD SVG 20010904//EN"
 "http://www.w3.org/TR/2001/REC-SVG-20010904/DTD/svg10.dtd">
<svg version="1.0" xmlns="http://www.w3.org/2000/svg"
 width="295.000000pt" height="295.000000pt" viewBox="0 0 295.000000 295.000000"
 preserveAspectRatio="xMidYMid meet">
<metadata>
Created by potrace 1.11, written by Peter Selinger 2001-2013
</metadata>
<g transform="translate(0.000000,295.000000) scale(0.100000,-0.100000)"
fill="#000000" stroke="none">
<path d="M2564 2786 c-18 -22 -40 -57 -50 -76 l-19 -35 -3 50 c-1 28 -5 57 -8
65 -5 13 -6 13 -13 0 -5 -8 -11 -34 -15 -57 -3 -24 -14 -58 -23 -77 l-16 -35
-17 22 c-17 20 -18 20 -23 1 -3 -10 -8 -39 -12 -64 -9 -63 -44 -189 -63 -225
-23 -45 -353 -483 -466 -620 -55 -66 -165 -185 -244 -264 l-144 -143 -40 6
c-65 11 -148 42 -283 107 -140 67 -175 90 -278 181 -91 82 -116 98 -154 98
-29 0 -33 4 -43 39 -14 51 -35 69 -62 52 -23 -14 -36 -3 -68 66 -27 57 -50 69
-71 37 l-16 -25 -31 55 c-28 49 -64 77 -79 62 -4 -3 -15 8 -25 25 -23 38 -32
32 -30 -21 1 -22 -3 -40 -8 -40 -6 0 -10 6 -11 13 -3 55 -32 109 -55 100 -8
-3 -14 -10 -14 -16 0 -6 -15 4 -32 23 l-33 35 -3 -27 c-2 -15 6 -48 17 -74 12
-26 20 -49 17 -51 -2 -2 -18 19 -35 46 -50 78 -82 77 -60 -1 6 -24 13 -56 15
-73 l3 -30 -25 28 c-67 77 -32 -24 58 -165 49 -77 164 -208 252 -286 85 -76
174 -131 306 -191 184 -83 261 -124 298 -157 l34 -31 -52 -19 c-138 -49 -206
-186 -150 -299 53 -107 120 -165 120 -105 0 13 11 22 37 29 55 16 77 14 107
-10 42 -33 224 -130 283 -150 51 -17 173 -20 221 -4 22 6 55 -29 71 -76 12
-38 9 -75 -12 -146 -16 -54 -16 -118 1 -135 7 -7 25 -7 56 0 42 9 52 7 118
-25 58 -28 84 -35 133 -36 97 0 272 33 311 59 18 13 51 28 73 34 21 5 55 25
74 43 47 43 147 166 147 182 0 24 -38 44 -240 125 -316 127 -527 234 -518 262
2 6 33 29 68 50 35 22 91 61 125 89 74 60 219 219 260 286 16 26 51 68 77 92
27 24 48 52 48 62 0 10 9 27 20 37 11 11 23 30 25 43 3 13 13 31 24 39 10 8
21 28 25 43 4 15 14 31 24 34 30 11 50 34 45 52 -3 12 13 34 48 68 40 39 52
57 51 79 0 23 8 35 39 57 43 30 63 68 54 104 -4 17 4 29 34 54 46 37 53 54 34
91 -12 26 -11 28 31 63 64 52 75 73 81 161 3 51 11 86 23 102 34 49 41 66 31
78 -10 12 -61 5 -90 -11 -8 -5 -2 5 12 21 15 16 39 48 55 72 22 35 25 45 14
52 -13 8 -42 -4 -112 -48 -15 -9 -30 -14 -33 -10 -3 3 12 43 35 88 39 77 40
81 18 75 -13 -4 -49 -27 -82 -52 l-58 -45 5 56 c3 31 3 56 1 56 -8 0 -65 -67
-70 -83 -12 -38 -29 -8 -34 60 l-5 71 -31 -42z"/>
</g>
</svg>
