<?xml version="1.0" encoding="UTF-8" standalone="no"?>
<svg width="87px" height="87px" viewBox="0 0 87 87" version="1.1" xmlns="http://www.w3.org/2000/svg" xmlns:xlink="http://www.w3.org/1999/xlink">
    <!-- Generator: Sketch 3.7.2 (28276) - http://www.bohemiancoding.com/sketch -->
    <title>Slice 1</title>
    <desc>Created with Sketch.</desc>
    <defs></defs>
    <g id="Page-1" stroke="none" stroke-width="1" fill="none" fill-rule="evenodd">
        <g id="noun_489931_cc" transform="translate(2.000000, 3.000000)" fill="#000000">
            <g id="Artboard-1-Copy-112">
                <g id="Group">
                    <g id="Shape">
                        <path d="M41,82 C63.6436747,82 82,63.6436747 82,41 C82,18.3563253 63.6436747,0 41,0 C18.3563253,0 0,18.3563253 0,41 C0,63.6436747 18.3563253,82 41,82 L41,82 L41,82 Z M41,80 C19.4608948,80 2,62.5391052 2,41 C2,19.4608948 19.4608948,2 41,2 C62.5391052,2 80,19.4608948 80,41 C80,62.5391052 62.5391052,80 41,80 L41,80 L41,80 Z"></path>
                        <path d="M21,29 C21,28.4477153 21.4492188,28 22.0087752,28 L59.9912248,28 C60.548356,28 61,28.4438648 61,29 C61,29.5522847 60.5507812,30 59.9912248,30 L22.0087752,30 C21.451644,30 21,29.5561352 21,29 L21,29 Z M21,41 C21,40.4477153 21.4492188,40 22.0087752,40 L59.9912248,40 C60.548356,40 61,40.4438648 61,41 C61,41.5522847 60.5507812,42 59.9912248,42 L22.0087752,42 C21.451644,42 21,41.5561352 21,41 L21,41 Z M21,53 C21,52.4477153 21.4492188,52 22.0087752,52 L59.9912248,52 C60.548356,52 61,52.4438648 61,53 C61,53.5522847 60.5507812,54 59.9912248,54 L22.0087752,54 C21.451644,54 21,53.5561352 21,53 L21,53 Z"></path>
                    </g>
                </g>
            </g>
        </g>
    </g>
</svg>