<?xml version="1.0" encoding="iso-8859-1"?>
<!-- Generator: Adobe Illustrator 19.1.0, SVG Export Plug-In . SVG Version: 6.00 Build 0)  -->
<svg version="1.1" xmlns="http://www.w3.org/2000/svg" xmlns:xlink="http://www.w3.org/1999/xlink" x="0px" y="0px"
	 viewBox="0 0 1136 803.471" style="enable-background:new 0 0 1136 803.471;" xml:space="preserve">
<g id="Bird__x2B__Ribbon">
	<g>
		<g>
			<path style="fill:#FFFFFF;" d="M6860.677-1924.048c-19.023,1.088-28.007,0.098-47.245-0.234
				c-63.998-1.104-82.724-12.646-137.801-12.402c-33.219,0.148-71.953,6.252-104.663,20.114c3.932,2.137,7.864,4.274,11.795,6.411
				c1.03,0.559,2.124,1.185,2.624,2.244c0.656,1.388,0.08,3.017-0.499,4.44c-1.738,4.276-3.957,6.213-5.695,10.489
				c32.051-15.642,70.306-22.294,100.519-22.338c30.326-0.044,60.546,7.202,90.837,8.079c31.505,0.913,61.922-4.268,91.406-14.578"
				/>
			<path style="fill:#FFFFFF;" d="M6858.874-1923.639c0,0,6.524-2.076,7.583,1.678s8.108,0.399,6.788,8.931s1.571-6.396-11.18-7.803
				S6858.874-1923.639,6858.874-1923.639z"/>
		</g>
		<path style="fill:#342E1F;" d="M6923.064-1970.528c-0.146-0.034-0.303-0.016-0.453,0.007c-0.854,0.132-1.688,0.398-2.46,0.787
			c1.136-1.046,2.127-2.248,2.937-3.562c0.178-0.288,0.32-0.723,0.041-0.913c-0.181-0.123-0.425-0.048-0.625,0.038
			c-0.963,0.409-1.863,0.969-2.657,1.651c-0.269,0.23-0.687,0.475-0.929,0.218c-0.19-0.202-0.07-0.53,0.058-0.777l2.217-4.242
			c-1.802,0.765-3.439,1.915-4.771,3.351c0.21-1.123,0.327-2.264,0.351-3.406c0.009-0.425-1.952,2.049-2.063,2.318
			c-0.12,0.291-0.37,0.655-0.655,0.523c-0.192-0.089-0.222-0.345-0.225-0.557c-0.016-1.218-0.033-2.437-0.049-3.655
			c-1.22,1.483-2.298,3.083-3.212,4.772c0.087-1.202,0.516-2.872-0.009-3.914c-0.344,0.05-0.43,0.271-0.462,0.606
			c-0.159,1.626-0.698,3.214-1.56,4.6c0.148-0.766-0.27-1.242-0.959-1.243c-0.014,1.143-0.773,3.915-0.471,4.868
			c-0.091-0.285-0.182-0.571-0.272-0.856c0.125,0.391-0.834,3.32-1.057,3.901c-0.588,1.532-1.805,2.774-2.759,4.079
			c-6.577,8.988-13.277,18.092-21.729,25.278c-5.169-0.873-8.663-3.249-10.652-4.042c-1.129-0.45-2.129-1.117-3.12-1.822
			c-1.897-1.35-3.457-3.102-5.3-4.512c-0.578-0.441-1.222-0.903-1.969-0.575c-1.169,0.514-1.117-1.832-1.589-2.387
			c-0.357-0.42-1.077-0.578-1.45-0.173c-0.118,0.128-0.219,0.308-0.351,0.403c-0.141-0.239-0.282-0.478-0.423-0.717
			c-0.097-0.163-0.217-0.343-0.393-0.361c-0.038-0.004-0.072,0-0.105,0.01c-0.537-1.458-1.305-3.864-2.319-2.485
			c-0.262,0.356-0.317,0.825-0.296,1.267c-0.723-0.741-1.859-3.939-3.031-3.819c-0.261,0.027-0.453,0.221-0.625,0.456
			c-0.284-0.775-0.639-1.589-0.953-1.685c-0.45-0.056-0.347,1.293-0.184,2.605c-0.101-0.026-0.208-0.073-0.331-0.155
			c-0.392-0.266-0.414-0.819-0.485-1.288c-0.086-0.578-0.308-1.135-0.642-1.614c-0.175-0.252-0.468-0.508-0.753-0.396
			c-0.25,0.098-0.322,0.414-0.351,0.682c-0.017,0.158-0.029,0.316-0.042,0.474c-0.358-0.726-1.147-1.909-1.81-2
			c-0.426,0.937,0.414,2.577,0.843,3.512c0.161,0.35,0.331,0.71,0.47,1.078c-0.174-0.067-0.345-0.241-0.456-0.405
			c-0.556-0.823-1.111-1.645-1.666-2.468c-0.161-0.238-0.336-0.488-0.6-0.602c-0.263-0.114-0.638-0.018-0.714,0.259
			c-0.034,0.124-0.003,0.257,0.028,0.382c0.16,0.645,0.75,1.821,0.75,2.463c-0.046,0.386,0.062,0.788,0.173,1.168
			c-0.126-0.049-0.255-0.038-0.375,0.008c-0.399-0.38-0.694-0.853-1.056-1.267c-0.11-0.126-0.228-0.349-0.432-0.226
			c-0.229,0.137-0.154,0.368-0.06,0.57c0.064,0.138,0.133,0.274,0.208,0.408c0.282,0.507,0.564,1.014,0.847,1.52
			c0.066,0.343,0.268,0.662,0.466,0.958c0.141,0.209,0.283,0.417,0.425,0.625c0.15,0.266,0.299,0.532,0.451,0.797
			c1.395,2.437,3.249,4.46,5.156,6.439c1.064,1.103,2.174,2.164,3.377,3.138c1.775,1.438,3.606,2.719,5.702,3.618
			c0.854,0.366,1.742,0.675,2.533,1.195c0.583,0.384,1.228,0.633,1.891,0.852c0.877,0.291,1.764,0.572,2.556,1.077
			c0.749,0.478,1.528,0.892,2.32,1.28c0.578,0.567,1.247,1.21,1.913,1.802c-0.583,0.14-1.102,0.3-1.613,0.482
			c-1.932,0.689-3.438,1.814-4.269,3.791c-0.714,1.7-0.567,3.315,0.187,4.914c0.166,0.352,0.381,0.758,0.75,0.959
			c0.358,0.195,0.504,0.459,0.616,0.842c0.188,0.638,0.625,1.125,1.257,1.376c0.235,0.093,0.646,0.142,0.646,0.142
			s-0.121-0.35-0.144-0.541c-0.065-0.533,0.035-0.705,0.544-0.871c0.327-0.106,0.686-0.141,0.989-0.291
			c1.024-0.507,1.91-0.204,2.742,0.422c0.586,0.441,1.142,0.916,1.821,1.23c2.528,1.171,4.733,2.912,7.547,3.347
			c1.161,0.18,3.204,0.079,5.135-0.407c0.885,0.764,1.565,1.677,1.753,2.823c0.392,2.382-1.562,4.84-0.718,7.102
			c0.522,0.842,1.786,0.124,2.773,0.054c1.062-0.075,1.955,0.722,2.9,1.212c2.323,1.206,5.074,0.656,7.513,0.187
			c1.063-0.205,2.473-0.258,3.466-0.67c0.991-0.411,1.334-1.193,2.583-1.361c2.446-0.329,4.317-3.572,5.865-5.281
			c0.356-0.393,0.739-0.897,0.574-1.401c-0.13-0.398-0.551-0.612-0.934-0.782c-6.6-2.922-13.6-5.064-19.683-8.95
			c-0.272-0.174-0.566-0.386-0.623-0.704c-0.047-0.265,0.081-0.493,0.276-0.685c2.463-1.137,4.64-2.818,6.711-4.657
			c1.277-1.134,2.234-2.601,3.547-3.715c0.631-0.535,1.208-1.245,1.592-2.055c0.49-1.029,1.136-1.946,1.897-2.761
			c0.601-0.642,1.272-0.984,1.923-1.799c0.246-0.307,0.333-0.555,0.371-0.876c0.056-0.468,0.194-0.862,0.638-1.065
			c0.426-0.194,0.533-0.581,0.578-1.015c0.019-0.185-0.066-0.646-0.066-0.646s0.298-0.141,0.444-0.225
			c0.549-0.319,0.836-0.833,0.998-1.447c0.057-0.215,0.102-0.657,0.102-0.657s0.543-0.323,0.871-0.439
			c0.438-0.156,0.938-0.434,0.964-1.006c0.014-0.29-0.159-0.842-0.159-0.842s1.094-1.077,1.699-1.526
			c0.7-0.519,1.289-1.176,1.278-2.179c-0.004-0.403-0.406-0.466-0.406-0.466c1.28-0.807,3.333-1.926,2.989-3.753
			c-0.053-0.283-0.162-0.579-0.065-0.851c0.071-0.202,0.244-0.349,0.416-0.476c0.497-0.367,1.065-0.658,1.458-1.135
			s0.552-1.234,0.143-1.698c-0.159-0.18-0.401-0.324-0.426-0.563c-0.022-0.212,0.142-0.393,0.298-0.537
			c1.014-0.929,2.312-1.659,2.854-2.924c0.75-1.754-0.175-4.078,1.069-5.523c0.268-0.311,0.621-0.553,0.825-0.909
			c0.204-0.356,0.177-0.903-0.194-1.077C6923.139-1970.507,6923.102-1970.519,6923.064-1970.528"/>
		<g>
			<path style="fill:#ED1E25;" d="M6605.46-1918.805l0.625,2.012l3.11-0.966l0.428,1.38l-3.11,0.966l1.053,3.392l-1.497,0.465
				l-2.542-8.188l4.959-1.54l0.435,1.403L6605.46-1918.805z"/>
			<path style="fill:#ED1E25;" d="M6620.8-1920.108c0.65,2.579-0.796,4.816-3.268,5.44c-2.473,0.624-4.796-0.661-5.447-3.241
				c-0.65-2.58,0.785-4.813,3.257-5.437C6617.815-1923.971,6620.149-1922.688,6620.8-1920.108z M6613.751-1918.33
				c0.417,1.653,1.83,2.497,3.389,2.104c1.568-0.396,2.401-1.807,1.984-3.459c-0.417-1.652-1.819-2.5-3.389-2.104
				C6614.177-1921.397,6613.333-1919.982,6613.751-1918.33z"/>
			<path style="fill:#ED1E25;" d="M6626.072-1920.21l-0.579,0.101l0.588,3.365l-1.544,0.27l-1.477-8.444l3.111-0.545
				c1.677-0.293,2.908,0.561,3.174,2.081c0.219,1.255-0.352,2.324-1.55,2.795l3.097,3.001l-1.941,0.34L6626.072-1920.21z
				 M6625.254-1921.472l1.327-0.232c0.892-0.157,1.24-0.653,1.116-1.365c-0.12-0.688-0.624-1.084-1.516-0.928l-1.328,0.232
				L6625.254-1921.472z"/>
			<path style="fill:#ED1E25;" d="M6643.338-1920.575l0.167,1.46l-5.111,0.585l-0.973-8.518l5.05-0.577l0.167,1.46l-3.494,0.399
				l0.195,1.704l3.189-0.365l0.163,1.436l-3.188,0.365l0.282,2.458L6643.338-1920.575z"/>
			<path style="fill:#ED1E25;" d="M6650.41-1919.791l-1.574,0.144l-3.943-8.253l1.83-0.168l2.689,6.251l0.038-0.003l1.508-6.636
				l1.832-0.167L6650.41-1919.791z"/>
			<path style="fill:#ED1E25;" d="M6661.114-1922.06l0.098,1.468l-5.134,0.339l-0.566-8.556l5.073-0.335l0.096,1.466l-3.507,0.232
				l0.113,1.711l3.203-0.212l0.095,1.442l-3.203,0.212l0.164,2.469L6661.114-1922.06z"/>
			<path style="fill:#ED1E25;" d="M6666.186-1924.25l-0.589,0.024l0.135,3.415l-1.566,0.062l-0.339-8.568l3.159-0.125
				c1.701-0.067,2.809,0.943,2.869,2.486c0.051,1.273-0.659,2.257-1.909,2.564l2.672,3.389l-1.971,0.077L6666.186-1924.25z
				 M6665.543-1925.61l1.346-0.053c0.906-0.036,1.317-0.481,1.289-1.204c-0.026-0.698-0.473-1.157-1.38-1.122l-1.347,0.053
				L6665.543-1925.61z"/>
			<path style="fill:#ED1E25;" d="M6676.755-1924.354l0.015,3.286l-1.582,0.007l-0.015-3.274l-2.894-5.296l1.851-0.009l1.808,3.682
				l0.036-0.001l1.774-3.698l1.851-0.008L6676.755-1924.354z"/>
			<path style="fill:#ED1E25;" d="M6688.543-1923.086c-0.091,1.676-1.416,2.352-2.895,2.271l-3.621-0.196l0.465-8.56l3.388,0.183
				c1.504,0.082,2.528,0.874,2.452,2.292c-0.049,0.917-0.538,1.553-1.41,1.776l-0.001,0.024
				C6687.929-1925.082,6688.613-1924.381,6688.543-1923.086z M6686.889-1923.335c0.038-0.709-0.427-1.164-1.369-1.215l-1.724-0.094
				l-0.124,2.275l1.786,0.096C6686.314-1922.225,6686.85-1922.626,6686.889-1923.335z M6683.98-1928.043l-0.112,2.054l1.517,0.082
				c0.796,0.043,1.255-0.312,1.292-0.972c0.036-0.673-0.423-1.041-1.12-1.078L6683.98-1928.043z"/>
			<path style="fill:#ED1E25;" d="M6700.172-1924.016c-0.226,2.651-2.321,4.292-4.861,4.076c-2.542-0.216-4.318-2.188-4.092-4.839
				c0.227-2.651,2.31-4.293,4.852-4.077C6698.611-1928.639,6700.398-1926.666,6700.172-1924.016z M6692.929-1924.632
				c-0.145,1.698,0.917,2.956,2.518,3.093c1.612,0.138,2.858-0.925,3.003-2.623c0.145-1.698-0.904-2.956-2.516-3.093
				C6694.333-1927.392,6693.074-1926.331,6692.929-1924.632z"/>
			<path style="fill:#ED1E25;" d="M6710.232-1922.94c-0.286,2.656-2.324,4.063-4.894,3.785l-2.729-0.294l0.919-8.526l2.73,0.294
				C6708.83-1927.405,6710.52-1925.595,6710.232-1922.94z M6704.935-1926.371l-0.609,5.652l1.242,0.134
				c1.535,0.166,2.786-0.698,2.985-2.537c0.198-1.839-0.841-2.949-2.375-3.115L6704.935-1926.371z"/>
			<path style="fill:#ED1E25;" d="M6716.622-1921.152l-0.399,3.26l-1.568-0.192l0.396-3.248l-2.203-5.615l1.838,0.224l1.329,3.879
				l0.036,0.004l2.224-3.445l1.835,0.225L6716.622-1921.152z"/>
			<path style="fill:#ED1E25;" d="M6723.016-1917.044l-1.208,1.736l-0.679-0.086l0.891-1.776l-0.68-0.086l0.213-1.688l1.677,0.212
				L6723.016-1917.044z"/>
			<path style="fill:#ED1E25;" d="M6736.469-1916.8l-0.186,1.458l-5.102-0.653l1.087-8.504l5.042,0.646l-0.188,1.458l-3.486-0.446
				l-0.218,1.7l3.184,0.408l-0.183,1.433l-3.184-0.407l-0.314,2.454L6736.469-1916.8z"/>
			<path style="fill:#ED1E25;" d="M6743.21-1914.482l-1.569-0.192l-2.111-8.901l1.825,0.223l1.308,6.679l0.037,0.004l2.877-6.167
				l1.825,0.223L6743.21-1914.482z"/>
			<path style="fill:#ED1E25;" d="M6754.163-1914.715l-0.16,1.461l-5.116-0.559l0.933-8.527l5.056,0.552l-0.16,1.462l-3.497-0.382
				l-0.185,1.706l3.191,0.349l-0.158,1.438l-3.191-0.349l-0.269,2.46L6754.163-1914.715z"/>
			<path style="fill:#ED1E25;" d="M6759.415-1916.154l-0.585-0.054l-0.314,3.403l-1.561-0.144l0.788-8.539l3.148,0.291
				c1.695,0.156,2.66,1.303,2.517,2.84c-0.116,1.269-0.949,2.151-2.228,2.292l2.203,3.71l-1.963-0.181L6759.415-1916.154z
				 M6758.958-1917.587l1.341,0.124c0.902,0.083,1.369-0.304,1.436-1.024c0.063-0.695-0.319-1.21-1.223-1.294l-1.34-0.124
				L6758.958-1917.587z"/>
			<path style="fill:#ED1E25;" d="M6769.798-1915.183l-0.224,3.278l-1.577-0.108l0.222-3.266l-2.501-5.491l1.847,0.127l1.536,3.803
				l0.036,0.003l2.036-3.56l1.848,0.125L6769.798-1915.183z"/>
			<path style="fill:#ED1E25;" d="M6782.221-1915.61c-0.097,2.67-2.027,4.219-4.612,4.126l-2.743-0.099l0.309-8.572l2.743,0.099
				C6780.501-1919.964,6782.317-1918.28,6782.221-1915.61z M6776.69-1918.654l-0.204,5.682l1.249,0.046
				c1.543,0.055,2.731-0.895,2.797-2.745c0.067-1.849-1.049-2.882-2.591-2.938L6776.69-1918.654z"/>
			<path style="fill:#ED1E25;" d="M6790.115-1913.263l-3.531,0.021l-0.712,1.953l-1.74,0.011l3.394-8.603l1.57-0.009l3.496,8.562
				l-1.742,0.01L6790.115-1913.263z M6789.591-1914.682l-1.27-3.352l-1.231,3.367L6789.591-1914.682z"/>
			<path style="fill:#ED1E25;" d="M6798.667-1914.92l0.18,3.281l-1.579,0.087l-0.179-3.269l-3.156-5.143l1.849-0.101l1.99,3.587
				l0.036-0.003l1.585-3.782l1.849-0.101L6798.667-1914.92z"/>
			<path style="fill:#ED1E25;" d="M6805.512-1920.78l0.042,0.427l0.076,5.462l-0.818,0.079l-0.991-5.373l-0.042-0.427
				L6805.512-1920.78z M6804.671-1912.073l-0.163-1.672l1.624-0.158l0.163,1.672L6804.671-1912.073z"/>
		</g>
	</g>
</g>
<g id="Layer_1">
</g>
</svg>
