<?xml version="1.0" encoding="iso-8859-1"?>
<!-- Generator: Adobe Illustrator 19.1.0, SVG Export Plug-In . SVG Version: 6.00 Build 0)  -->
<svg version="1.1" xmlns="http://www.w3.org/2000/svg" xmlns:xlink="http://www.w3.org/1999/xlink" x="0px" y="0px"
	 viewBox="0 0 1136 803.471" style="enable-background:new 0 0 1136 803.471;" xml:space="preserve">
<g id="Logo">
	<g>
		<g>
			<path style="fill:#DF352A;" d="M6606.51-2046.639c0.318-2.434,0.687-5.196,0.997-7.51c-0.717-0.058-1.425-0.041-2.117,0.052
				c-1.591,0.214-3.961,0.709-7.046,1.47c-2.597,0.645-7.196,1.84-14.353,3.867l-5.36,1.171l0.499-1.312
				c2.355-6.197,4.797-12.277,7.259-18.071c2.486-5.868,5.036-11.475,7.581-16.663c2.492-5.095,5.01-9.786,7.486-13.942
				c2.396-4.031,4.618-7.436,6.605-10.12c1.311-1.699,2.621-3.199,3.901-4.472c1.235-1.221,2.361-2.407,3.351-3.528l0.155-0.175
				l0.226-0.058c4.984-1.275,10.031-2.323,14.998-3.115c1.243-0.198,2.495-0.419,3.751-0.64c8.285-1.461,16.854-2.972,24.618,1.575
				c0.218,0.127,0.435,0.26,0.652,0.397c0.836,0.531,1.784,1.205,2.466,2.177c0.305,0.434,0.528,0.812,0.711,1.125
				c0.146,0.249,0.329,0.559,0.411,0.62c-0.026-0.025,0.183-0.056,0.902-0.475c0.869-0.506,1.724-1.208,2.55-1.886
				c0.381-0.313,0.759-0.623,1.136-0.914c0.085-0.066,0.282-0.205,0.552-0.396c2.87-2.029,3.869-2.926,4.162-3.317
				c-0.958-2.136-3.127-4.036-6.453-5.65c-4.661-2.256-12.318-2.877-22.762-1.843c-4.095,0.406-8.321,1.013-12.558,1.805
				c-4.305,0.807-8.599,1.717-12.763,2.704l-0.465,0.11l-0.3-0.371c-0.95-1.175-2.469-1.615-4.649-1.35
				c-2.081,0.255-4.68,1.966-7.726,5.088l-0.13,0.134l-0.177,0.059c-10.08,3.287-19.827,7.278-28.973,11.862
				c-8.996,4.512-16.921,9.521-23.556,14.887c-6.496,5.259-11.586,10.69-15.131,16.144c-3.243,4.981-4.55,9.858-3.893,14.511
				l11.778-2.458c-0.103-2.021,0.139-4.151,0.719-6.343c0.793-3.002,2.136-5.836,3.991-8.424
				c5.153-6.404,11.655-12.135,19.353-17.066c7.767-4.972,16.593-9.35,26.23-13.01l2.247-0.854l-1.35,1.989
				c-5.135,7.57-10.484,17.151-15.9,28.479c-5.499,11.499-10.214,23.888-14.015,36.824l-0.104,0.357l-0.348,0.136
				c-1.511,0.589-2.941,1.21-4.25,1.846c-1.374,0.668-2.743,1.292-4.07,1.855c-0.083,0.048-0.507,0.204-1.991,0.743
				c-0.562,0.204-1.266,0.46-1.71,0.626c0.002,2.518-0.014,5.623-0.033,8.316c0.38-0.12,0.842-0.266,1.278-0.403
				c1.504-0.475,1.568-0.493,1.653-0.508c0.611-0.108,1.29-0.381,2.018-0.812c0.817-0.481,1.887-1.094,3.209-1.831l1.56-0.869
				l-0.456,1.725c-2.883,10.923-4.949,21.803-6.141,32.338c-1.155,10.219-1.018,19.314,0.408,27.031
				c0.486,2.627,1.126,4.551,1.907,5.734c2.682-2.295,5.864-4.452,9.477-6.425c-0.209-0.651-0.465-1.215-0.765-1.681
				c-0.65-1.004-1.13-2.429-1.467-4.358c-1.151-6.592-0.789-15.281,1.079-25.826c1.917-10.824,4.75-22.068,8.422-33.42l0.122-0.377
				l0.378-0.116c1.718-0.526,3.438-1.05,5.158-1.57c3.795-1.096,7.969-2.149,12.412-3.132c4.281-0.943,7.524-1.576,9.381-1.831
				C6604.246-2046.137,6605.342-2046.352,6606.51-2046.639z M6857.835-2026.164l0.376-0.155c1.897-0.78,3.774-1.871,5.579-3.245
				c1.676-1.292,3.395-2.936,5.111-4.893l-0.35-0.728c-1.124,0.643-2.207,1.215-3.23,1.708c-2.44,1.175-4.518,1.88-6.178,2.092
				l-0.82,0.104l-0.036-0.826c-0.132-3.16-0.913-5.905-2.319-8.156c-2.415-3.861-6.487-5.997-11.464-6.016
				c-0.272,0-0.551,0.007-0.834,0.021c-11.971,0.511-27.191,13.026-34.659,28.489c-1.156,2.392-2.084,4.781-2.757,7.103
				l-0.095,0.206c-3.998,6.074-7.42,6.383-10.232,5.882c-1.522-0.267-2.732-1.258-3.498-2.867
				c-1.727-3.626,0.178-10.704,4.97-18.469l15.236-23.91l-9.304-1.468l-2.367,3.683l-0.655-1.516
				c-0.033-0.079-0.064-0.159-0.1-0.235c-1.893-3.981-5.468-6.499-10.064-7.088c-0.671-0.085-1.381-0.13-2.108-0.133
				c-0.018,0-0.039,0-0.058,0c-11.352,0-26.149,10.616-35.213,25.272c-1.091,1.763-2.084,3.58-2.953,5.4l-0.111,0.17
				c-15.94,18.433-25.771,21.654-31.18,21.099c-4.721-0.477-6.585-3.708-6.663-3.846c-1.975-3.19-1.546-11.757,2.618-20.524
				c7.216-15.203,19.11-23.836,25.676-22.357c0.491,0.109,0.765,0.191,1.146,0.477l0.119,0.11c1.69,1.95-3.827,8.024-7.872,12.016
				l12.1,0.093c4.405-6.028,5.839-11.434,4.146-15.651c-1.476-3.669-5.037-5.782-9.768-5.796c-0.02,0-0.039,0-0.058,0
				c-11.443,0-25.473,12.074-33.381,28.741c-0.948,1.997-1.771,4.014-2.447,5.995l-0.076,0.161
				c-9.631,15.233-16.779,18.979-21.08,19.438c-3.719,0.397-5.656-1.533-5.737-1.616c-2.338-3.012-3.858-8.095-4.456-14.767
				l-0.024-0.262l2.852-4.354c37.861-46.983,56.358-80.913,53.535-98.181c-0.888-5.433-3.617-7.518-4.432-8.028
				c-0.077-0.047-0.165-0.099-0.256-0.148c-2.379-1.266-6.313-2.323-11.563-0.179c-16.091,6.567-33.888,38.862-42.465,65.915
				c-4.481,14.146-6.778,28.716-6.464,41.028c0,0,0.074,1.49,0.165,3.033l0.015,0.25l-1.119,1.71
				c-6.987,10.687-9.878,15.11-15.077,16.393c-0.709,0.173-3.104,0.188-4.783-1.925c-2.333-2.929-1.471-6.154,1.087-15.725
				l7.791-24.964l-9.22,0.311c-0.162,0.651-0.452,1.831-0.808,3.296l-0.386,1.591l-0.965-1.324
				c-0.253-0.348-0.517-0.686-0.797-1.006c-2.44-2.791-5.739-4.267-9.446-4.267c-0.707,0-1.427,0.053-2.161,0.162l-0.225,0.032
				c-11.417,1.839-23.88,16.571-28.979,34.267c-3.416,11.855-2.553,21.879,2.366,27.503c2.9,3.323,7.023,4.781,11.605,4.105
				l0.232-0.033c7.333-1.181,15.452-7.889,21.704-17.941l0.548-0.88l0.674,0.787c0.421,0.492,4.274,4.798,10.432,4.469
				c6.073-0.324,12.256-5.017,18.377-13.947l0.881-1.284l0.468,1.485c1.038,3.288,2.385,6.014,4.003,8.104
				c2.673,3.452,6.264,5.36,10.113,5.376l0.425-0.007c0.986,0.007,9.628-0.099,20.378-12.024l0.963-1.068l0.338,1.398
				c0.422,1.745,1.057,3.306,1.885,4.641c2.58,4.155,6.619,6.612,11.685,7.106c4.908,0.469,16.521-1.737,28.796-13.043l1.104-1.018
				l0.165,1.493c0.208,1.891,0.679,3.617,1.399,5.131c1.9,3.98,5.476,6.497,10.068,7.085c0.679,0.087,1.389,0.133,2.112,0.137
				c0.02,0,0.04,0,0.061,0c6.711,0,14.949-3.807,22.608-10.453l0.984-0.853l0.258,1.276c0.264,1.303,0.652,2.497,1.153,3.55
				c1.897,3.98,5.473,6.497,10.069,7.088c0.668,0.087,1.361,0.131,2.118,0.136c3.32,0.013,5.404-0.54,7.232-1.904l0.93-0.692
				l0.264,1.128c0.397,1.7,1.019,3.234,1.847,4.558c2.412,3.858,6.483,5.993,11.464,6.011c0.249-0.003,0.525-0.007,0.793-0.017
				c12.01-0.511,27.229-13.027,34.693-28.496c1.675-3.461,2.851-6.87,3.496-10.134L6857.835-2026.164z M6673.203-2039.871
				c0.94-8.039,2.781-16.422,5.471-24.917c10.168-32.084,27.38-56.395,37.496-60.52c1.288-0.531,2.394-0.729,3.395-0.507
				l0.366,0.079l0.159,0.339c0.16,0.339,0.381,0.933,0.529,1.835c0.523,3.214,0.234,10.954-7.569,26.709
				c-7.639,15.417-20.59,34.776-38.496,57.539l-1.663,2.114L6673.203-2039.871z M6633.849-2019.651
				c-4.365,15.157-15.088,26.958-21.982,28.069l-0.102,0.015c-0.324,0.047-0.622,0.069-0.897,0.069
				c-1.516,0-2.321-0.661-2.864-1.275c-2.125-2.433-3.542-8.957-0.549-19.344c4.431-15.386,14.991-26.941,22.073-28.08
				c2.138-0.317,3.136,0.481,3.771,1.207C6635.421-2036.558,6636.84-2030.035,6633.849-2019.651z M6787.632-2026.832
				c-8.082,13.067-20.708,21.138-27.792,21.139c-0.357-0.001-0.725-0.021-1.054-0.064c-2.127-0.275-2.878-1.31-3.295-2.181
				c-1.388-2.914-0.989-9.578,4.699-18.772c8.082-13.066,20.703-21.135,27.787-21.135c0.025,0,0.052,0,0.083,0
				c0.333,0,0.664,0.023,0.971,0.062c2.133,0.276,2.883,1.313,3.298,2.183C6793.717-2042.689,6793.32-2036.026,6787.632-2026.832z
				 M6848.439-2024.057c-0.504,1.529-1.149,3.108-1.915,4.692c-5.238,10.856-17.728,23.236-27.276,23.646l-0.434,0.011
				c-2.012-0.01-3.387-0.656-4.214-1.974c-1.566-2.509-1.823-8.118,2.151-16.344c4.241-8.788,12.825-17.895,20.411-21.655
				l1.115-0.552l-0.019,1.244c-0.037,2.417,0.742,4.501,2.386,6.372c1.662,1.904,4.081,3.105,7.188,3.57l0.891,0.133
				L6848.439-2024.057z M6911.445-2013.067c-0.482-1.036-1.345-3.058-2.358-6.188c-2.026-8.926-10.118-14.88-18.85-13.891
				c-4.576,0.514-8.678,2.848-11.547,6.573c-2.877,3.732-4.167,8.404-3.631,13.154c0.495,4.419,2.548,8.479,5.779,11.434
				l3.031,3.079c0.058,0.058,0.125,0.124,0.193,0.181c2.134,1.882,3.48,4.501,3.808,7.39c0.688,6.117-3.43,11.623-9.18,12.275
				c-5.752,0.633-10.982-3.813-11.671-9.93c-0.354-3.119,0.175-5.464,1.713-7.603l0.774-0.85l-12.422,1.096
				c0.501,1.258,1.265,3.729,1.757,7.942l0.106,0.815c1.399,10.307,10.661,17.798,20.66,16.671
				c10.237-1.152,17.6-10.721,16.412-21.329c-0.551-4.854-2.821-9.29-6.387-12.49l-3.022-3.068
				c-0.061-0.063-0.119-0.116-0.178-0.169c-1.803-1.619-2.947-3.875-3.229-6.36c-0.288-2.563,0.375-5.082,1.866-7.095
				c1.504-2.03,3.666-3.297,6.088-3.569c3.531-0.394,6.992,1.46,8.848,4.728c0.608,1.228,2.204,5.281-0.016,10.628
				L6911.445-2013.067z M6876.515-2040.583l-0.001,0.002c-0.587,0.531-1.233,1.081-1.932,1.639l0.218,0.19
				c1.777-0.645,3.341-1.364,4.653-2.14c3.809-2.281,6.299-5.331,7.398-9.064c0.744-2.52,0.652-4.71-0.273-6.511
				c-0.923-1.815-2.334-2.965-4.311-3.52c-1.786-0.502-3.293-0.371-4.613,0.396c-1.338,0.773-2.235,1.991-2.744,3.722
				c-0.458,1.556-0.362,2.91,0.293,4.139c0.661,1.238,1.715,2.066,3.129,2.464l0.162,0.065c1.105,0.529,1.741,1.29,1.89,2.263
				C6880.637-2045.267,6879.372-2043.189,6876.515-2040.583z"/>
			<path style="fill:#FFFFFF;" d="M6641.268-2047.545c0,0-0.004,0.017-0.008,0.032l-0.061,0.002c0,0-0.004,0.017-0.008,0.032
				l-0.061,0.002c0,0-0.004,0.017-0.008,0.032l-0.061,0.002c0,0-0.004,0.017-0.008,0.032l-0.061,0.002c0,0-0.004,0.017-0.008,0.032
				l-0.061,0.002c0,0-0.004,0.017-0.008,0.032l-0.061,0.002c0,0-0.004,0.017-0.008,0.032l-0.061,0.002c0,0-0.004,0.017-0.008,0.032
				l-0.061,0.002c0,0-0.004,0.017-0.008,0.032l-0.061,0.002c0,0-0.004,0.017-0.008,0.032l-0.061,0.002c0,0-0.004,0.017-0.008,0.032
				l-0.061,0.002c0,0-0.004,0.017-0.008,0.032l-0.061,0.002c0,0-0.004,0.017-0.008,0.032l-0.061,0.002c0,0-0.004,0.017-0.008,0.032
				l-0.061,0.002c0,0-0.004,0.017-0.008,0.032l-0.061,0.002c0,0-0.004,0.017-0.008,0.032l-0.061,0.002c0,0-0.004,0.017-0.008,0.032
				l-0.061,0.002c0,0-0.004,0.017-0.008,0.032l-0.061,0.002c0,0-0.004,0.017-0.008,0.032l-0.061,0.002c0,0-0.004,0.017-0.008,0.032
				l-0.055,0.002c0.348,0.321,0.693,0.646,1.016,1.008c0.178-0.727,0.324-1.32,0.425-1.731l-0.001,0c0,0-0.004,0.017-0.008,0.032
				L6641.268-2047.545z M6725.167-2034.952c-0.129,0.127-0.233,0.272-0.35,0.413l14.258,0.11c0.009-0.012,0.015-0.023,0.024-0.035
				l0.045,0c0.009-0.012,0.015-0.023,0.024-0.035l0.045,0c0.009-0.012,0.015-0.023,0.024-0.035l0.045,0
				c0.009-0.012,0.015-0.023,0.024-0.035l0.045,0c0.009-0.012,0.015-0.023,0.024-0.035l0.045,0c0.009-0.012,0.015-0.023,0.024-0.035
				l0.045,0c0.009-0.012,0.015-0.023,0.024-0.035l0.045,0c0.009-0.012,0.015-0.023,0.024-0.035l0.045,0
				c0.009-0.012,0.015-0.023,0.024-0.035l0.045,0c0.009-0.012,0.015-0.023,0.024-0.035l0.045,0c0.008-0.012,0.015-0.023,0.024-0.035
				l0.044,0c0.009-0.012,0.016-0.023,0.024-0.035l0.044,0c0.009-0.012,0.016-0.023,0.024-0.035l0.044,0
				c0.009-0.012,0.016-0.023,0.024-0.035l0.044,0c0.009-0.012,0.016-0.023,0.024-0.035l0.044,0c0.009-0.012,0.016-0.023,0.024-0.035
				l0.045,0c0.009-0.012,0.016-0.023,0.024-0.035l0.044,0c0.009-0.012,0.016-0.023,0.024-0.035l0.045,0
				c0.009-0.012,0.016-0.023,0.024-0.035l0.045,0c0.009-0.012,0.016-0.023,0.024-0.035l0.044,0c0.009-0.012,0.015-0.023,0.024-0.035
				l0.045,0c0.009-0.012,0.016-0.023,0.024-0.035l0.045,0c0.009-0.012,0.015-0.023,0.024-0.035l0.045,0
				c0.009-0.012,0.016-0.023,0.024-0.035l0.045,0c0.009-0.012,0.015-0.023,0.024-0.035l0.045,0c0.009-0.012,0.016-0.023,0.024-0.035
				l0.045,0c0.009-0.012,0.015-0.023,0.024-0.035l0.045,0c0.009-0.012,0.015-0.023,0.024-0.035l0.045,0
				c0.009-0.012,0.015-0.023,0.024-0.035l0.045,0c0.009-0.012,0.015-0.023,0.024-0.035l0.045,0c0.009-0.012,0.015-0.023,0.024-0.035
				l0.045,0c0.009-0.012,0.015-0.023,0.024-0.035l0.045,0c0.009-0.012,0.015-0.023,0.024-0.035l0.045,0
				c0.009-0.012,0.015-0.023,0.024-0.035l0.045,0c0.009-0.012,0.015-0.023,0.024-0.035l0.045,0c0.008-0.012,0.015-0.023,0.024-0.035
				l0.045,0c0.008-0.012,0.015-0.023,0.024-0.035l0.045,0c0.008-0.012,0.015-0.023,0.024-0.035l0.044,0
				c0.009-0.012,0.016-0.023,0.024-0.035l0.044,0c0.009-0.012,0.016-0.023,0.024-0.035l0.044,0c0.009-0.012,0.016-0.023,0.024-0.035
				l0.044,0c0.009-0.012,0.016-0.023,0.024-0.035l0.044,0c0.009-0.012,0.016-0.023,0.024-0.035l0.044,0
				c0.009-0.012,0.016-0.023,0.024-0.035l0.045,0c0.009-0.012,0.016-0.023,0.024-0.035l0.044,0c0.009-0.012,0.016-0.023,0.024-0.035
				l0.045,0c0.009-0.012,0.016-0.023,0.024-0.035l0.044,0c0.009-0.012,0.016-0.023,0.024-0.035l0.045,0
				c0.009-0.012,0.016-0.023,0.024-0.035l0.044,0c0.009-0.012,0.015-0.023,0.024-0.035l0.045,0c0.009-0.012,0.016-0.023,0.024-0.035
				l0.045,0c0.009-0.012,0.015-0.023,0.024-0.035l0.045,0c0.009-0.012,0.016-0.023,0.024-0.035l0.045,0
				c0.009-0.012,0.015-0.023,0.024-0.035l0.045,0c0.009-0.012,0.016-0.023,0.024-0.035l0.045,0c0.009-0.012,0.015-0.023,0.024-0.035
				l0.045,0c0.009-0.012,0.015-0.023,0.024-0.035l0.045,0c0.009-0.012,0.015-0.023,0.024-0.035l0.045,0
				c0.009-0.012,0.015-0.023,0.024-0.035l0.045,0c0.009-0.012,0.015-0.023,0.024-0.035l0.045,0c0.009-0.012,0.015-0.023,0.024-0.035
				l0.045,0c0.008-0.012,0.015-0.023,0.024-0.035l0.045,0c0.008-0.012,0.015-0.023,0.024-0.035l0.045,0
				c0.008-0.012,0.015-0.023,0.024-0.035l0.045,0c0.008-0.012,0.015-0.023,0.024-0.035l0.045,0c0.008-0.012,0.015-0.023,0.024-0.035
				l0.044,0c0.009-0.012,0.016-0.023,0.024-0.035l0.044,0c0.009-0.012,0.016-0.023,0.024-0.035l0.044,0
				c0.009-0.012,0.016-0.023,0.024-0.035l0.044,0c0.009-0.012,0.016-0.023,0.024-0.035l0.044,0c0.009-0.012,0.016-0.023,0.024-0.035
				l0.044,0c0.009-0.012,0.016-0.023,0.024-0.035l0.044,0c0.009-0.012,0.016-0.023,0.024-0.035l0.045,0
				c0.009-0.012,0.016-0.023,0.024-0.035l0.044,0c0.009-0.012,0.016-0.023,0.024-0.035l0.045,0c0.009-0.012,0.016-0.023,0.024-0.035
				l0.044,0c0.009-0.012,0.016-0.023,0.024-0.035l0.045,0c0.009-0.012,0.016-0.023,0.024-0.035l0.044,0
				c0.009-0.012,0.015-0.023,0.024-0.035l0.045,0c0.002-0.003,0.004-0.006,0.007-0.01l-14.34-0.11l1.002-1.227
				c0.185-0.232,0.287-0.359,0.404-0.474c7.12-6.868,8.639-10.059,8.649-10.8c-0.076-0.033-0.186-0.064-0.412-0.114
				c-2.26-0.511-5.326,0.449-8.628,2.625c0.652-0.045,1.272-0.018,1.841,0.11c0.455,0.101,0.607,0.157,0.855,0.344
				C6734.714-2045.856,6732.091-2041.633,6725.167-2034.952z M6578.765-2081.029c4.983-10.421,9.915-19.382,14.682-26.675
				c-1.763,0.7-3.477,1.44-5.181,2.188c-4.978,7.378-10.273,16.801-15.768,28.291c-5.357,11.202-9.871,23.054-13.603,35.496
				c0.619-0.284,1.237-0.545,1.858-0.847c1.245-0.605,2.595-1.195,4.016-1.759
				C6568.574-2057.219,6573.282-2069.563,6578.765-2081.029z M6652.354-2113.594c0.849,0.538,1.675,1.15,2.252,1.972
				c1.172,1.672,1.076,2.461,2.43,1.81c0.021-0.01,0.047-0.024,0.068-0.034c0.021-0.01,0.047-0.024,0.069-0.034
				c0.021-0.01,0.047-0.024,0.068-0.034c0.021-0.01,0.047-0.024,0.069-0.035c0.021-0.01,0.046-0.024,0.068-0.034
				c0.021-0.01,0.048-0.024,0.07-0.035c0.021-0.01,0.046-0.024,0.068-0.034c0.021-0.01,0.048-0.024,0.069-0.035
				c0.021-0.01,0.047-0.024,0.068-0.034c0.021-0.01,0.048-0.024,0.069-0.035c0.021-0.01,0.047-0.024,0.068-0.034
				c0.021-0.01,0.048-0.024,0.069-0.035c0.021-0.01,0.047-0.024,0.068-0.034c0.021-0.01,0.048-0.024,0.069-0.035
				c0.021-0.01,0.047-0.024,0.068-0.034c0.021-0.01,0.047-0.024,0.069-0.034c0.021-0.01,0.047-0.024,0.069-0.035
				c0.021-0.01,0.047-0.024,0.068-0.034c0.021-0.01,0.047-0.024,0.069-0.035c0.021-0.01,0.047-0.024,0.068-0.034
				c0.021-0.01,0.047-0.024,0.069-0.035c0.021-0.01,0.047-0.024,0.068-0.034c0.021-0.01,0.047-0.024,0.069-0.035
				c0.021-0.01,0.047-0.024,0.068-0.034c0.021-0.01,0.047-0.024,0.069-0.035c0.021-0.01,0.047-0.024,0.068-0.034
				c0.021-0.01,0.047-0.024,0.069-0.035c0.021-0.01,0.047-0.024,0.068-0.034c0.021-0.01,0.047-0.024,0.069-0.035
				c0.021-0.01,0.047-0.024,0.068-0.034c0.021-0.01,0.047-0.024,0.069-0.035c0.021-0.01,0.046-0.024,0.068-0.034
				c0.021-0.01,0.048-0.024,0.07-0.035c0.021-0.01,0.046-0.024,0.068-0.034c0.021-0.01,0.048-0.024,0.07-0.035
				c0.021-0.01,0.046-0.024,0.068-0.034c0.021-0.01,0.048-0.024,0.069-0.035c0.021-0.01,0.047-0.024,0.068-0.034
				c0.021-0.01,0.048-0.024,0.069-0.035c0.021-0.01,0.047-0.024,0.068-0.034c0.021-0.01,0.047-0.024,0.069-0.034
				c0.021-0.01,0.048-0.024,0.069-0.035c0.021-0.01,0.047-0.024,0.068-0.034c0.021-0.01,0.047-0.024,0.069-0.035
				c0.021-0.01,0.047-0.024,0.068-0.034c0.021-0.01,0.047-0.024,0.069-0.035c0.021-0.01,0.047-0.024,0.068-0.034
				c0.021-0.01,0.047-0.024,0.069-0.035c0.021-0.01,0.047-0.024,0.068-0.034c0.021-0.01,0.048-0.024,0.069-0.035
				c0.021-0.01,0.047-0.024,0.068-0.034c0.021-0.01,0.047-0.024,0.069-0.035c0.021-0.01,0.047-0.024,0.068-0.034
				c0.021-0.01,0.047-0.024,0.069-0.035c0.021-0.01,0.047-0.024,0.068-0.034c0.021-0.01,0.047-0.024,0.069-0.035
				c0.021-0.01,0.047-0.024,0.068-0.034c0.021-0.01,0.047-0.024,0.069-0.035c0.021-0.01,0.046-0.024,0.068-0.034
				c0.021-0.01,0.047-0.024,0.069-0.035c0.021-0.01,0.046-0.024,0.068-0.034c0.021-0.01,0.048-0.024,0.07-0.035
				c0.021-0.01,0.046-0.024,0.068-0.034c0.021-0.01,0.047-0.024,0.069-0.034c0.021-0.01,0.048-0.024,0.069-0.035
				c0.021-0.01,0.047-0.024,0.068-0.034c0.021-0.01,0.048-0.024,0.069-0.035c0.021-0.01,0.047-0.024,0.068-0.034
				c0.021-0.01,0.048-0.024,0.069-0.035c0.021-0.01,0.047-0.024,0.068-0.034c0.021-0.01,0.048-0.024,0.069-0.035
				c0.021-0.01,0.047-0.024,0.068-0.034c0.021-0.01,0.047-0.024,0.069-0.035c0.021-0.01,0.047-0.024,0.068-0.034
				c0.021-0.01,0.047-0.024,0.069-0.035c0.021-0.01,0.047-0.024,0.068-0.034c0.021-0.01,0.047-0.024,0.069-0.035
				c0.021-0.01,0.047-0.024,0.068-0.034c0.021-0.01,0.047-0.024,0.069-0.035c0.002-0.001,0.005-0.003,0.008-0.004
				c-0.315-0.22-0.594-0.587-0.899-1.105c-0.167-0.284-0.369-0.628-0.645-1.022c-0.53-0.754-1.327-1.316-2.037-1.767
				c-0.202-0.128-0.403-0.25-0.605-0.369c-7.282-4.264-15.572-2.803-23.588-1.391c-1.265,0.223-2.525,0.446-3.776,0.645
				c-4.847,0.773-9.769,1.792-14.635,3.03c-0.401,0.45-0.835,0.915-1.276,1.383c2.937-0.638,5.881-1.215,8.84-1.687
				c9.344-1.49,19.184-4.244,27.866,0.841C6651.935-2113.854,6652.145-2113.727,6652.354-2113.594z M6879.619-2029.816
				c-0.021,0.01-0.04,0.021-0.061,0.031c-0.024,0.011-0.046,0.024-0.07,0.035c-0.023,0.01-0.045,0.023-0.068,0.034
				c-0.024,0.011-0.046,0.024-0.07,0.035c-0.023,0.01-0.045,0.024-0.068,0.034c-0.024,0.011-0.046,0.024-0.07,0.035
				c-0.023,0.01-0.045,0.024-0.068,0.034c-0.023,0.01-0.045,0.024-0.069,0.034c-0.024,0.011-0.046,0.024-0.07,0.035
				c-0.023,0.01-0.045,0.024-0.068,0.034c-0.024,0.011-0.046,0.024-0.07,0.035c-0.023,0.01-0.045,0.023-0.068,0.034
				c-0.024,0.011-0.046,0.024-0.07,0.035c-0.023,0.01-0.045,0.024-0.068,0.034s-0.045,0.024-0.069,0.035
				c-0.023,0.01-0.045,0.024-0.068,0.034s-0.046,0.024-0.069,0.035c-0.023,0.01-0.045,0.024-0.068,0.034s-0.046,0.024-0.069,0.035
				c-0.023,0.01-0.045,0.024-0.068,0.034s-0.046,0.024-0.069,0.035c-0.023,0.01-0.045,0.024-0.068,0.034
				c-0.023,0.011-0.046,0.024-0.069,0.035c-0.023,0.01-0.045,0.024-0.068,0.034c-7.036,3.17-11.559,10.822-10.623,19.136
				c0.45,4.013,2.133,7.732,4.78,10.658l1.037-0.092l-0.527,0.61c0.241,0.246,0.475,0.499,0.73,0.732l3.003,3.051
				c0.082,0.08,0.166,0.162,0.25,0.233c1.977,1.742,3.232,4.192,3.537,6.891c0.3,2.666-0.383,5.199-1.734,7.21
				c0.03-0.003,0.061-0.002,0.091-0.005c4.918-0.557,8.437-5.31,7.841-10.595c-0.285-2.514-1.451-4.789-3.285-6.406
				c-0.084-0.07-0.184-0.167-0.282-0.264l-3.01-3.057c-3.473-3.174-5.698-7.572-6.235-12.356c-0.578-5.143,0.82-10.204,3.937-14.25
				C6878.137-2028.345,6878.859-2029.107,6879.619-2029.816z M6696.467-2022.147c-4.384,6.934-8.221,11.46-11.5,14.357
				c4.043-1.386,9.979-5.872,17.763-18.162c0.688-2.009,1.523-4.051,2.483-6.071c4.503-9.49,10.982-17.521,17.901-22.819
				c-9.104,4.43-18.311,14.276-24.167,26.62C6697.965-2026.156,6697.141-2024.126,6696.467-2022.147z M6798.574-2007.4
				c-0.364,0.553-0.719,1.032-1.069,1.483c1.739,0.048,4.257-0.663,7.324-5.281c0.694-2.369,1.642-4.8,2.816-7.23
				c4.219-8.737,10.883-16.545,18.095-21.916c-9.442,4.795-18.937,14.484-24.364,25.722
				C6800.184-2012.154,6799.251-2009.736,6798.574-2007.4z M6836.787-2033.769c-1.996,1.108-4.043,2.584-6.044,4.302
				c0.329,1.758,1.102,3.374,2.378,4.828c1.8,2.061,4.354,3.326,7.646,3.82c-0.471,1.423-1.083,2.953-1.879,4.599
				c-3.023,6.266-8.485,13.011-14.355,17.616c7.916-3.474,16.527-12.929,20.625-21.421c0.599-1.239,1.119-2.471,1.553-3.675
				c-3.049-0.611-5.471-1.925-7.209-3.915C6837.91-2029.427,6837-2031.492,6836.787-2033.769z M6719.121-2123.317
				c-0.076-0.457-0.169-0.806-0.258-1.064c-0.599-0.024-1.302,0.141-2.118,0.477c-1.283,0.523-2.688,1.396-4.18,2.574
				c0.12,0.313,0.252,0.759,0.353,1.367c0.507,3.118,0.213,10.673-7.5,26.249c-6.284,12.683-16.161,28.001-29.428,45.701
				c-0.354,1.877-0.666,3.741-0.926,5.586c16.96-21.74,29.277-40.269,36.625-55.1
				C6719.303-2112.901,6719.613-2120.284,6719.121-2123.317z M6611.672-1992.604l0.074,0.273l-0.048-0.295
				C6611.689-1992.619,6611.681-1992.611,6611.672-1992.604z M6788.84-2046.279c-0.256-0.032-0.547-0.051-0.827-0.049
				c-0.01,0-0.021,0-0.031,0c-2.4,0-5.492,1.02-8.825,2.893c0.668-0.114,1.306-0.178,1.898-0.176
				c0.323-0.002,0.638,0.019,0.93,0.055c1.754,0.228,2.354,1.014,2.707,1.757c1.41,2.958,0.516,9.68-4.657,18.043
				c-3.756,6.073-8.49,11.028-13.166,14.586c6.349-3.053,13.958-9.545,19.473-18.462c4.994-8.074,5.894-14.636,4.617-17.316
				C6790.701-2045.492,6790.301-2046.089,6788.84-2046.279z M6629.757-2038.696c-1.669,0.269-3.585,1.233-5.579,2.75
				c0.766,0.151,1.243,0.529,1.596,0.932c2.153,2.466,3.113,9.187,0.393,18.629c-2.838,9.855-8.361,18.232-13.706,23.095
				c6.453-1.81,15.896-12.78,19.929-26.78c2.627-9.12,1.719-15.682-0.235-17.919
				C6631.758-2038.444,6631.214-2038.907,6629.757-2038.696z M6759.78-1995.444c-0.786-0.004-1.558-0.054-2.297-0.149
				c-5.122-0.657-9.115-3.476-11.245-7.938c-0.606-1.274-1.052-2.677-1.33-4.187c-2.02,1.787-3.985,3.304-5.888,4.622
				c0.247,0.944,0.544,1.861,0.95,2.714c2.015,4.22,5.797,6.89,10.656,7.513c0.715,0.092,1.455,0.139,2.204,0.143
				c3.643,0.012,7.631-1.045,11.675-2.959c0.023-0.011,0.046-0.024,0.07-0.035c0.022-0.011,0.045-0.023,0.068-0.034
				c0.023-0.011,0.046-0.024,0.07-0.035c0.022-0.011,0.045-0.023,0.068-0.034c0.023-0.011,0.046-0.024,0.07-0.035
				c0.022-0.011,0.045-0.023,0.067-0.034c0.023-0.011,0.047-0.024,0.07-0.035c0.022-0.01,0.045-0.023,0.067-0.034
				c0.023-0.011,0.047-0.024,0.07-0.035c0.022-0.01,0.045-0.023,0.067-0.034c0.023-0.011,0.047-0.024,0.07-0.035
				c0.022-0.01,0.045-0.023,0.067-0.034c0.023-0.011,0.047-0.024,0.07-0.035c0.022-0.01,0.045-0.023,0.067-0.034
				c0.023-0.011,0.047-0.024,0.07-0.035c0.023-0.01,0.045-0.023,0.068-0.034c0.003-0.001,0.006-0.003,0.009-0.005
				c-1.999,0.511-3.938,0.797-5.771,0.797C6759.823-1995.444,6759.802-1995.444,6759.78-1995.444z M6680.53-1995.275
				c-4.395-0.016-8.41-2.135-11.375-5.963c-1.483-1.917-2.747-4.314-3.766-7.142c-1.667,2.323-3.347,4.337-5.034,6.059
				c0.723,1.521,1.529,2.908,2.448,4.095c2.834,3.66,6.618,5.654,10.71,5.67c0.153-0.001,0.307-0.002,0.458-0.008
				c1.739,0.046,4.637-0.47,8.23-2.235c0.023-0.011,0.047-0.024,0.071-0.035c0.022-0.011,0.045-0.023,0.067-0.033
				c0.023-0.011,0.047-0.024,0.071-0.035c0.022-0.011,0.045-0.023,0.067-0.033c0.023-0.011,0.047-0.024,0.071-0.035
				c0.022-0.011,0.045-0.022,0.067-0.033c0.023-0.011,0.047-0.024,0.071-0.035c0.022-0.011,0.045-0.023,0.067-0.034
				c0.023-0.011,0.047-0.024,0.071-0.035c0.022-0.011,0.045-0.023,0.067-0.034c0.022-0.011,0.046-0.023,0.069-0.034
				c0.023-0.011,0.047-0.024,0.071-0.035c0.022-0.011,0.045-0.023,0.067-0.034c0.023-0.011,0.047-0.024,0.071-0.035
				c0.022-0.011,0.044-0.023,0.067-0.034c0.023-0.011,0.047-0.024,0.071-0.035c0.022-0.011,0.044-0.023,0.067-0.034
				c0.023-0.011,0.047-0.024,0.071-0.035c0.022-0.011,0.044-0.023,0.067-0.034c0.023-0.011,0.047-0.024,0.071-0.035
				c0.022-0.011,0.044-0.023,0.067-0.034c0.021-0.01,0.043-0.021,0.064-0.032c-1.043,0.208-1.987,0.294-2.809,0.273
				L6680.53-1995.275z M6715.997-1995.236c-5.554-0.541-9.991-3.244-12.828-7.816c-0.694-1.118-1.264-2.375-1.699-3.748
				c-1.868,1.977-3.721,3.644-5.526,5.059c0.275,0.611,0.571,1.207,0.917,1.765c2.465,3.972,6.455,6.895,12.256,7.461
				c2.699,0.261,8.521-0.256,15.804-3.797C6719.978-1994.97,6716.675-1995.171,6715.997-1995.236z M6635.738-1999.276
				c-1.155,1.795-2.372,3.478-3.633,5.044c2.972,1.772,7.695,3.219,13.58,0.31c0.022-0.011,0.045-0.023,0.068-0.034
				c0.023-0.011,0.046-0.023,0.069-0.034c0.023-0.011,0.046-0.023,0.07-0.035c0.022-0.011,0.045-0.023,0.068-0.034
				c0.023-0.011,0.046-0.023,0.07-0.035c0.023-0.011,0.045-0.023,0.068-0.034c0.023-0.011,0.046-0.023,0.069-0.035
				c0.022-0.011,0.045-0.023,0.068-0.034c0.023-0.011,0.046-0.023,0.07-0.035c0.022-0.011,0.045-0.023,0.068-0.034
				c0.023-0.011,0.046-0.023,0.07-0.035c0.022-0.011,0.045-0.023,0.068-0.034c0.023-0.011,0.046-0.023,0.07-0.035
				c0.022-0.011,0.045-0.023,0.068-0.034c0.023-0.011,0.046-0.023,0.069-0.035c0.023-0.011,0.045-0.023,0.068-0.034
				c0.023-0.011,0.046-0.023,0.069-0.035c0.023-0.011,0.045-0.023,0.068-0.034c0.023-0.011,0.046-0.023,0.069-0.035
				c0.023-0.011,0.045-0.023,0.068-0.034c0.023-0.011,0.047-0.023,0.07-0.035c0.023-0.011,0.045-0.023,0.068-0.034
				c0.023-0.011,0.047-0.023,0.07-0.035c0.023-0.011,0.045-0.023,0.068-0.034c0.023-0.011,0.046-0.023,0.069-0.034
				c0.023-0.011,0.047-0.023,0.07-0.035c0.022-0.011,0.045-0.023,0.068-0.034c0.023-0.011,0.047-0.023,0.07-0.035
				c0.022-0.011,0.045-0.023,0.068-0.034c0.023-0.011,0.047-0.024,0.07-0.035c0.022-0.011,0.045-0.023,0.067-0.034
				c0.023-0.011,0.046-0.023,0.07-0.035c0.022-0.011,0.045-0.023,0.068-0.034c0.023-0.011,0.046-0.023,0.07-0.035
				c0.022-0.011,0.045-0.023,0.068-0.034c0.023-0.011,0.046-0.023,0.07-0.035c0.012-0.006,0.025-0.012,0.038-0.019
				c-0.499,0.079-0.997,0.142-1.496,0.168C6641.149-1994.722,6637.284-1997.785,6635.738-1999.276z M6600.244-2042.553
				c0.001-0.006,0.002-0.013,0.003-0.019c0.022-0.006,0.043-0.01,0.066-0.015c0.001-0.006,0.002-0.013,0.002-0.019
				c0.023-0.006,0.044-0.01,0.066-0.015c0.001-0.006,0.002-0.013,0.002-0.019c0.023-0.006,0.044-0.01,0.066-0.015
				c0.001-0.006,0.002-0.013,0.002-0.019c0.023-0.006,0.044-0.01,0.066-0.015c0.001-0.006,0.002-0.013,0.002-0.019
				c0.023-0.006,0.044-0.01,0.066-0.015c0.001-0.006,0.002-0.013,0.002-0.019c0.022-0.006,0.044-0.01,0.066-0.015
				c0.001-0.006,0.002-0.013,0.002-0.019c0.022-0.006,0.044-0.01,0.066-0.015c0.001-0.006,0.002-0.013,0.002-0.019
				c0.022-0.006,0.044-0.01,0.066-0.015c0.001-0.006,0.001-0.013,0.002-0.019c0.022-0.006,0.044-0.01,0.066-0.015
				c0.001-0.006,0.001-0.013,0.002-0.019c0.022-0.006,0.044-0.01,0.066-0.015c0.001-0.006,0.001-0.013,0.002-0.019
				c0.022-0.006,0.044-0.01,0.066-0.015c0.001-0.006,0.001-0.013,0.002-0.019c0.022-0.006,0.044-0.01,0.066-0.015
				c0.001-0.006,0.001-0.013,0.002-0.019c0.022-0.006,0.044-0.01,0.066-0.015c0.001-0.006,0.001-0.013,0.002-0.019
				c0.022-0.006,0.044-0.01,0.066-0.015c0.001-0.006,0.001-0.013,0.002-0.019c0.022-0.006,0.043-0.01,0.066-0.015
				c0-0.006,0.001-0.013,0.002-0.019c0.022-0.006,0.043-0.01,0.066-0.015c0-0.006,0.001-0.013,0.002-0.019
				c0.022-0.006,0.043-0.01,0.066-0.015c0-0.006,0.001-0.013,0.002-0.019c0.022-0.006,0.043-0.01,0.066-0.015
				c0-0.006,0.001-0.013,0.002-0.019c0.022-0.006,0.043-0.01,0.066-0.015c0-0.006,0.001-0.013,0.002-0.019
				c0.022-0.006,0.043-0.01,0.066-0.015c0-0.006,0.001-0.013,0.002-0.019c0.022-0.006,0.043-0.01,0.066-0.015
				c0-0.006,0.001-0.013,0.002-0.019c0.022-0.006,0.043-0.01,0.066-0.015c0-0.006,0.001-0.013,0.002-0.019
				c0.022-0.006,0.043-0.01,0.066-0.015c0-0.006,0.001-0.013,0.002-0.019c0.022-0.006,0.043-0.01,0.066-0.015
				c0-0.006,0.001-0.013,0.002-0.019c0.022-0.006,0.043-0.01,0.066-0.015c0.001-0.006,0.002-0.013,0.003-0.019
				c0.022-0.006,0.043-0.01,0.066-0.015c0.001-0.006,0.002-0.013,0.003-0.019c0.022-0.006,0.043-0.01,0.066-0.015
				c0.001-0.006,0.002-0.013,0.003-0.019c0.022-0.006,0.043-0.01,0.066-0.015c0.001-0.006,0.002-0.013,0.003-0.019
				c0.022-0.006,0.043-0.01,0.066-0.015c0.001-0.006,0.002-0.013,0.003-0.019c0.022-0.006,0.043-0.01,0.066-0.015
				c0.001-0.006,0.002-0.013,0.002-0.019c0.023-0.006,0.044-0.01,0.066-0.015c0.001-0.006,0.002-0.013,0.002-0.019
				c0.023-0.006,0.044-0.01,0.066-0.015c0.001-0.006,0.002-0.013,0.002-0.019c0.022-0.006,0.044-0.01,0.066-0.015
				c0.001-0.006,0.001-0.013,0.002-0.019c0.022-0.006,0.044-0.01,0.066-0.015c0.001-0.006,0.001-0.013,0.002-0.019
				c0.022-0.006,0.044-0.01,0.066-0.015c0.001-0.006,0.001-0.013,0.002-0.019c0.022-0.006,0.044-0.01,0.066-0.015
				c0.001-0.006,0.001-0.013,0.002-0.019c0.022-0.006,0.044-0.01,0.066-0.015c0.001-0.006,0.001-0.013,0.002-0.019
				c0.022-0.006,0.044-0.01,0.066-0.015c0.001-0.006,0.001-0.013,0.002-0.019c0.022-0.006,0.044-0.01,0.066-0.015
				c0.001-0.006,0.001-0.013,0.002-0.019c0.022-0.006,0.044-0.01,0.066-0.015c0.001-0.006,0.001-0.013,0.002-0.019
				c0.022-0.006,0.044-0.01,0.066-0.015c0.001-0.006,0.001-0.013,0.002-0.019c0.022-0.006,0.044-0.01,0.066-0.015
				c0.001-0.006,0.001-0.013,0.002-0.019c0.022-0.006,0.043-0.01,0.066-0.015c0-0.006,0.001-0.013,0.002-0.019
				c0.022-0.006,0.043-0.01,0.066-0.015c0-0.006,0.001-0.013,0.002-0.019c0.022-0.006,0.043-0.01,0.066-0.015
				c0-0.006,0.001-0.013,0.002-0.019c0.022-0.006,0.043-0.01,0.066-0.015c0-0.006,0.001-0.013,0.002-0.019
				c0.022-0.006,0.043-0.01,0.066-0.015c0-0.006,0.001-0.013,0.002-0.019c0.022-0.006,0.043-0.01,0.066-0.015
				c0-0.006,0.001-0.013,0.002-0.019c0.022-0.006,0.043-0.01,0.066-0.015c0-0.006,0.001-0.013,0.002-0.019
				c0.022-0.006,0.043-0.01,0.066-0.015c0-0.006,0.001-0.013,0.002-0.019c0.022-0.006,0.043-0.01,0.066-0.015
				c0-0.006,0.001-0.013,0.002-0.019c0.022-0.006,0.043-0.01,0.066-0.015c0-0.006,0.001-0.013,0.002-0.019
				c0.022-0.006,0.043-0.01,0.066-0.015c0-0.006,0.001-0.013,0.002-0.019c0.022-0.006,0.043-0.01,0.066-0.015
				c0.001-0.006,0.002-0.013,0.003-0.019c0.022-0.006,0.043-0.01,0.066-0.015c0.001-0.006,0.002-0.013,0.002-0.019
				c0.022-0.006,0.044-0.01,0.066-0.015c0.001-0.006,0.002-0.013,0.002-0.019c0.022-0.006,0.044-0.01,0.066-0.015
				c0.001-0.006,0.002-0.013,0.002-0.019c0.022-0.006,0.044-0.01,0.066-0.015c0.001-0.006,0.002-0.013,0.002-0.019
				c0.022-0.006,0.044-0.01,0.066-0.015c0.001-0.006,0.002-0.013,0.002-0.019c0.022-0.006,0.044-0.01,0.066-0.015
				c0.001-0.006,0.002-0.013,0.002-0.019c0.022-0.006,0.044-0.01,0.066-0.015c0-0.005,0.001-0.01,0.002-0.015
				c-0.332,0.057-0.678,0.127-0.993,0.17c-1.816,0.25-5.019,0.877-9.261,1.811c-4.411,0.976-8.553,2.021-12.309,3.105
				c-1.584,0.479-3.175,0.963-4.765,1.45c-0.074,0.232-0.137,0.461-0.211,0.693c3.18-0.873,6.557-1.714,10.169-2.513
				c4.449-0.98,7.555-1.578,9.322-1.821C6597.617-2041.94,6598.903-2042.207,6600.244-2042.553z M6613.251-1981.427
				c-0.812,0.12-1.612,0.179-2.396,0.179c-4.143,0-7.835-1.655-10.569-4.788c-5.265-6.019-6.243-16.561-2.681-28.922
				c3.561-12.36,10.684-23.313,18.633-29.693c-0.013,0.006-0.026,0.013-0.039,0.02c-0.023,0.012-0.046,0.022-0.069,0.034
				c-0.023,0.013-0.046,0.022-0.069,0.035c-0.023,0.012-0.045,0.022-0.068,0.034c-0.023,0.013-0.046,0.022-0.069,0.035
				c-0.023,0.012-0.045,0.022-0.068,0.034c-0.023,0.013-0.046,0.022-0.069,0.035c-0.023,0.012-0.045,0.022-0.068,0.034
				c-0.023,0.013-0.046,0.022-0.069,0.035c-0.022,0.012-0.045,0.022-0.068,0.034c-0.023,0.013-0.046,0.022-0.069,0.035
				c-0.022,0.012-0.045,0.022-0.068,0.034c-0.023,0.013-0.046,0.022-0.069,0.035c-0.022,0.012-0.045,0.022-0.068,0.034
				c-0.023,0.013-0.046,0.022-0.069,0.035c-0.022,0.012-0.045,0.022-0.068,0.034c-0.023,0.013-0.046,0.022-0.07,0.035
				c-0.023,0.012-0.045,0.022-0.068,0.034c-0.023,0.012-0.046,0.022-0.069,0.035c-0.022,0.012-0.045,0.022-0.068,0.034
				c-0.023,0.013-0.046,0.022-0.07,0.035c-0.022,0.012-0.045,0.022-0.068,0.034c-0.023,0.013-0.046,0.022-0.07,0.035
				c-0.022,0.012-0.045,0.022-0.068,0.034c-0.023,0.012-0.046,0.022-0.069,0.034c-0.023,0.013-0.046,0.022-0.069,0.035
				c-0.023,0.012-0.045,0.022-0.068,0.034c-9.596,5.208-18.812,17.839-23.027,32.465c-3.487,12.102-2.568,22.391,2.523,28.212
				c3.075,3.523,7.442,5.07,12.288,4.356l0.226-0.032c2.196-0.354,4.429-1.169,6.64-2.378c0.023-0.013,0.046-0.022,0.07-0.035
				c0.022-0.012,0.045-0.022,0.068-0.034c0.023-0.013,0.046-0.022,0.07-0.035c0.022-0.012,0.045-0.022,0.068-0.034
				c0.023-0.013,0.046-0.022,0.07-0.035c0.022-0.012,0.045-0.022,0.068-0.034c0.023-0.013,0.046-0.022,0.069-0.035
				c0.023-0.012,0.046-0.022,0.068-0.034c0.023-0.013,0.046-0.022,0.069-0.035c0.023-0.012,0.046-0.022,0.068-0.034
				c0.023-0.013,0.046-0.022,0.07-0.035c0.022-0.012,0.045-0.022,0.068-0.034c0.018-0.01,0.037-0.018,0.055-0.028
				c-0.149,0.028-0.3,0.068-0.449,0.092L6613.251-1981.427z M6871.177-2045.058c0.008,0.004,0.007,0.004,0.007,0.004
				c3.179,1.492,0.843,4.673-2.131,7.387c-0.505,0.458-1.024,0.895-1.54,1.316c0.328-0.185,0.648-0.357,0.983-0.555l0.712-0.42
				l0.934,1.945c0.129-0.056,0.265-0.109,0.391-0.167c0.444-0.2,0.872-0.406,1.283-0.618c0.023-0.012,0.047-0.023,0.07-0.035
				c0.022-0.011,0.045-0.022,0.068-0.034c0.023-0.012,0.047-0.023,0.07-0.035c0.022-0.011,0.046-0.022,0.068-0.034
				c0.023-0.012,0.047-0.023,0.07-0.035c0.022-0.011,0.046-0.022,0.068-0.034c0.023-0.012,0.047-0.023,0.07-0.035
				c0.022-0.011,0.045-0.022,0.068-0.034c0.023-0.012,0.047-0.023,0.07-0.035c0.022-0.011,0.045-0.022,0.068-0.034
				c0.023-0.012,0.047-0.023,0.07-0.035c0.022-0.011,0.045-0.022,0.068-0.034c0.023-0.012,0.047-0.023,0.07-0.035
				c0.022-0.011,0.046-0.023,0.068-0.034c0.022-0.011,0.046-0.023,0.068-0.034c0.023-0.012,0.047-0.023,0.07-0.035
				c0.022-0.011,0.045-0.022,0.067-0.034c0.023-0.012,0.047-0.023,0.07-0.035c0.022-0.011,0.045-0.022,0.067-0.034
				c0.023-0.012,0.047-0.023,0.07-0.035c0.022-0.011,0.045-0.022,0.067-0.034c0.023-0.012,0.047-0.023,0.07-0.035
				c0.022-0.011,0.045-0.022,0.067-0.034c0.023-0.012,0.047-0.023,0.07-0.035c0.022-0.011,0.046-0.022,0.068-0.034
				c0.023-0.012,0.047-0.023,0.07-0.035c0.022-0.011,0.045-0.022,0.067-0.034c0.023-0.012,0.047-0.023,0.07-0.035
				c0.022-0.011,0.045-0.022,0.067-0.034c0.023-0.012,0.047-0.023,0.07-0.035c0.022-0.011,0.046-0.022,0.068-0.034
				c0.023-0.012,0.047-0.023,0.07-0.035c0.022-0.011,0.046-0.022,0.068-0.034c0.014-0.007,0.027-0.014,0.042-0.021l-1.923-1.689
				l0.728-0.563c0.944-0.73,1.806-1.447,2.56-2.131c3.172-2.893,3.486-4.377,3.392-5.005c-0.025-0.165-0.101-0.663-1.029-1.113
				c-1.793-0.52-3.135-1.593-3.989-3.19c-0.842-1.576-0.98-3.354-0.411-5.282c0.303-1.032,0.74-1.928,1.302-2.691
				c-0.011,0.004-0.021,0.008-0.031,0.014c-0.005,0.003-0.009,0.007-0.014,0.01c-0.018,0.01-0.037,0.014-0.055,0.024
				c-0.005,0.003-0.009,0.007-0.014,0.01c-0.018,0.01-0.038,0.014-0.055,0.024c-0.005,0.003-0.009,0.007-0.014,0.01
				c-0.018,0.01-0.037,0.014-0.055,0.024c-0.005,0.003-0.009,0.007-0.014,0.01c-0.018,0.01-0.038,0.014-0.055,0.024
				c-0.005,0.003-0.009,0.007-0.014,0.01c-0.018,0.01-0.037,0.014-0.055,0.024c-0.005,0.003-0.009,0.007-0.014,0.01
				c-0.018,0.01-0.038,0.014-0.055,0.024c-0.005,0.003-0.009,0.007-0.014,0.01c-0.018,0.01-0.037,0.014-0.055,0.024
				c-0.005,0.003-0.009,0.007-0.014,0.01c-0.018,0.01-0.038,0.014-0.055,0.024c-0.005,0.003-0.009,0.007-0.014,0.01
				c-0.018,0.01-0.038,0.014-0.055,0.024c-0.005,0.003-0.009,0.007-0.014,0.01c-0.018,0.01-0.038,0.014-0.055,0.024
				c-0.005,0.003-0.009,0.007-0.014,0.01c-0.018,0.01-0.037,0.014-0.055,0.024c-0.005,0.003-0.009,0.007-0.014,0.01
				c-0.018,0.01-0.037,0.014-0.055,0.024c-0.005,0.003-0.009,0.007-0.014,0.01c-0.018,0.01-0.037,0.014-0.055,0.024
				c-0.005,0.003-0.009,0.007-0.014,0.01c-0.018,0.01-0.038,0.014-0.055,0.024c-0.005,0.003-0.009,0.007-0.014,0.01
				c-0.018,0.01-0.037,0.014-0.055,0.024c-0.005,0.003-0.009,0.007-0.014,0.01c-0.018,0.01-0.038,0.014-0.055,0.024
				c-0.005,0.003-0.009,0.007-0.014,0.01c-0.018,0.01-0.037,0.014-0.055,0.024c-0.005,0.003-0.009,0.007-0.014,0.01
				c-0.018,0.01-0.037,0.014-0.055,0.024c-0.005,0.003-0.009,0.007-0.014,0.01c-0.018,0.01-0.037,0.014-0.055,0.024
				c-0.005,0.003-0.009,0.007-0.014,0.01c-0.018,0.01-0.037,0.014-0.055,0.024c-0.005,0.003-0.009,0.007-0.014,0.01
				c-0.018,0.01-0.037,0.014-0.055,0.024c-0.005,0.003-0.009,0.007-0.014,0.01c-0.018,0.01-0.037,0.014-0.055,0.024
				c-0.005,0.003-0.009,0.007-0.014,0.01c-0.018,0.01-0.037,0.014-0.055,0.024c-0.005,0.003-0.009,0.007-0.014,0.01
				c-0.018,0.01-0.037,0.014-0.055,0.024c-0.005,0.003-0.009,0.007-0.014,0.01c-0.018,0.01-0.038,0.014-0.055,0.025
				c-0.005,0.003-0.009,0.007-0.014,0.01c-0.018,0.01-0.037,0.014-0.055,0.024c-0.005,0.003-0.009,0.007-0.014,0.01
				c-0.018,0.01-0.038,0.014-0.055,0.025c-0.005,0.003-0.009,0.007-0.014,0.01c-0.018,0.01-0.037,0.014-0.055,0.024
				c-0.005,0.003-0.009,0.007-0.014,0.01c-0.018,0.01-0.038,0.014-0.055,0.025c-0.005,0.003-0.009,0.007-0.014,0.01
				c-0.018,0.01-0.037,0.014-0.055,0.024c-0.005,0.003-0.009,0.007-0.014,0.01c-0.018,0.01-0.038,0.014-0.055,0.024
				c-0.005,0.003-0.009,0.007-0.014,0.01c-0.018,0.01-0.037,0.014-0.055,0.024c-0.005,0.003-0.009,0.007-0.014,0.01
				c-0.018,0.01-0.038,0.014-0.055,0.024c-0.005,0.003-0.009,0.007-0.014,0.01c-0.018,0.01-0.037,0.014-0.055,0.024
				c-0.005,0.003-0.009,0.007-0.014,0.01c-0.018,0.01-0.038,0.014-0.055,0.024c-0.005,0.003-0.009,0.007-0.014,0.01
				c-0.018,0.01-0.038,0.014-0.055,0.024c-0.005,0.003-0.009,0.007-0.014,0.01c-0.018,0.01-0.037,0.014-0.055,0.024
				c-0.005,0.003-0.009,0.007-0.014,0.01c-0.018,0.01-0.038,0.014-0.055,0.024c-0.005,0.003-0.009,0.007-0.014,0.01
				c-0.018,0.01-0.037,0.014-0.055,0.024c-0.005,0.003-0.009,0.007-0.014,0.01c-0.018,0.01-0.037,0.014-0.055,0.024
				c-0.005,0.003-0.009,0.007-0.014,0.01c-0.018,0.01-0.037,0.014-0.055,0.024c-0.005,0.003-0.009,0.007-0.014,0.01
				c-0.018,0.01-0.037,0.014-0.055,0.024c-0.005,0.003-0.009,0.007-0.014,0.01c-0.018,0.01-0.038,0.014-0.055,0.024
				c-0.005,0.003-0.009,0.007-0.014,0.01c-0.018,0.01-0.037,0.014-0.055,0.024c-0.005,0.003-0.009,0.007-0.014,0.01
				c-0.018,0.01-0.038,0.014-0.055,0.024c-0.005,0.003-0.009,0.007-0.014,0.01c-0.018,0.01-0.037,0.014-0.055,0.024
				c-0.005,0.003-0.009,0.007-0.014,0.01c-0.018,0.01-0.037,0.014-0.055,0.024c-0.005,0.003-0.009,0.007-0.014,0.01
				c-0.018,0.01-0.038,0.014-0.055,0.024c-0.005,0.003-0.009,0.007-0.014,0.01c-0.018,0.01-0.037,0.014-0.055,0.024
				c-0.005,0.003-0.009,0.007-0.014,0.01c-0.018,0.01-0.038,0.014-0.055,0.024c-0.005,0.003-0.009,0.007-0.014,0.01
				c-0.018,0.01-0.037,0.014-0.055,0.024c-0.005,0.003-0.009,0.007-0.014,0.01c-0.018,0.01-0.038,0.014-0.055,0.024
				c-0.005,0.003-0.009,0.007-0.014,0.01c-0.018,0.01-0.037,0.014-0.055,0.024c-0.005,0.003-0.009,0.007-0.014,0.01
				c-0.018,0.01-0.038,0.014-0.055,0.025c-0.005,0.003-0.009,0.007-0.014,0.01c-0.018,0.01-0.037,0.014-0.055,0.024
				c-0.005,0.003-0.009,0.007-0.014,0.01c-0.018,0.01-0.038,0.014-0.055,0.025c-0.005,0.003-0.009,0.007-0.014,0.01
				c-0.018,0.01-0.037,0.014-0.055,0.024c-0.005,0.003-0.009,0.007-0.014,0.01c-0.018,0.01-0.038,0.014-0.055,0.025
				c-0.005,0.003-0.009,0.007-0.014,0.01c-0.018,0.01-0.038,0.014-0.055,0.024c-0.005,0.003-0.009,0.007-0.014,0.01
				c-0.018,0.01-0.037,0.014-0.055,0.024c-0.005,0.003-0.009,0.007-0.014,0.01c-0.018,0.01-0.038,0.014-0.055,0.024
				c-0.005,0.003-0.009,0.007-0.014,0.01c-0.018,0.01-0.037,0.014-0.055,0.024c-0.005,0.003-0.009,0.007-0.014,0.01
				c-0.018,0.01-0.038,0.014-0.055,0.024c-0.005,0.003-0.009,0.007-0.014,0.01c-0.018,0.01-0.037,0.014-0.055,0.024
				c-1.498,0.866-2.53,2.256-3.089,4.165c-0.513,1.735-0.397,3.306,0.351,4.71
				C6868.333-2046.494,6869.532-2045.52,6871.177-2045.058z M6908.524-2010.611l-11.486,3.431l0.864-1.608
				c2.941-5.478,1.327-9.631,0.762-10.773c-1.536-2.701-4.41-4.267-7.339-3.93c-1.923,0.215-3.64,1.215-4.881,2.792
				c2.479,0.417,4.66,2.009,5.949,4.278c0.646,1.307,2.321,5.704-0.774,11.469l13.95-4.167l-0.006-0.012l0.075-0.022
				c0,0-0.006-0.011-0.006-0.012l0.075-0.022l-0.006-0.012l0.075-0.022c0,0-0.006-0.011-0.006-0.012l0.075-0.022
				c0,0-0.006-0.011-0.006-0.012l0.075-0.022c0,0-0.006-0.011-0.006-0.012l0.075-0.022c0,0-0.005-0.011-0.006-0.012l0.075-0.022
				l-0.006-0.012l0.075-0.022c0,0-0.006-0.011-0.006-0.012l0.075-0.022c0,0-0.006-0.011-0.006-0.012l0.075-0.022
				c0,0-0.006-0.011-0.006-0.012l0.075-0.022c0,0-0.006-0.011-0.006-0.012l0.075-0.022l-0.006-0.012l0.075-0.022
				c0,0-0.006-0.011-0.006-0.012l0.075-0.022c0,0-0.006-0.011-0.006-0.012l0.075-0.022l-0.006-0.012l0.075-0.022
				c0,0-0.006-0.011-0.006-0.012l0.075-0.022c0,0-0.006-0.011-0.006-0.012l0.075-0.022l-0.006-0.012l0.075-0.022l-0.006-0.012
				l0.075-0.022c0,0-0.006-0.011-0.006-0.012l0.075-0.022l-0.006-0.012l0.075-0.022c0,0-0.006-0.011-0.006-0.012l0.075-0.022
				c0,0-0.006-0.011-0.006-0.012l0.075-0.022l-0.006-0.012l0.075-0.022c0,0-0.006-0.011-0.006-0.012l0.075-0.022
				c0,0-0.006-0.011-0.006-0.012l0.075-0.022l-0.006-0.012l0.075-0.022c0,0-0.006-0.011-0.006-0.012l0.075-0.022
				c0,0-0.006-0.011-0.006-0.012l0.075-0.022l-0.006-0.012l0.075-0.022c0,0-0.006-0.011-0.006-0.012l0.075-0.022
				c0,0-0.006-0.011-0.006-0.012l0.075-0.022l-0.006-0.012l0.075-0.022c0,0-0.005-0.011-0.006-0.012l0.075-0.022
				c0,0-0.005-0.011-0.006-0.012l0.075-0.022l-0.006-0.012l0.075-0.022c0,0-0.006-0.011-0.006-0.012l0.075-0.022
				c0,0-0.006-0.011-0.006-0.012l0.075-0.022l-0.006-0.012l0.075-0.022l-0.006-0.012l0.075-0.022c0,0-0.006-0.011-0.006-0.012
				l0.075-0.022l-0.006-0.012l0.075-0.022C6908.53-2010.6,6908.526-2010.608,6908.524-2010.611z M6877.619-1969.29
				c-9.95,0-18.767-7.726-20.178-18.121l-0.108-0.814c-0.719-6.168-2.026-8.363-2.04-8.385l-0.035-0.057l-0.009,0.001
				c0,0,0.005,0.009,0.016,0.027l-0.084,0.008c0,0,0.005,0.009,0.016,0.027l-0.084,0.007c0,0,0.005,0.009,0.016,0.027l-0.084,0.007
				c0,0,0.005,0.009,0.016,0.027l-0.084,0.007c0,0,0.005,0.009,0.016,0.027l-0.084,0.007c0,0,0.005,0.009,0.016,0.027l-0.084,0.008
				c0,0,0.005,0.009,0.016,0.027l-0.084,0.007c0,0,0.005,0.009,0.016,0.027l-0.084,0.008c0,0,0.005,0.009,0.016,0.027l-0.085,0.007
				c0,0,0.005,0.009,0.016,0.027l-0.084,0.008c0,0,0.006,0.009,0.016,0.027l-0.085,0.007c0,0,0.005,0.009,0.016,0.027l-0.084,0.008
				c0,0,0.006,0.009,0.016,0.027l-0.085,0.008c0,0,0.005,0.009,0.016,0.027l-0.084,0.007c0,0,0.006,0.009,0.016,0.027l-0.085,0.008
				c0,0,0.005,0.009,0.016,0.027l-0.084,0.007c0,0,0.005,0.009,0.016,0.027l-0.084,0.008c0,0,0.005,0.009,0.016,0.027l-0.084,0.007
				c0,0,0.005,0.009,0.016,0.027l-0.084,0.008c0,0,0.005,0.009,0.016,0.027l-0.084,0.007c0,0,0.005,0.009,0.016,0.027l-0.084,0.007
				c0,0,0.005,0.009,0.016,0.027l-0.084,0.007c0,0,0.005,0.009,0.016,0.027l-0.084,0.007c0,0,0.005,0.009,0.016,0.027l-0.084,0.008
				c0,0,0.005,0.009,0.016,0.027l-0.084,0.007c0,0,0.005,0.009,0.016,0.027l-0.084,0.008c0,0,0.005,0.009,0.016,0.027l-0.084,0.007
				c0,0,0.005,0.009,0.016,0.027l-0.084,0.008c0,0,0.005,0.009,0.016,0.027l-0.084,0.007c0,0,0.005,0.009,0.016,0.027l-0.084,0.008
				c0,0,0.005,0.009,0.016,0.027l-0.084,0.007c0,0,0.005,0.009,0.016,0.027l-0.084,0.007c0,0,0.005,0.009,0.016,0.027l-0.084,0.007
				c0,0,0.005,0.009,0.016,0.027l-0.084,0.007c0,0,0.005,0.009,0.016,0.027l-0.084,0.008c0,0,0.005,0.009,0.016,0.027l-0.084,0.007
				c0,0,0.005,0.009,0.016,0.027l-0.084,0.008c0,0,0.005,0.009,0.016,0.027l-0.085,0.007c0,0,0.005,0.009,0.016,0.027l-0.084,0.007
				c0,0,0.006,0.009,0.016,0.027l-0.085,0.007c0,0,0.006,0.009,0.016,0.027l-0.085,0.008c0,0,0.006,0.009,0.016,0.027l-0.085,0.008
				c0,0,0.006,0.009,0.016,0.027l-0.085,0.007c0,0,0.006,0.009,0.016,0.027l-0.085,0.008c0,0,0.006,0.009,0.016,0.027l-0.084,0.007
				c0,0,0.005,0.009,0.016,0.027l-0.084,0.008c0,0,0.005,0.009,0.016,0.027l-0.084,0.007c0,0,0.005,0.009,0.016,0.027l-0.084,0.008
				c0,0,0.005,0.009,0.016,0.027l-0.084,0.007c0,0,0.005,0.009,0.016,0.027l-0.084,0.008c0,0,0.005,0.009,0.016,0.027l-0.084,0.007
				c0,0,0.005,0.009,0.016,0.027l-0.084,0.008c0,0,0.005,0.009,0.016,0.027l-0.084,0.008c0,0,0.005,0.009,0.016,0.027l-0.084,0.007
				c0,0,0.005,0.009,0.016,0.027l-0.084,0.008c0,0,0.005,0.009,0.016,0.027l-0.084,0.007c0,0,0.005,0.009,0.016,0.027l-0.084,0.008
				c0,0,0.005,0.009,0.016,0.027l-0.084,0.007c0,0,0.005,0.009,0.016,0.027l-0.084,0.008c0,0,0.005,0.009,0.016,0.027l-0.084,0.007
				c0,0,0.005,0.009,0.016,0.027l-0.084,0.007c0,0,0.005,0.009,0.016,0.027l-0.084,0.007c0,0,0.005,0.009,0.016,0.027l-0.084,0.007
				c0,0,0.005,0.009,0.016,0.027l-0.084,0.008c0,0,0.006,0.009,0.016,0.027l-0.085,0.007c0,0,0.005,0.009,0.016,0.027l-0.085,0.008
				c0,0,0.006,0.009,0.016,0.027l-0.085,0.007c0,0,0.006,0.009,0.016,0.027l-0.085,0.008c0,0,0.006,0.009,0.016,0.027l-0.085,0.008
				c0,0,0.006,0.009,0.016,0.027l-0.085,0.008c0,0,0.006,0.009,0.016,0.027l-0.085,0.008c0,0,0.006,0.009,0.016,0.027l-0.085,0.007
				c0,0,0.006,0.009,0.016,0.027l-0.085,0.007c0,0,0.006,0.009,0.016,0.027l-0.084,0.007c0,0,0.005,0.009,0.016,0.027l-0.084,0.008
				c0,0,0.005,0.009,0.016,0.027l-0.084,0.007c0,0,0.005,0.009,0.016,0.027l-0.084,0.008c0,0,0.005,0.009,0.016,0.027l-0.084,0.007
				c0,0,0.005,0.009,0.016,0.027l-0.084,0.008c0,0,0.005,0.009,0.016,0.027l-0.084,0.008c0,0,0.005,0.009,0.016,0.027l-0.084,0.008
				c0,0,0.005,0.009,0.016,0.027l-0.084,0.008c0,0,0.005,0.009,0.016,0.027l-0.084,0.007c0,0,0.005,0.009,0.016,0.027l-0.084,0.008
				c0,0,0.005,0.009,0.016,0.027l-0.084,0.007c0,0,0.005,0.009,0.016,0.027l-0.084,0.007c0,0,0.005,0.009,0.016,0.027l-0.084,0.007
				c0,0,0.005,0.009,0.016,0.027l-0.085,0.008c0,0,0.005,0.009,0.016,0.027l-0.084,0.007c0,0,0.006,0.009,0.016,0.027l-0.085,0.007
				c0,0,0.005,0.009,0.016,0.027l-0.084,0.008c0,0,1.392,2.206,2.147,8.692c0.023,0.179,0.045,0.356,0.067,0.539
				c0.011,0.088,0.032,0.18,0.041,0.266c1.463,10.779,10.998,18.53,21.499,17.348c2.022-0.228,3.934-0.773,5.7-1.578
				c0.023-0.011,0.046-0.024,0.069-0.035c0.023-0.01,0.045-0.023,0.068-0.034c0.024-0.011,0.046-0.024,0.07-0.035
				c0.023-0.01,0.045-0.023,0.068-0.034c0.024-0.011,0.046-0.024,0.07-0.035c0.023-0.01,0.045-0.024,0.068-0.034
				c0.024-0.011,0.046-0.024,0.07-0.035c0.023-0.01,0.045-0.024,0.068-0.034c0.024-0.011,0.046-0.024,0.07-0.035
				c0.023-0.01,0.044-0.024,0.068-0.034c0.024-0.011,0.046-0.024,0.07-0.035c0.023-0.01,0.044-0.024,0.068-0.034
				c0.024-0.011,0.046-0.024,0.069-0.035c0.023-0.01,0.045-0.024,0.068-0.034c0.024-0.011,0.046-0.024,0.069-0.035
				c0.023-0.01,0.045-0.024,0.068-0.034c0.023-0.011,0.045-0.024,0.069-0.034c0.023-0.011,0.046-0.024,0.069-0.035
				c0.023-0.01,0.045-0.024,0.068-0.034c0.023-0.011,0.046-0.024,0.069-0.035c0.023-0.01,0.045-0.024,0.068-0.034
				c0.023-0.011,0.046-0.024,0.069-0.035c0.023-0.01,0.045-0.024,0.068-0.034c0.023-0.011,0.046-0.024,0.07-0.035
				c0.023-0.01,0.044-0.023,0.067-0.034c0.024-0.011,0.046-0.024,0.07-0.035c0.023-0.01,0.045-0.024,0.068-0.034
				c0.024-0.011,0.046-0.024,0.07-0.035c0.023-0.01,0.045-0.024,0.068-0.034c0.024-0.011,0.046-0.024,0.07-0.035
				c0.023-0.01,0.045-0.023,0.068-0.034c0.024-0.011,0.046-0.024,0.07-0.035c0.023-0.01,0.045-0.023,0.068-0.034
				c0.024-0.011,0.046-0.024,0.07-0.035c0.023-0.01,0.045-0.024,0.068-0.034c0.024-0.011,0.046-0.024,0.07-0.035
				c0.023-0.01,0.044-0.024,0.068-0.034c0.024-0.011,0.046-0.024,0.07-0.035c0.023-0.01,0.044-0.024,0.068-0.034
				s0.045-0.024,0.069-0.034c0.002-0.001,0.004-0.002,0.006-0.003c-0.471,0.088-0.94,0.182-1.423,0.236
				C6879.053-1969.33,6878.334-1969.29,6877.619-1969.29z M6818.767-1985.599c-5.517-0.02-10.044-2.409-12.742-6.724
				c-0.741-1.186-1.333-2.517-1.761-3.968c-1.896,1.132-4.113,1.563-7.232,1.591c-0.821-0.005-1.574-0.053-2.305-0.148
				c-5.124-0.659-9.119-3.479-11.245-7.94c-0.391-0.822-0.72-1.716-0.979-2.672c-1.94,1.615-3.914,3.051-5.891,4.3
				c0.178,0.521,0.37,1.034,0.603,1.522c2.013,4.223,5.796,6.889,10.658,7.514c0.726,0.094,1.462,0.137,2.21,0.141
				c2.915,0.01,4.91-0.414,6.583-1.336c0.02-0.01,0.039-0.02,0.058-0.03c0.023-0.012,0.047-0.023,0.07-0.035
				c0.022-0.011,0.045-0.022,0.068-0.034c0.023-0.012,0.047-0.023,0.07-0.035c0.022-0.011,0.045-0.022,0.068-0.034
				c0.023-0.012,0.047-0.023,0.069-0.035c0.023-0.011,0.046-0.022,0.068-0.034c0.023-0.012,0.047-0.023,0.069-0.035
				c0.022-0.011,0.046-0.022,0.068-0.034c0.023-0.012,0.047-0.023,0.069-0.035c0.023-0.011,0.046-0.022,0.068-0.034
				c0.023-0.012,0.047-0.023,0.069-0.035c0.023-0.012,0.046-0.022,0.068-0.034c0.023-0.012,0.046-0.023,0.069-0.034
				c0.023-0.012,0.047-0.023,0.069-0.035c0.023-0.011,0.046-0.022,0.068-0.034c0.018-0.009,0.037-0.016,0.054-0.025
				c0.41,1.691,1.037,3.252,1.905,4.641c2.554,4.086,6.854,6.349,12.104,6.368c0.285,0.002,0.578-0.009,0.874-0.019
				c1.542-0.066,3.137-0.328,4.761-0.763c1.638-0.43,3.305-1.043,4.981-1.814c0.022-0.01,0.045-0.024,0.068-0.034
				c0.023-0.011,0.046-0.024,0.07-0.035c0.022-0.01,0.045-0.024,0.067-0.034c0.023-0.011,0.047-0.024,0.07-0.035
				c0.022-0.01,0.045-0.023,0.067-0.034c0.023-0.01,0.047-0.024,0.07-0.035c0.023-0.01,0.045-0.024,0.068-0.034
				c0.023-0.01,0.047-0.024,0.07-0.035c0.023-0.01,0.045-0.024,0.068-0.034c0.023-0.01,0.047-0.024,0.07-0.035
				c0.022-0.01,0.045-0.024,0.068-0.034c0.023-0.01,0.046-0.024,0.07-0.035c0.022-0.01,0.045-0.023,0.068-0.034
				c0.023-0.011,0.046-0.024,0.07-0.035c0.022-0.01,0.045-0.023,0.068-0.034c0.023-0.011,0.046-0.024,0.07-0.035
				c0.022-0.01,0.045-0.024,0.068-0.034c0.023-0.011,0.046-0.024,0.07-0.035c0.022-0.01,0.045-0.024,0.068-0.034
				c0.023-0.01,0.046-0.024,0.069-0.034c0.023-0.01,0.046-0.024,0.07-0.035c0.022-0.01,0.045-0.024,0.068-0.034
				c0.023-0.01,0.046-0.024,0.07-0.035c0.011-0.005,0.022-0.011,0.033-0.016c-1.488,0.367-2.954,0.607-4.373,0.667
				C6819.333-1985.607,6819.041-1985.604,6818.767-1985.599z M6742.177-2022.756c-5.879,6.798-10.884,11.481-15.147,14.685
				c5.237-2.534,12.239-7.933,21.459-18.58c0.88-1.838,1.885-3.672,2.988-5.453c4.503-7.283,10.417-13.58,16.659-18.16
				c-8.426,4.35-16.953,12.313-22.967,22.035C6744.027-2026.383,6743.035-2024.556,6742.177-2022.756z M6605.722-2123.131
				c-0.014,0.006-0.027,0.013-0.041,0.02c-0.023,0.012-0.045,0.022-0.068,0.034c-0.023,0.012-0.046,0.022-0.07,0.035
				c-0.023,0.012-0.045,0.022-0.068,0.034c-0.023,0.012-0.046,0.022-0.069,0.035c-0.023,0.012-0.045,0.022-0.068,0.034
				c-0.023,0.012-0.046,0.022-0.069,0.035c-0.023,0.012-0.045,0.021-0.068,0.034c-0.023,0.012-0.046,0.022-0.069,0.035
				c-0.023,0.012-0.045,0.021-0.068,0.034c-0.023,0.012-0.046,0.022-0.069,0.035c-0.023,0.012-0.045,0.021-0.068,0.034
				c-0.023,0.012-0.046,0.022-0.069,0.035c-0.023,0.012-0.045,0.022-0.068,0.034c-0.023,0.012-0.046,0.022-0.069,0.035
				c-0.023,0.012-0.045,0.021-0.068,0.034c-0.024,0.012-0.046,0.022-0.07,0.035c-0.023,0.012-0.045,0.022-0.068,0.034
				c-0.024,0.012-0.046,0.022-0.07,0.035c-0.023,0.012-0.045,0.022-0.068,0.034c-0.023,0.012-0.046,0.022-0.069,0.034
				c-0.023,0.012-0.046,0.022-0.07,0.035c-0.023,0.012-0.045,0.022-0.068,0.034c-0.023,0.012-0.046,0.022-0.07,0.035
				c-0.023,0.012-0.045,0.022-0.068,0.034c-0.023,0.012-0.046,0.022-0.07,0.035c-0.023,0.012-0.045,0.022-0.068,0.034
				c-0.023,0.012-0.046,0.022-0.07,0.035c-0.023,0.012-0.045,0.022-0.068,0.034c-0.023,0.012-0.046,0.022-0.07,0.035
				c-0.023,0.012-0.045,0.021-0.068,0.034c-0.023,0.012-0.046,0.022-0.07,0.035c-0.023,0.012-0.045,0.021-0.068,0.034
				c-0.023,0.012-0.046,0.022-0.069,0.035c-0.023,0.012-0.045,0.021-0.068,0.034c-0.023,0.012-0.046,0.022-0.069,0.035
				c-0.023,0.012-0.045,0.021-0.068,0.034c-0.023,0.012-0.046,0.022-0.07,0.035c-0.023,0.012-0.045,0.021-0.068,0.034
				c-0.023,0.012-0.046,0.022-0.069,0.035c-0.023,0.012-0.045,0.021-0.068,0.034c-0.651,0.344-1.337,0.796-2.048,1.331
				c1.032-0.355,2.052-0.734,3.092-1.074C6604.57-2122.085,6605.15-2122.625,6605.722-2123.131z M6656.26-2022.876
				c0,0,0.075,1.503,0.166,3.059c-4.178,6.383-6.908,10.623-9.336,13.374c0.303,0.01,0.515-0.019,0.539-0.024
				c4.581-1.132,7.182-5.11,14.133-15.742l0.844-1.291c-0.085-1.466-0.152-2.816-0.152-2.816
				c-0.318-12.494,2.003-27.242,6.535-41.543c7.47-23.564,21.946-51.081,36.365-62.596c-0.007,0.003-0.013,0.007-0.02,0.01
				c-0.023,0.011-0.046,0.023-0.07,0.035c-0.022,0.011-0.045,0.022-0.068,0.034s-0.046,0.023-0.07,0.035
				c-0.022,0.011-0.045,0.022-0.068,0.034s-0.046,0.023-0.07,0.035c-0.022,0.011-0.045,0.022-0.067,0.034
				c-0.023,0.012-0.047,0.023-0.07,0.035c-0.022,0.011-0.045,0.022-0.067,0.034c-0.023,0.012-0.047,0.023-0.07,0.035
				s-0.045,0.023-0.068,0.034c-0.023,0.012-0.047,0.023-0.07,0.035s-0.045,0.023-0.068,0.034c-0.023,0.012-0.047,0.023-0.07,0.035
				s-0.045,0.023-0.068,0.034c-0.023,0.012-0.046,0.023-0.07,0.035c-0.023,0.011-0.045,0.023-0.068,0.034
				c-0.023,0.011-0.046,0.023-0.069,0.035c-15.9,7.956-33.039,39.324-41.403,65.706
				C6658.117-2049.501,6655.953-2034.969,6656.26-2022.876z M6801.614-2051.424l-0.03-0.005l-0.026,0.041l-0.042-0.007l-0.026,0.041
				l-0.042-0.007l-0.026,0.041l-0.042-0.007l-0.026,0.041l-0.042-0.007l-0.026,0.041l-0.042-0.007l-0.026,0.041l-0.042-0.007
				l-0.026,0.041l-0.042-0.007l-0.026,0.041l-0.042-0.007l-0.026,0.041l-0.033-0.005c0.07,0.12,0.152,0.228,0.219,0.35
				L6801.614-2051.424z M6555.225-2000.201c1.138-10.051,3.064-20.412,5.732-30.823c-0.623,0.354-1.164,0.667-1.624,0.938
				c-0.885,0.522-1.734,0.859-2.524,0.998c-0.072,0.022-0.73,0.23-1.461,0.461c-0.111,0.035-0.193,0.061-0.293,0.093
				c-2.868,10.965-4.862,21.605-6.026,31.894c-1.184,10.468-1.008,19.549,0.416,27.254c0.61,3.291,1.46,5.515,2.546,6.697
				c0.019-0.016,0.039-0.033,0.057-0.049c0.004,0.004,0.008,0.01,0.012,0.015c0.019-0.016,0.039-0.033,0.057-0.049
				c0.004,0.005,0.008,0.01,0.012,0.015c0.018-0.016,0.039-0.033,0.057-0.049c0.004,0.004,0.008,0.01,0.012,0.015
				c0.018-0.016,0.039-0.033,0.057-0.049c0.004,0.005,0.008,0.01,0.012,0.015c0.018-0.016,0.039-0.033,0.057-0.049
				c0.004,0.004,0.008,0.01,0.012,0.015c0.018-0.016,0.039-0.033,0.057-0.049c0.004,0.005,0.008,0.01,0.012,0.015
				c0.018-0.016,0.039-0.033,0.057-0.049c0.004,0.004,0.008,0.01,0.012,0.015c0.018-0.016,0.039-0.033,0.057-0.049
				c0.004,0.005,0.008,0.01,0.012,0.015c0.018-0.016,0.039-0.033,0.057-0.049c0.004,0.004,0.007,0.01,0.012,0.015
				c0.018-0.016,0.039-0.033,0.057-0.049c0.004,0.004,0.008,0.01,0.012,0.015c0.018-0.016,0.039-0.033,0.057-0.049
				c0.004,0.005,0.007,0.01,0.012,0.015c0.018-0.016,0.039-0.033,0.057-0.049c0.004,0.004,0.008,0.01,0.012,0.015
				c0.018-0.016,0.039-0.033,0.057-0.049c0.004,0.005,0.008,0.01,0.012,0.015c0.018-0.016,0.039-0.033,0.057-0.049
				c0.004,0.004,0.008,0.01,0.012,0.015c0.018-0.016,0.039-0.033,0.057-0.049c0.004,0.005,0.008,0.01,0.012,0.015
				c0.018-0.016,0.039-0.033,0.057-0.049c0.004,0.004,0.008,0.01,0.012,0.015c0.018-0.016,0.039-0.033,0.057-0.049
				c0.004,0.005,0.008,0.01,0.012,0.015c0.018-0.016,0.039-0.033,0.057-0.049c0.004,0.004,0.008,0.01,0.012,0.015
				c0.019-0.016,0.039-0.033,0.057-0.049c0.004,0.004,0.008,0.01,0.012,0.015c0.019-0.016,0.039-0.033,0.057-0.049
				c0.004,0.004,0.008,0.01,0.012,0.015c0.019-0.016,0.039-0.033,0.057-0.049c0.004,0.004,0.008,0.01,0.012,0.015
				c0.019-0.016,0.039-0.033,0.057-0.049c0.004,0.005,0.008,0.01,0.012,0.015c0.019-0.016,0.039-0.033,0.057-0.049
				c0.004,0.004,0.008,0.01,0.012,0.015c0.019-0.016,0.039-0.033,0.057-0.049c0.004,0.005,0.008,0.01,0.012,0.015
				c0.019-0.016,0.039-0.033,0.057-0.049c0.004,0.004,0.008,0.01,0.012,0.015c0.019-0.016,0.039-0.033,0.057-0.049
				c0.004,0.005,0.008,0.01,0.012,0.015c0.019-0.016,0.039-0.033,0.057-0.049c0.004,0.004,0.008,0.01,0.012,0.015
				c0.019-0.016,0.039-0.033,0.057-0.049c0.004,0.005,0.008,0.01,0.012,0.015c0.019-0.016,0.039-0.033,0.057-0.049
				c0.004,0.005,0.008,0.01,0.012,0.015c0.019-0.016,0.039-0.033,0.057-0.049c0.004,0.004,0.008,0.01,0.012,0.015
				c0.019-0.016,0.039-0.033,0.057-0.049c0.004,0.005,0.008,0.01,0.012,0.015c0.018-0.016,0.039-0.033,0.057-0.049
				c0.004,0.004,0.008,0.01,0.012,0.015c0.018-0.016,0.039-0.033,0.057-0.049c0.004,0.005,0.008,0.01,0.012,0.015
				c0.018-0.016,0.039-0.033,0.057-0.049c0.004,0.004,0.007,0.01,0.012,0.015c0.018-0.016,0.039-0.033,0.057-0.049
				c0.004,0.005,0.007,0.01,0.012,0.015c0.018-0.016,0.039-0.033,0.057-0.049c0.004,0.004,0.008,0.01,0.012,0.015
				c0.018-0.016,0.039-0.033,0.057-0.049c0.004,0.005,0.007,0.01,0.012,0.015c0.018-0.016,0.039-0.033,0.057-0.049
				c0.004,0.004,0.008,0.01,0.012,0.015c0.018-0.016,0.039-0.033,0.057-0.049c0.004,0.005,0.008,0.01,0.012,0.015
				c0.018-0.016,0.039-0.033,0.057-0.049c0.004,0.005,0.008,0.01,0.012,0.015c0.018-0.016,0.039-0.033,0.057-0.049
				c0.004,0.004,0.008,0.01,0.012,0.015c0.018-0.016,0.039-0.033,0.057-0.049c0.004,0.005,0.008,0.01,0.012,0.015
				c0.018-0.016,0.039-0.033,0.057-0.049c0.004,0.004,0.008,0.01,0.012,0.015c0.018-0.016,0.039-0.033,0.057-0.049
				c0.004,0.005,0.008,0.01,0.012,0.015c0.018-0.016,0.039-0.033,0.057-0.049c0.004,0.004,0.008,0.01,0.012,0.015
				c0.018-0.016,0.039-0.033,0.057-0.049c0.004,0.005,0.008,0.01,0.012,0.015c0.019-0.016,0.039-0.033,0.057-0.049
				c0.004,0.004,0.008,0.01,0.012,0.015c0.019-0.016,0.039-0.033,0.057-0.049c0.004,0.004,0.008,0.01,0.012,0.015
				c0.019-0.016,0.039-0.033,0.057-0.049c0.004,0.004,0.008,0.01,0.012,0.015c0.019-0.016,0.039-0.033,0.057-0.049
				c0.004,0.004,0.008,0.01,0.012,0.015c0.019-0.016,0.039-0.033,0.057-0.049c0.004,0.005,0.008,0.01,0.012,0.015
				c0.019-0.016,0.039-0.033,0.057-0.049c0.004,0.004,0.008,0.01,0.012,0.015c0.019-0.016,0.039-0.033,0.057-0.049
				c0.004,0.005,0.008,0.01,0.012,0.015c0.019-0.016,0.039-0.033,0.057-0.049c0.004,0.004,0.008,0.01,0.012,0.015
				c0.019-0.016,0.039-0.033,0.057-0.049c0.004,0.005,0.008,0.01,0.012,0.015c0.018-0.016,0.039-0.033,0.057-0.049
				c0.004,0.004,0.008,0.01,0.012,0.015c0.018-0.016,0.039-0.033,0.057-0.049c0.004,0.005,0.008,0.01,0.012,0.015
				c0.018-0.016,0.039-0.033,0.057-0.049c0.004,0.005,0.008,0.01,0.012,0.015c0.018-0.016,0.039-0.033,0.057-0.049
				c0.004,0.004,0.008,0.01,0.012,0.015c0.018-0.016,0.039-0.033,0.057-0.049c0.004,0.004,0.008,0.01,0.012,0.015
				c0.018-0.016,0.039-0.033,0.057-0.049c0.004,0.004,0.008,0.01,0.012,0.015c0.018-0.016,0.039-0.033,0.057-0.049
				c0.004,0.005,0.008,0.01,0.012,0.015c0.018-0.016,0.039-0.033,0.057-0.049c0.004,0.004,0.007,0.01,0.012,0.015
				c0.018-0.016,0.039-0.033,0.057-0.049c0.004,0.005,0.007,0.01,0.012,0.015c0.018-0.016,0.039-0.033,0.057-0.049
				c0.004,0.004,0.008,0.01,0.012,0.015c0.018-0.016,0.039-0.033,0.057-0.049c0.004,0.005,0.008,0.01,0.012,0.015
				c0.018-0.016,0.039-0.033,0.057-0.049c0.004,0.004,0.008,0.01,0.012,0.015c0.018-0.016,0.039-0.033,0.057-0.049
				c0.004,0.005,0.008,0.01,0.012,0.015c0.018-0.016,0.039-0.033,0.057-0.049c0.004,0.005,0.008,0.01,0.012,0.015
				c0.018-0.016,0.039-0.033,0.057-0.049c0.004,0.004,0.008,0.01,0.012,0.015c0.018-0.016,0.039-0.033,0.057-0.049
				c0.004,0.005,0.008,0.01,0.012,0.015c0.018-0.016,0.039-0.033,0.057-0.049c0.004,0.004,0.008,0.01,0.012,0.015
				c0.018-0.016,0.039-0.033,0.057-0.049c0.004,0.005,0.008,0.01,0.012,0.015c0.018-0.016,0.039-0.033,0.057-0.049
				c0.004,0.004,0.008,0.01,0.012,0.015c0.018-0.016,0.039-0.033,0.057-0.049c0.004,0.005,0.008,0.01,0.012,0.015
				c0.019-0.016,0.039-0.033,0.057-0.049c0.004,0.004,0.008,0.01,0.012,0.015c0.019-0.016,0.039-0.033,0.057-0.049
				c0.004,0.004,0.008,0.01,0.012,0.015c0.019-0.016,0.039-0.033,0.057-0.049c0.004,0.004,0.008,0.01,0.012,0.015
				c0.019-0.016,0.039-0.033,0.057-0.049c0.004,0.005,0.008,0.01,0.012,0.015c0.019-0.016,0.039-0.033,0.057-0.049
				c0.004,0.005,0.008,0.01,0.012,0.015c0.019-0.016,0.039-0.033,0.057-0.049c0.004,0.004,0.008,0.01,0.012,0.015
				c0.019-0.016,0.039-0.033,0.057-0.049c0.004,0.005,0.008,0.01,0.012,0.015c0.018-0.016,0.039-0.033,0.057-0.049
				c0.004,0.004,0.008,0.01,0.012,0.015c0.018-0.016,0.039-0.033,0.057-0.049c0.004,0.005,0.008,0.01,0.012,0.015
				c0.018-0.016,0.039-0.033,0.057-0.049c0.004,0.004,0.008,0.01,0.012,0.015c0.018-0.016,0.039-0.033,0.057-0.049
				c0.004,0.005,0.008,0.01,0.012,0.015c0.018-0.016,0.039-0.033,0.057-0.049c0.004,0.004,0.008,0.01,0.012,0.015
				c0.018-0.016,0.039-0.033,0.057-0.049c0.004,0.004,0.008,0.01,0.012,0.015c0.018-0.016,0.039-0.033,0.057-0.049
				c0.004,0.004,0.008,0.01,0.012,0.015c0.018-0.016,0.039-0.033,0.057-0.049c0.004,0.004,0.008,0.01,0.012,0.015
				c0.017-0.015,0.035-0.03,0.052-0.045c-1.126-1.333-1.976-3.584-2.588-6.892
				C6554.195-1980.588,6554.053-1989.833,6555.225-2000.201z M6549.725-2026.359c0.695-0.123,1.453-0.422,2.271-0.905l0.003-0.001
				c0.022-0.013,0.043-0.019,0.066-0.033l0.002-0.001c0.023-0.014,0.044-0.02,0.067-0.033c0.001,0,0.002-0.001,0.003-0.002
				c0.022-0.013,0.043-0.019,0.066-0.033c0,0,0.001-0.001,0.002-0.001c0.023-0.013,0.044-0.02,0.067-0.033
				c0,0,0.002-0.001,0.003-0.002c0.023-0.013,0.043-0.019,0.066-0.033l0.001-0.001c0.024-0.014,0.045-0.02,0.068-0.034l0.002-0.001
				c0.024-0.014,0.044-0.02,0.067-0.033l0.002-0.001c0.023-0.013,0.043-0.02,0.067-0.033l0.003-0.002
				c0.022-0.013,0.043-0.019,0.066-0.033l0.001-0.001c0.023-0.013,0.044-0.02,0.067-0.033c0.001-0.001,0.002-0.001,0.002-0.001
				c0.023-0.014,0.043-0.02,0.066-0.033l0.001-0.001c0.024-0.014,0.044-0.02,0.068-0.034c0,0,0.002-0.001,0.002-0.001
				c0.023-0.014,0.044-0.02,0.067-0.033c0,0,0.001-0.001,0.001-0.001c0.023-0.013,0.044-0.02,0.067-0.033
				c0,0,0.002-0.001,0.002-0.002c0.023-0.013,0.043-0.019,0.066-0.033l0.001-0.001c0.023-0.013,0.044-0.02,0.067-0.033
				c0,0,0.001-0.001,0.002-0.002c0.023-0.013,0.043-0.019,0.066-0.033l0.001-0.001c0.023-0.014,0.044-0.02,0.068-0.034
				c0,0,0.001-0.001,0.001-0.001c0.024-0.014,0.044-0.02,0.067-0.033c0,0,0.001-0.001,0.001-0.001
				c0.023-0.014,0.044-0.02,0.067-0.033c0,0,0.001-0.001,0.001-0.001c0.023-0.013,0.044-0.02,0.067-0.033
				c0,0,0.001-0.001,0.002-0.002c0.023-0.013,0.043-0.019,0.066-0.033l0.001-0.001c0.023-0.013,0.044-0.02,0.067-0.033l0.003-0.002
				c0.023-0.013,0.043-0.019,0.066-0.033c0,0,0.001-0.001,0.001-0.001c0.008-0.005,0.015-0.008,0.021-0.011
				c-0.631,0.195-0.679,0.201-0.762,0.208l-0.827,0.067l0.006-0.83c0.022-2.946,0.043-6.596,0.04-9.458
				c-0.019,0.008-0.059,0.024-0.067,0.029c0,0.002,0,0.004,0,0.005c-0.018,0.008-0.061,0.024-0.069,0.029c0,0.002,0,0.004,0,0.005
				c-0.018,0.008-0.061,0.024-0.069,0.029c0,0.002,0,0.003,0,0.005c-0.018,0.008-0.061,0.024-0.069,0.029c0,0.002,0,0.004,0,0.005
				c-0.018,0.008-0.061,0.024-0.069,0.029c0,0.002,0,0.003,0,0.005c-0.018,0.008-0.061,0.024-0.069,0.029c0,0.002,0,0.004,0,0.005
				c-0.018,0.008-0.061,0.024-0.069,0.029c0,0.002,0,0.004,0,0.005c-0.018,0.008-0.061,0.024-0.069,0.029c0,0.002,0,0.004,0,0.005
				c-0.017,0.008-0.061,0.024-0.069,0.029c0,0.002,0,0.004,0,0.005c-0.017,0.008-0.06,0.024-0.069,0.029c0,0.002,0,0.004,0,0.005
				c-0.017,0.008-0.06,0.024-0.069,0.029c0,0.002,0,0.004,0,0.005c-0.017,0.008-0.06,0.024-0.069,0.029c0,0.002,0,0.004,0,0.005
				c-0.017,0.008-0.06,0.024-0.069,0.029c0,0.002,0,0.004,0,0.005c-0.017,0.008-0.06,0.024-0.068,0.029c0,0.002,0,0.004,0,0.005
				c-0.018,0.008-0.061,0.024-0.069,0.029c0,0.002,0,0.004,0,0.005c-0.018,0.008-0.061,0.024-0.069,0.029c0,0.002,0,0.004,0,0.005
				c-0.018,0.008-0.061,0.024-0.069,0.029c0,0.002,0,0.004,0,0.005c-0.018,0.008-0.061,0.024-0.069,0.029c0,0.002,0,0.004,0,0.005
				c-0.018,0.008-0.061,0.024-0.069,0.029c0,0.002,0,0.004,0,0.005c-0.018,0.008-0.061,0.024-0.069,0.029c0,0.002,0,0.004,0,0.005
				c-0.018,0.008-0.061,0.024-0.069,0.029c0,0.002,0,0.004,0,0.005c-0.018,0.008-0.061,0.024-0.069,0.029c0,0.002,0,0.004,0,0.005
				c-0.018,0.008-0.061,0.024-0.069,0.029c0,0.002,0,0.004,0,0.005c-0.018,0.008-0.061,0.024-0.069,0.029c0,0.002,0,0.004,0,0.005
				c-0.018,0.008-0.061,0.024-0.069,0.029c0,0.002,0,0.004,0,0.005c-0.018,0.008-0.061,0.024-0.069,0.029c0,0.002,0,0.004,0,0.005
				c-0.018,0.008-0.061,0.024-0.069,0.029c0,0.002,0,0.004,0,0.005c-0.018,0.008-0.061,0.024-0.069,0.029c0,0.002,0,0.004,0,0.005
				c-0.018,0.008-0.061,0.024-0.069,0.029c0,0.002,0,0.004,0,0.005c-0.018,0.008-0.061,0.024-0.069,0.029c0,0.002,0,0.004,0,0.005
				c-0.018,0.008-0.061,0.024-0.069,0.029c0,0.002,0,0.004,0,0.005c-0.018,0.008-0.061,0.024-0.069,0.029c0,0.002,0,0.003,0,0.005
				c-0.017,0.008-0.061,0.024-0.069,0.029c0,0.002,0,0.004,0,0.005c-0.017,0.008-0.061,0.024-0.069,0.029c0,0.002,0,0.003,0,0.005
				c-0.017,0.008-0.061,0.024-0.069,0.029c0,0.002,0,0.004,0,0.005c-0.017,0.008-0.061,0.024-0.069,0.029c0,0.002,0,0.004,0,0.005
				c-0.017,0.008-0.06,0.024-0.069,0.029c0,0.002,0,0.004,0,0.005c-0.017,0.008-0.06,0.024-0.069,0.029c0,0.002,0,0.004,0,0.005
				c-0.017,0.008-0.06,0.024-0.069,0.029c0,0.002,0,0.004,0,0.005c-0.017,0.008-0.06,0.024-0.069,0.029c0,0.002,0,0.004,0,0.005
				c-0.017,0.008-0.06,0.024-0.068,0.029c0,0.002,0,0.004,0,0.005c-0.018,0.008-0.061,0.024-0.069,0.029c0,0.002,0,0.004,0,0.005
				c-0.018,0.008-0.061,0.024-0.069,0.029c0,0.002,0,0.003,0,0.005c-0.018,0.008-0.061,0.024-0.069,0.029c0,0.002,0,0.004,0,0.005
				c-0.018,0.008-0.061,0.024-0.069,0.029c0,0.002,0,0.003,0,0.005c-0.018,0.008-0.061,0.024-0.069,0.029c0,0.002,0,0.004,0,0.005
				c-0.018,0.008-0.061,0.024-0.069,0.029c0,0.002,0,0.004,0,0.005c-0.018,0.008-0.061,0.024-0.069,0.029c0,0.002,0,0.004,0,0.005
				c-0.018,0.008-0.061,0.024-0.069,0.029c0,0.002,0,0.004,0,0.005c-0.018,0.008-0.061,0.024-0.069,0.029c0,0.002,0,0.004,0,0.005
				c-0.018,0.008-0.061,0.024-0.069,0.029c0,0.002,0,0.004,0,0.005c-0.018,0.008-0.061,0.024-0.069,0.029c0,0.002,0,0.004,0,0.005
				c-0.018,0.008-0.061,0.024-0.069,0.029c0,0.002,0,0.004,0,0.005c-0.018,0.008-0.061,0.024-0.069,0.029c0,0.002,0,0.004,0,0.005
				c-0.018,0.008-0.061,0.024-0.069,0.029c0,0.002,0,0.004,0,0.005c-0.018,0.008-0.061,0.024-0.069,0.029c0,0.002,0,0.004,0,0.005
				c-0.018,0.008-0.061,0.024-0.069,0.029c0,0.002,0,0.004,0,0.005c-0.018,0.008-0.061,0.024-0.069,0.029c0,0.002,0,0.004,0,0.005
				c-0.017,0.008-0.061,0.024-0.069,0.029c0,0.002,0,0.004,0,0.005c-0.017,0.008-0.061,0.024-0.069,0.029c0,0.002,0,0.004,0,0.005
				c-0.017,0.008-0.06,0.024-0.069,0.029c0,0.002,0,0.003,0,0.005c-0.017,0.008-0.06,0.024-0.069,0.029c0,0.002,0,0.004,0,0.005
				c-0.017,0.008-0.06,0.024-0.069,0.029c0,0.002,0,0.004,0,0.005c-0.017,0.008-0.06,0.024-0.069,0.029c0,0.002,0,0.004,0,0.005
				c-0.017,0.008-0.06,0.024-0.069,0.029c0,0.002,0,0.004,0,0.005c-0.017,0.008-0.06,0.024-0.069,0.029c0,0.002,0,0.004,0,0.005
				c-0.017,0.008-0.06,0.024-0.069,0.029c0,0.002,0,0.004,0,0.005c-0.017,0.008-0.06,0.024-0.069,0.029c0,0.002,0,0.004,0,0.005
				c-0.017,0.008-0.06,0.024-0.069,0.029c0,0.002,0,0.004,0,0.005c-0.017,0.008-0.06,0.024-0.068,0.029c0,0.002,0,0.004,0,0.005
				c-0.018,0.008-0.061,0.024-0.069,0.029c0,0.002,0,0.004,0,0.005c-0.018,0.008-0.061,0.024-0.069,0.029c0,0.002,0,0.003,0,0.005
				c-0.018,0.008-0.061,0.024-0.069,0.029c0,0.002,0,0.004,0,0.005c-0.018,0.008-0.061,0.024-0.069,0.029c0,0.002,0,0.004,0,0.005
				c-0.018,0.008-0.061,0.024-0.069,0.029c0,0.002,0,0.004,0,0.005c-0.018,0.008-0.061,0.024-0.069,0.029c0,0.002,0,0.004,0,0.005
				c-0.018,0.008-0.061,0.024-0.069,0.029c0,0.002,0,0.004,0,0.005c-0.018,0.008-0.061,0.024-0.069,0.029c0,0.002,0,0.004,0,0.005
				c-0.018,0.008-0.061,0.024-0.069,0.029c0,0.002,0,0.004,0,0.005c-0.018,0.008-0.061,0.024-0.069,0.029c0,0.002,0,0.004,0,0.005
				c-0.018,0.008-0.061,0.024-0.069,0.029c0,0.002,0,0.004,0,0.005c-0.018,0.008-0.061,0.024-0.069,0.029c0,0.002,0,0.004,0,0.005
				c-0.018,0.008-0.061,0.024-0.069,0.029c0,0.002,0,0.004,0,0.005c-0.018,0.008-0.061,0.024-0.069,0.029c0,0.002,0,0.004,0,0.005
				c-0.018,0.008-0.061,0.024-0.069,0.029c0,0.002,0,0.004,0,0.005c-0.018,0.008-0.061,0.024-0.069,0.029c0,0.002,0,0.004,0,0.005
				c-0.018,0.008-0.061,0.024-0.069,0.029c0,0.002,0,0.004,0,0.005c-0.017,0.008-0.061,0.024-0.069,0.029c0,0.002,0,0.004,0,0.005
				c-0.017,0.008-0.06,0.024-0.069,0.029c0,0.002,0,0.004,0,0.005c-0.017,0.008-0.06,0.024-0.069,0.029
				c0.006,2.914-0.016,6.771-0.04,9.849C6546.013-2025.183,6549.605-2026.338,6549.725-2026.359z M6542.963-2063.203l-11.119,2.321
				l-0.143-0.76c-0.996-5.279,0.345-10.792,3.986-16.384c3.631-5.587,8.829-11.137,15.449-16.496
				c2.496-2.019,5.173-3.987,8.016-5.897c-5.359,3.164-10.195,6.49-14.491,9.964c-6.633,5.369-11.719,10.824-15.29,16.319
				c-3.569,5.482-4.831,10.769-3.876,15.83l13.202-2.755c0-0.007,0-0.013-0.001-0.02l0.07-0.014c0-0.007,0-0.013-0.001-0.02
				l0.07-0.014c0-0.007,0-0.013-0.001-0.02l0.07-0.015c0-0.007,0-0.013-0.001-0.02l0.07-0.014c0-0.007,0-0.013-0.001-0.02
				l0.07-0.015c0-0.007,0-0.013-0.001-0.02l0.07-0.014c0-0.007,0-0.013-0.001-0.02l0.07-0.015c0-0.007,0-0.013-0.001-0.02
				l0.07-0.014c0-0.007,0-0.013-0.001-0.02l0.07-0.015c0-0.006,0-0.013-0.001-0.02l0.07-0.015c0-0.007,0-0.013-0.001-0.02
				l0.07-0.015c0-0.006,0-0.013-0.001-0.02l0.07-0.015c0-0.007,0-0.013-0.001-0.02l0.07-0.015c-0.001-0.006,0-0.013-0.001-0.02
				l0.07-0.015c-0.001-0.007,0-0.013-0.001-0.02l0.07-0.015c-0.001-0.006,0-0.013-0.001-0.02l0.07-0.015
				c-0.001-0.006,0-0.013-0.001-0.02l0.07-0.015c-0.001-0.006,0-0.013-0.001-0.02l0.069-0.014c0-0.007,0-0.013,0-0.02l0.069-0.015
				c0-0.006,0-0.013,0-0.02l0.069-0.014c0-0.007,0-0.013,0-0.02l0.069-0.015c0-0.006,0-0.013,0-0.02l0.069-0.014
				c0-0.007,0-0.013-0.001-0.02l0.07-0.014c0-0.007,0-0.013-0.001-0.02l0.07-0.014c0-0.007,0-0.013-0.001-0.02l0.07-0.014
				c0-0.007,0-0.013-0.001-0.02l0.07-0.014c0-0.007,0-0.013-0.001-0.02l0.07-0.014c0-0.007,0-0.013-0.001-0.02l0.07-0.014
				c0-0.007,0-0.013-0.001-0.02l0.07-0.014c0-0.007,0-0.013-0.001-0.02l0.07-0.014c0-0.007,0-0.013-0.001-0.02l0.07-0.014
				c0-0.007,0-0.013-0.001-0.02l0.07-0.015c0-0.007,0-0.013-0.001-0.02l0.07-0.014c0-0.007,0-0.013-0.001-0.02l0.07-0.015
				c0-0.007,0-0.013-0.001-0.02l0.07-0.014c0-0.007,0-0.013-0.001-0.02l0.07-0.015c0-0.007,0-0.013-0.001-0.02l0.07-0.014
				c0-0.007,0-0.013-0.001-0.02l0.07-0.015c0-0.006,0-0.013-0.001-0.02l0.07-0.015c0-0.007,0-0.013-0.001-0.02l0.07-0.015
				c0-0.006,0-0.013-0.001-0.02l0.07-0.015c-0.001-0.006,0-0.013-0.001-0.02l0.07-0.015c-0.001-0.006,0-0.013-0.001-0.02l0.07-0.015
				c-0.001-0.006,0-0.013-0.001-0.02l0.07-0.015c-0.001-0.006,0-0.013-0.001-0.02l0.07-0.014c-0.001-0.007,0-0.014-0.001-0.02
				l0.069-0.015c0-0.006,0-0.013,0-0.02l0.069-0.014c0-0.007,0-0.013,0-0.02l0.069-0.015c0-0.006,0-0.013,0-0.02l0.069-0.014
				c0-0.007,0-0.013,0-0.02l0.069-0.015c0-0.006,0-0.013-0.001-0.02l0.07-0.014c0-0.007,0-0.013-0.001-0.02l0.07-0.014
				c0-0.007,0-0.013-0.001-0.02l0.07-0.014c0-0.007,0-0.013-0.001-0.02l0.07-0.014c0-0.007,0-0.013-0.001-0.02l0.07-0.014
				c0-0.007,0-0.013-0.001-0.02l0.07-0.014c0-0.007,0-0.013-0.001-0.02l0.07-0.014c0-0.007,0-0.013-0.001-0.02l0.07-0.014
				c0-0.007,0-0.013-0.001-0.02l0.07-0.014c0-0.007,0-0.013-0.001-0.02l0.07-0.014c0-0.007,0-0.013-0.001-0.02l0.07-0.015
				c0-0.007,0-0.013-0.001-0.02l0.07-0.014C6542.963-2063.199,6542.963-2063.201,6542.963-2063.203z"/>
		</g>
		<g>
			<path style="fill:#DF352A;" d="M6927.395-2020.046c0.94,0,1.857,0.241,2.753,0.724s1.593,1.172,2.093,2.07
				c0.5,0.898,0.75,1.834,0.75,2.809c0,0.965-0.246,1.892-0.739,2.783c-0.492,0.89-1.182,1.582-2.07,2.074
				c-0.888,0.492-1.817,0.738-2.787,0.738s-1.898-0.246-2.786-0.738c-0.888-0.492-1.58-1.184-2.074-2.074
				c-0.495-0.891-0.742-1.818-0.742-2.783c0-0.975,0.251-1.911,0.753-2.809c0.502-0.898,1.201-1.588,2.096-2.07
				S6926.455-2020.046,6927.395-2020.046z M6927.395-2019.118c-0.787,0-1.552,0.202-2.296,0.605s-1.327,0.979-1.748,1.729
				c-0.42,0.75-0.631,1.53-0.631,2.341c0,0.806,0.207,1.579,0.62,2.319c0.413,0.74,0.991,1.316,1.733,1.729
				c0.742,0.413,1.516,0.62,2.322,0.62c0.807,0,1.581-0.207,2.323-0.62c0.742-0.413,1.318-0.989,1.729-1.729
				c0.41-0.74,0.616-1.513,0.616-2.319c0-0.811-0.209-1.592-0.627-2.341c-0.418-0.749-1-1.326-1.748-1.729
				S6928.177-2019.118,6927.395-2019.118z M6924.939-2011.349v-6.025h2.07c0.708,0,1.219,0.056,1.536,0.167
				c0.316,0.111,0.569,0.306,0.757,0.583c0.188,0.277,0.282,0.571,0.282,0.883c0,0.44-0.157,0.824-0.471,1.15
				c-0.314,0.326-0.731,0.51-1.25,0.549c0.212,0.089,0.383,0.195,0.512,0.319c0.243,0.237,0.539,0.636,0.891,1.195l0.734,1.18
				h-1.187l-0.534-0.95c-0.421-0.747-0.76-1.214-1.017-1.402c-0.178-0.138-0.438-0.208-0.779-0.208h-0.571v2.56H6924.939z
				 M6925.911-2014.74h1.18c0.564,0,0.949-0.084,1.154-0.252c0.206-0.168,0.308-0.391,0.308-0.668c0-0.178-0.049-0.338-0.148-0.479
				s-0.236-0.246-0.412-0.315c-0.176-0.069-0.501-0.104-0.976-0.104h-1.105V-2014.74z"/>
		</g>
	</g>
</g>
<g id="Layer_1">
</g>
</svg>
