<?xml version="1.0" encoding="UTF-8"?>
<svg width="180px" height="116px" viewBox="0 0 180 116" version="1.1" xmlns="http://www.w3.org/2000/svg" xmlns:xlink="http://www.w3.org/1999/xlink">
    <!-- Generator: Sketch 40.1 (33804) - http://www.bohemiancoding.com/sketch -->
    <title>Clipboard</title>
    <desc>Created with Sketch.</desc>
    <defs>
        <polygon id="path-1" points="151.400623 194.807705 103.644039 128.627644 61 62.0051368 238.719365 23 337.555831 154.471228"></polygon>
    </defs>
    <g id="Page-4---UX--process" stroke="none" stroke-width="1" fill="none" fill-rule="evenodd">
        <g id="Desktop-HD" transform="translate(-1003.000000, -549.000000)">
            <g id="UX" transform="translate(0.000000, -49.000000)">
                <g id="ux" transform="translate(185.000000, 344.000000)">
                    <g id="Clipboard" transform="translate(920.557511, 318.000734) rotate(1.000000) translate(-920.557511, -318.000734) translate(715.557511, 213.500734)">
                        <mask id="mask-2" fill="white">
                            <use xlink:href="#path-1"></use>
                        </mask>
                        <g id="Clip-2"></g>
                        <path d="M182.997296,47.9108386 C182.223886,47.9461389 181.46798,48.0544246 180.745952,48.2128887 L175.938846,49.267656 L175.656835,48.8494641 C171.790122,43.2852239 161.143111,40.4219555 151.876261,42.4565045 L151.626301,42.511361 C146.902323,43.5478679 143.392678,45.6214967 141.468625,48.1331027 C139.578732,50.6559816 139.281012,53.615976 141.063175,56.4277267 L141.338814,56.8467528 L136.491395,57.906798 C135.762455,58.066167 135.066349,58.2758508 134.442063,58.546491 C132.759823,59.2591694 131.553162,60.3086163 131.082686,61.5037724 C130.861992,62.0502464 130.786565,62.6224792 130.862703,63.1807783 C130.908685,63.4965305 131.004779,63.8396718 131.185323,64.1643798 L134.931617,69.8634487 C135.180911,70.1924423 135.492813,70.4694529 135.821959,70.7235425 C138.172825,72.568854 142.223645,73.3154051 145.864025,72.6175257 L190.965428,62.763565 C194.512092,61.8909917 196.602908,59.7993798 196.162142,57.5318623 C196.105833,57.2174622 196.010187,56.8924667 195.831026,56.5857822 L191.887079,50.8397724 C191.665006,50.5618285 191.348259,50.2854522 191.003834,50.0151586 C190.411497,49.5687037 189.692037,49.1693917 188.896027,48.8445516 C187.164691,48.1294652 185.061302,47.8035417 182.997296,47.9108386 Z M149.193214,54.6295448 C147.418449,51.7002212 149.887478,48.4742368 154.705353,47.4180595 L155.095023,47.3326168 C159.907563,46.2771381 165.47325,47.7430021 167.550037,50.6081942 L167.841771,51.0433177 L149.481431,55.0651287 L149.193214,54.6295448 Z" id="Fill-1" stroke="#000000" fill="#8D8FA2" mask="url(#mask-2)"></path>
                        <path d="M265.872154,100.150672 C261.967634,94.8889568 258.076143,89.6242068 254.20579,84.3585097 L252.225489,81.6504358 C246.276022,73.4711473 240.172365,65.0082757 234.261341,56.6924888 C229.878757,50.4820246 222.362,46.8666715 211.906845,45.9485713 C208.316051,45.6377943 204.714499,45.9332473 200.225327,46.9099951 L197.896323,47.4196507 L202.406468,53.9653504 L202.930235,53.8523685 C204.414581,53.5363171 205.694975,53.282286 206.847298,53.0794087 C212.750525,52.0394026 219.714072,53.8925846 222.388227,57.2098671 C224.996239,60.4423749 227.435983,63.901137 229.592116,66.9530854 C230.068416,67.6264363 230.549017,68.3007986 231.028755,68.9734535 C239.205697,80.3408396 247.461057,91.6991887 255.807572,103.043783 C261.686022,110.952265 261.332072,110.477955 267.255643,118.380285 C268.609521,120.178224 270.012017,122.037155 269.741728,123.962118 C269.265565,127.28701 266.592032,129.43354 261.554298,130.524403 C254.739267,131.999429 247.915001,133.475663 241.083067,134.950838 L220.525624,139.388807 L218.761026,139.769586 L216.995817,140.150445 L196.343163,144.60452 C189.444125,146.092119 182.531712,147.579895 175.610035,149.068884 C170.481446,150.171642 165.756327,149.628533 161.164136,147.406528 C158.514085,146.118657 157.200537,144.248081 155.932674,142.43888 C150.392764,134.48583 150.724042,134.963108 145.223481,127.005151 C137.41855,115.589652 129.705976,104.16206 122.097828,92.7159268 C121.650108,92.0390802 121.201604,91.3605157 120.751675,90.6842039 C118.717005,87.6165002 116.423117,84.1421841 114.548074,80.7633043 C112.634529,77.2938181 115.738449,73.24953 121.451405,71.7522603 C122.564089,71.4580885 123.835956,71.1560216 125.333797,70.8199989 L125.863837,70.7025548 L121.573759,64.1280436 L119.207994,64.6461528 C114.645485,65.65095 111.558276,66.8181723 109.186069,68.4304564 C102.276563,73.1341741 100.814747,78.692829 104.873122,84.9432782 C110.356237,93.3093328 115.968761,101.839309 121.447391,110.080732 L123.273613,112.808979 C126.838511,118.115158 130.42153,123.421032 134.034908,128.720127 C135.583152,130.980255 137.146217,133.28543 138.665374,135.516007 L139.306041,136.461423 C143.668928,142.842338 142.347938,141.003486 147.1348,147.482953 C149.70797,150.939258 154.564623,153.698849 160.815024,155.252596 C167.125007,156.817438 174.01523,156.948944 180.202485,155.620042 C193.434201,152.737617 206.232003,149.982246 219.246543,147.179418 L223.534782,146.255287 L227.822336,145.330999 C240.779295,142.535956 253.461906,139.799307 266.462348,137.027848 C272.633956,135.692879 277.346336,133.055039 279.839036,129.581582 C282.299493,126.135568 282.270036,122.31858 279.772992,118.831014 C275.100978,112.295199 276.446041,114.137785 271.644247,107.820972 L270.932891,106.886286 C269.264607,104.6772 267.54256,102.395299 265.872154,100.150672 Z" id="Fill-3" stroke="#000000" fill-opacity="0.323652627" fill="#48324F" mask="url(#mask-2)"></path>
                        <path d="M249.465173,120.158296 C248.11311,120.838682 246.567123,120.802115 244.92669,120.418158 C242.28448,119.796959 239.637854,119.180716 236.827949,118.524934 C235.71741,120.084552 234.677117,121.547941 233.629948,123.008837 C232.981043,123.913645 231.907182,124.531197 230.072478,124.576208 C226.926044,124.6531 224.752643,122.987498 225.822524,121.266283 C226.555982,120.087384 227.429346,118.937749 228.310638,117.795933 C228.569867,117.460649 229.133362,116.784142 229.039621,116.7602 C225.88704,115.973428 223.518685,115.395891 221.00412,114.742437 C218.591225,114.117102 217.538661,112.748601 218.453349,111.520889 C219.361943,110.300156 221.518469,109.82052 223.995746,110.431507 C226.611564,111.076106 229.141171,111.849264 231.898933,112.619257 C233.240196,110.753377 234.261278,109.216735 235.434671,107.723871 C236.853603,105.915623 240.493245,105.763668 242.647481,107.396433 C243.687886,108.183372 243.508027,109.015944 242.94549,109.831514 C242.016914,111.179145 241.063882,112.522327 240.124589,113.868173 C240.080492,113.929738 240.097952,114.002975 240.085641,114.080749 C242.811487,114.78709 245.426239,115.452228 248.029403,116.139301 C251.101365,116.950203 251.821993,118.972823 249.465173,120.158296 Z" id="Fill-4" stroke="#000000" fill-opacity="0.379783741" fill="#D0011B" mask="url(#mask-2)"></path>
                        <path d="M220.549847,82.6065435 C219.214771,83.2847049 217.699199,83.2441566 216.095712,82.8553625 C213.513071,82.226364 210.926062,81.6023158 208.179507,80.9382402 C207.069259,82.4978204 206.029177,83.9611814 204.982359,85.4220317 C204.333664,86.3268116 203.272135,86.942749 201.472274,86.9831988 C198.385584,87.0522503 196.277031,85.3781772 197.349787,83.6565673 C198.085188,82.4774136 198.95737,81.3279338 199.837202,80.186309 C200.09599,79.8510825 200.657807,79.174795 200.56621,79.1505723 C197.485549,78.3543845 195.171068,77.7697947 192.714283,77.1087754 C190.356836,76.4761807 189.343556,75.1025373 190.257363,73.8749405 C191.165091,72.6543386 193.286241,72.1793166 195.706952,72.7977269 C198.263056,73.4501255 200.73291,74.2311068 203.426576,75.0095096 C204.767212,73.1437117 205.789369,71.6069286 206.960246,70.1143944 C208.376136,68.3065452 211.946913,68.1636053 214.037051,69.8047631 C215.046532,70.5957319 214.858914,71.4293385 214.296277,72.244921 C213.367487,73.5925616 212.414766,74.9357035 211.47547,76.2815679 C211.431394,76.3431301 211.447521,76.4165418 211.434393,76.4944221 C214.097749,77.2089446 216.652759,77.8819042 219.196142,78.5768037 C222.197598,79.3969373 222.87701,81.424953 220.549847,82.6065435 Z" id="Fill-5" stroke="#000000" fill="#BB7688" mask="url(#mask-2)"></path>
                        <path d="M228.338595,86.6267209 L227.664968,87.0873854 C227.261082,87.3698666 226.786251,87.7082262 226.335913,88.0854956 C223.355946,90.6094994 220.731755,93.303566 218.185129,95.9108756 L218.030112,96.0696642 C217.414733,96.6980057 216.798795,97.3399011 216.203701,97.9656861 L215.844944,98.3399724 L214.507453,98.0711474 C213.015163,97.7687094 211.327498,97.4261118 209.639076,97.1183486 C208.618374,96.9326662 207.580191,96.8835268 206.696816,96.8583871 C205.760466,96.8370814 204.993976,97.1153135 204.769121,97.5564525 C204.59805,97.8839838 204.732565,98.2585042 205.146623,98.610704 C205.449336,98.8659895 205.816063,99.1650487 206.263948,99.4349369 C208.700929,100.897364 211.629237,102.268717 215.479484,103.753642 C216.79759,104.25977 218.339731,104.380628 219.709109,104.083067 C220.839057,103.837509 221.739108,103.328282 222.240183,102.649794 C222.683011,102.055174 223.127449,101.43128 223.566103,100.795187 C224.989359,98.7151815 226.630122,96.2911853 228.091106,93.8328605 C228.521746,93.1135212 228.937161,92.3916974 229.355095,91.6692979 C229.665583,91.1339009 229.973047,90.5991481 230.287245,90.0648374 L230.359621,89.94319 C231.452861,88.1571534 231.739996,87.070424 231.262162,86.520174 C231.059861,86.2890421 230.535403,85.9453391 229.267286,86.2220196 C229.18837,86.2392368 229.111844,86.2597818 229.056243,86.2776866 C228.723469,86.3772323 228.498965,86.5185969 228.338595,86.6267209 Z" id="Fill-6" stroke="#000000" fill="#417505" mask="url(#mask-2)"></path>
                        <polygon id="Fill-7" stroke="#000000" fill="#8D8FA2" mask="url(#mask-2)" points="184.938339 83.069558 138.222651 93.2307663 134.862797 88.2092853 181.477047 78.0613575"></polygon>
                        <polygon id="Fill-8" stroke="#000000" fill="#8D8FA2" mask="url(#mask-2)" points="198.845251 103.204679 151.723114 113.419101 148.292396 108.406898 195.313095 98.2057566"></polygon>
                        <polygon id="Fill-9" stroke="#000000" fill="#8D8FA2" mask="url(#mask-2)" points="212.752162 123.339801 165.223577 133.607436 161.721995 128.60451 209.149142 118.350156"></polygon>
                    </g>
                </g>
            </g>
        </g>
    </g>
</svg>