<?xml version="1.0" encoding="UTF-8" standalone="no"?>
<svg width="73px" height="62px" viewBox="0 0 73 62" version="1.1" xmlns="http://www.w3.org/2000/svg" xmlns:xlink="http://www.w3.org/1999/xlink">
    <!-- Generator: Sketch 3.8.2 (29753) - http://www.bohemiancoding.com/sketch -->
    <title>Fill 1</title>
    <desc>Created with Sketch.</desc>
    <defs></defs>
    <g id="Page-1---Intro" stroke="none" stroke-width="1" fill="none" fill-rule="evenodd">
        <g id="Desktop-HD" transform="translate(-1175.000000, -33.000000)" fill="#000000">
            <g id="Page-1" transform="translate(1154.000000, 33.000000)">
                <path d="M48.8324337,0.37710596 C43.6318554,0.37710596 39.4267711,4.47033955 39.2659518,9.58489344 L31.1128675,9.58489344 C25.8160241,9.58489344 21.5146747,13.8701216 21.5146747,19.1459964 L21.5146747,30.2101102 L21.5146747,30.3055394 L21.5146747,52.2088266 C21.5146747,57.4858261 25.8160241,61.7699296 31.1128675,61.7699296 L84.4006747,61.7699296 C89.6975181,61.7699296 93.9988675,57.4858374 93.9988675,52.2088266 L93.9988675,30.3396213 L93.9988675,30.2123823 L93.9988675,19.1482685 C93.9988675,18.8290349 93.9671566,18.5086653 93.9343133,18.1894317 C93.8380482,17.197649 93.5798313,16.3024317 93.2276145,15.4390241 C93.0996386,15.1504528 92.9705301,14.8630403 92.8425542,14.6085623 C92.1041446,13.2327905 91.0452402,12.0819591 89.7609398,11.2503612 C88.2512771,10.1949477 86.3894089,9.5871542 84.4006747,9.5871542 L76.27818,9.5871542 C76.1173607,4.47146426 71.8805655,0.379378085 66.7128306,0.379378085 L48.8324337,0.379378085 L48.8324337,0.37710596 L48.8324337,0.37710596 Z M48.8324337,2.1686767 L66.7128193,2.1686767 C70.9179036,2.1686767 74.2566024,5.4291764 74.4174217,9.5860295 L41.0961205,9.5860295 C41.2886506,5.4291764 44.6273494,2.1686767 48.8324337,2.1686767 L48.8324337,2.1686767 L48.8324337,2.1686767 Z M31.1128675,11.4082739 L40.005494,11.4082739 L84.4006747,11.4082739 C88.7337349,11.4082739 92.1675663,14.8619043 92.1675663,19.1471325 L92.1675663,29.6682083 C85.0416867,34.9440831 74.9938795,38.6215178 63.5666619,39.5814907 C62.9879277,36.9265123 60.613012,34.9122733 57.7873607,34.9122733 C54.9311198,34.9122733 52.5233607,36.9265123 51.945759,39.6133004 C40.5173976,38.6544636 30.4378908,34.9770289 23.312,29.7011541 L23.312,19.1482685 C23.312,18.8926544 23.312,18.6370403 23.3437108,18.3814262 C23.4728193,17.324888 23.7933253,16.3024317 24.2746506,15.4390241 C24.3709157,15.2152197 24.5317349,15.0232252 24.6597108,14.8312306 C26.0402651,12.752236 28.4163133,11.4082739 31.1128675,11.4082739 L31.1128675,11.4082739 L31.1128675,11.4082739 Z M23.312,31.9698712 C30.6949639,37.0548874 40.6782169,40.4437622 51.849494,41.3389795 C52.1382892,44.3450012 54.7057349,46.7114196 57.7873494,46.7114196 C60.8700964,46.7114196 63.3741205,44.3450012 63.6300723,41.3389795 C74.8330602,40.4437622 84.8163133,37.0548874 92.1664337,31.9698598 L92.1664337,52.2099627 C92.1664337,56.5270006 88.7326024,59.9806309 84.3995308,59.9806309 L31.1128675,59.9806309 C26.7798072,59.9806309 23.312,56.5270006 23.312,52.2099627 L23.312,31.9698712 L23.312,31.9698712 L23.312,31.9698712 Z M57.7873494,36.702708 C60.0671325,36.702708 61.8961687,38.5567622 61.8961687,40.8277514 C61.8961687,43.0976045 60.0671325,44.9209849 57.7873494,44.9209849 C55.5086988,44.9209849 53.6468193,43.0987405 53.6468193,40.8277514 C53.6468193,38.5567622 55.5086988,36.702708 57.7873494,36.702708 L57.7873494,36.702708 L57.7873494,36.702708 Z" id="Fill-1"></path>
            </g>
        </g>
    </g>
</svg>