<?xml version="1.0" encoding="UTF-8" standalone="no"?>
<svg width="56px" height="83px" viewBox="0 0 56 83" version="1.1" xmlns="http://www.w3.org/2000/svg" xmlns:xlink="http://www.w3.org/1999/xlink">
    <!-- Generator: Sketch 3.8.2 (29753) - http://www.bohemiancoding.com/sketch -->
    <title>fun_icon</title>
    <desc>Created with Sketch.</desc>
    <defs></defs>
    <g id="Page-1---Intro" stroke="none" stroke-width="1" fill="none" fill-rule="evenodd">
        <g id="Desktop-HD" transform="translate(-1043.000000, -16.000000)" fill="#000000">
            <g id="Page-1" transform="translate(1023.000000, 16.000000)">
                <g id="fun_icon" transform="translate(20.000000, 0.000000)">
                    <path d="M55.2303797,75.630416 L37.5291139,42.3297322 L37.5291139,28.3492702 L39.356962,28.3492702 C39.8379747,28.3492702 40.2227848,27.960924 40.2227848,27.4754913 C40.2227848,26.9900586 39.8379747,26.6017124 39.356962,26.6017124 L16.8455696,26.6017124 C16.364557,26.6017124 15.9797468,26.9900586 15.9797468,27.4754913 C15.9797468,27.960924 16.364557,28.3492702 16.8455696,28.3492702 L18.6734177,28.3492702 L18.6734177,42.4268188 L0.972151899,75.630416 C0.298734177,76.9896276 0.298734177,78.6400988 1.16455696,79.9993104 C1.93417722,81.358522 3.37721519,82.1352143 4.9164557,82.1352143 L51.2860759,82.1352143 C52.8253165,82.1352143 54.2683544,81.358522 55.0379747,79.9993104 C55.9037975,78.6400988 55.9037975,76.9896276 55.2303797,75.630416 L55.2303797,75.630416 Z M45.4177215,60.8732617 C43.9746835,61.3586944 43.0126582,62.4266464 42.3392405,63.2033387 C41.4734177,64.1742041 41.2810127,64.3683772 40.8,64.3683772 C40.3189873,64.3683772 40.0303894,64.1742041 39.2607691,63.2033387 C38.3949367,62.1353867 37.0481109,60.4849155 34.35444,60.4849155 C31.7569716,60.4849155 30.4101362,62.135377 29.4481109,63.2033387 C28.5822881,64.1742041 28.389883,64.3683772 27.9088704,64.3683772 C27.4278577,64.3683772 27.1392501,64.1742041 26.3696299,63.2033387 C25.5038071,62.1353867 24.1569716,60.4849155 21.4633008,60.4849155 C18.8658324,60.4849155 17.5190066,62.135377 16.5569813,63.2033387 C15.6911489,64.1742041 15.4987534,64.3683772 15.0177408,64.3683772 C14.5367281,64.3683772 14.2481205,64.1742041 13.4785003,63.2033387 C12.9012851,62.4266464 12.0354623,61.4557809 10.6886268,60.8732617 L13.1898927,56.213098 L13.3822977,56.213098 L15.8835635,56.213098 C16.3645762,56.213098 16.7493863,55.8247518 16.7493863,55.3393191 C16.7493863,54.8538864 16.3645762,54.4655402 15.8835635,54.4655402 L14.151918,54.4655402 L15.6911585,51.552944 L15.8835635,51.552944 L18.3848294,51.552944 C18.865842,51.552944 19.2506522,51.1645978 19.2506522,50.6791651 C19.2506522,50.1937324 18.865842,49.8053862 18.3848294,49.8053862 L16.556962,49.8053862 L18.0962025,46.89279 L18.1924051,46.89279 L20.6936709,46.89279 C21.1746835,46.89279 21.5594937,46.5044438 21.5594937,46.0190111 C21.5594937,45.5335784 21.1746835,45.1452225 20.6936709,45.1452225 L19.0582182,45.1452225 L20.3088511,42.8151455 C20.3088511,42.718059 20.3088511,42.6209724 20.4050537,42.6209724 L20.5012562,42.6209724 L23.002522,42.6209724 C23.4835347,42.6209724 23.8683448,42.2326263 23.8683448,41.7471935 C23.8683448,41.2617608 23.4835347,40.8734147 23.002522,40.8734147 L20.5012562,40.8734147 L20.4050537,40.8734147 L20.4050537,37.9608184 L20.5012562,37.9608184 L23.002522,37.9608184 C23.4835347,37.9608184 23.8683448,37.5724723 23.8683448,37.0870395 C23.8683448,36.6016068 23.4835347,36.2132607 23.002522,36.2132607 L20.5012562,36.2132607 L20.4050537,36.2132607 L20.4050537,33.3006644 L20.5012562,33.3006644 L23.002522,33.3006644 C23.4835347,33.3006644 23.8683448,32.9123085 23.8683448,32.4268758 C23.8683448,31.9414431 23.4835347,31.553097 23.002522,31.553097 L20.5012562,31.553097 L20.4050537,31.553097 L20.4050537,28.155068 L35.7974684,28.155068 L35.7974684,42.3297128 C35.7974684,42.4267896 35.7974684,42.6209627 35.8936709,42.718059 L45.4177215,60.8732617 L45.4177215,60.8732617 Z M53.5949367,79.028445 C53.1139241,79.8051373 52.2481013,80.29057 51.2860759,80.29057 L4.9164557,80.29057 C3.95443038,80.29057 3.08860759,79.8051373 2.60759494,79.028445 C2.12658228,78.2517527 2.12658228,77.1838007 2.51139241,76.4071084 L9.82278481,62.717906 C10.7848101,63.1062522 11.3620253,63.7858579 12.035443,64.5625503 C12.8050633,65.5334157 13.5746835,66.5042811 15.1139241,66.5042811 C16.6531646,66.5042811 17.4227848,65.5334157 18.1924051,64.5625503 C18.9620253,63.5916849 19.8278481,62.5237329 21.5594937,62.5237329 C23.1949367,62.5237329 24.0607595,63.4945983 24.9265823,64.5625503 C25.6962025,65.5334157 26.4658228,66.5042811 28.0050633,66.5042811 C29.5443038,66.5042811 30.3139241,65.5334157 31.0835443,64.5625503 C31.8531646,63.5916849 32.7189873,62.5237329 34.4506329,62.5237329 C36.0860759,62.5237329 36.9518987,63.4945983 37.8177215,64.5625503 C38.5873418,65.5334157 39.356962,66.5042811 40.8962025,66.5042811 C42.435443,66.5042811 43.2050633,65.5334157 43.9746835,64.5625503 C44.5518987,63.7858579 45.321519,63.0091656 46.3797468,62.717906 L46.3797468,62.717906 L53.6911392,76.5041949 C54.0759494,77.2808873 54.0759494,78.2517527 53.5949367,79.028445 L53.5949367,79.028445 Z" id="Fill-1"></path>
                    <path d="M33.7772152,7.76692334 C35.7974684,7.76692334 37.3367089,6.11645213 37.3367089,4.1747213 C37.3367089,2.13590392 35.7012658,0.582519251 33.7772152,0.582519251 C31.756962,0.582519251 30.2177215,2.23299046 30.2177215,4.1747213 C30.121519,6.11645213 31.756962,7.76692334 33.7772152,7.76692334 L33.7772152,7.76692334 Z M33.7772152,2.23299046 C34.835443,2.23299046 35.6050633,3.10676934 35.6050633,4.07763475 C35.6050633,5.14558671 34.7392405,5.92227905 33.7772152,5.92227905 C32.7189873,5.92227905 31.9493671,5.04850017 31.9493671,4.07763475 C31.8531646,3.10676934 32.7189873,2.23299046 33.7772152,2.23299046 L33.7772152,2.23299046 Z" id="Fill-3"></path>
                    <path d="M23.6759494,17.4755775 C26.3696203,17.4755775 28.5822785,15.2425871 28.5822785,12.5241639 C28.5822785,9.80574072 26.3696203,7.57275026 23.6759494,7.57275026 C20.9822785,7.57275026 18.7696203,9.80574072 18.7696203,12.5241639 C18.7696203,15.2425871 20.9822785,17.4755775 23.6759494,17.4755775 L23.6759494,17.4755775 Z M23.6759494,9.41739455 C25.4075949,9.41739455 26.8506329,10.8736927 26.8506329,12.6212504 C26.8506329,14.3688082 25.4075949,15.7280198 23.6759494,15.7280198 C21.9443038,15.7280198 20.5012658,14.2717216 20.5012658,12.6212504 C20.5974684,10.7766061 21.9443038,9.41739455 23.6759494,9.41739455 L23.6759494,9.41739455 Z" id="Fill-4"></path>
                    <path d="M32.4303797,22.3299046 L32.4303797,22.3299046 C34.1620253,22.3299046 35.5088608,20.970693 35.5088608,19.3202218 C35.5088608,18.5435295 35.2202532,17.7668371 34.643038,17.1843179 C34.0658228,16.6017986 33.2962025,16.310539 32.5265823,16.310539 C30.8911392,16.310539 29.4481013,17.6697506 29.4481013,19.3202218 C29.4481013,20.0969141 29.7367089,20.8736065 30.3139241,21.4561257 C30.7949367,22.038645 31.564557,22.3299046 32.4303797,22.3299046 L32.4303797,22.3299046 Z M32.4303797,17.9610102 C32.8151899,17.9610102 33.1037975,18.0580968 33.3924051,18.3493564 C33.6810127,18.640616 33.7772152,18.9318756 33.7772152,19.3202218 C33.7772152,19.9998276 33.2,20.5823469 32.4303797,20.5823469 L32.4303797,20.5823469 C32.0455696,20.5823469 31.756962,20.4852603 31.4683544,20.1940007 C31.1797468,19.9027411 31.0835443,19.6114814 31.0835443,19.2231353 C31.0835443,18.5435295 31.6607595,17.9610102 32.4303797,17.9610102 L32.4303797,17.9610102 Z" id="Fill-5"></path>
                </g>
            </g>
        </g>
    </g>
</svg>