<?xml version="1.0" encoding="UTF-8"?>
<svg width="66px" height="91px" viewBox="0 0 66 91" version="1.1" xmlns="http://www.w3.org/2000/svg" xmlns:xlink="http://www.w3.org/1999/xlink">
    <!-- Generator: Sketch 3.8.1 (29687) - http://www.bohemiancoding.com/sketch -->
    <title>noun_682693_cc</title>
    <desc>Created with Sketch.</desc>
    <defs></defs>
    <g id="Page-1" stroke="none" stroke-width="1" fill="none" fill-rule="evenodd">
        <g id="noun_682693_cc" transform="translate(-18.000000, -5.000000)">
            <rect id="Rectangle-path" x="0.899" y="0.488" width="100" height="100"></rect>
            <path d="M34.327,25.462 C34.656,24.927 35.045,24.426 35.465,23.964 C35.628,23.784 35.797,23.61 35.97,23.44 C36.201,23.214 36.44,22.997 36.686,22.788 C37.003,22.517 37.332,22.26 37.67,22.014 C38.098,21.703 38.541,21.411 38.994,21.136 C40.898,19.979 42.975,19.118 45.104,18.472 C48.007,17.593 51.028,17.108 54.055,16.942 C54.738,16.905 55.421,16.886 56.104,16.879 L56.691,16.879 C57.374,16.887 58.057,16.906 58.74,16.943 C61.768,17.112 64.79,17.598 67.695,18.479 C69.826,19.126 71.905,19.989 73.811,21.147 C74.265,21.422 74.708,21.715 75.137,22.027 C75.475,22.272 75.805,22.53 76.123,22.801 C76.37,23.011 76.609,23.228 76.841,23.454 C77.015,23.624 77.184,23.799 77.347,23.979 C77.772,24.445 78.164,24.951 78.496,25.491 C78.302,25.807 78.088,26.11 77.858,26.401 C77.067,27.403 76.101,28.26 75.065,29.003 C74.2,29.623 73.281,30.167 72.333,30.65 C71.017,31.318 69.642,31.868 68.237,32.319 C66.373,32.919 64.456,33.347 62.52,33.633 C60.504,33.932 58.464,34.076 56.426,34.075 C54.291,34.074 52.156,33.915 50.046,33.587 C48.206,33.3 46.384,32.883 44.61,32.312 C43.204,31.86 41.828,31.309 40.511,30.639 C39.561,30.157 38.64,29.612 37.774,28.99 C36.737,28.247 35.768,27.388 34.974,26.385 C34.741,26.09 34.524,25.783 34.327,25.462 L34.327,25.462 Z" id="Shape" fill="#000000"></path>
            <path d="M29.286,22.662 C29.264,22.365 29.256,22.066 29.262,21.768 C29.274,21.16 29.343,20.554 29.466,19.958 C29.557,19.521 29.676,19.09 29.821,18.669 C29.935,18.338 30.066,18.013 30.211,17.694 C31.251,15.408 33.011,13.517 34.999,12.015 C35.356,11.745 35.722,11.487 36.095,11.239 C36.563,10.928 37.043,10.634 37.531,10.355 C38.248,9.947 38.983,9.573 39.732,9.229 C40.728,8.772 41.748,8.37 42.785,8.017 C44.539,7.419 46.34,6.961 48.162,6.622 C50.036,6.274 51.933,6.053 53.836,5.948 C54.582,5.907 55.33,5.887 56.078,5.879 L56.719,5.879 C57.574,5.889 58.428,5.915 59.281,5.968 C61.181,6.087 63.075,6.323 64.944,6.686 C66.662,7.019 68.359,7.46 70.015,8.025 C71.053,8.379 72.074,8.781 73.07,9.239 C73.82,9.583 74.556,9.958 75.273,10.366 C75.801,10.668 76.319,10.987 76.824,11.327 C77.195,11.576 77.558,11.835 77.912,12.107 C79.858,13.596 81.579,15.461 82.605,17.708 C82.751,18.026 82.881,18.352 82.996,18.683 C83.142,19.104 83.262,19.535 83.353,19.972 L83.356,19.985 C83.428,20.078 83.483,20.184 83.518,20.298 C83.558,20.426 83.553,20.461 83.563,20.593 L83.563,78.985 C83.564,79.031 83.564,79.077 83.563,79.123 L83.563,79.955 C83.559,80.005 83.559,80.055 83.552,80.104 C83.537,80.201 83.508,80.295 83.466,80.383 C83.315,81.454 82.989,82.497 82.523,83.474 C81.452,85.715 79.694,87.565 77.719,89.039 C77.395,89.28 77.064,89.513 76.728,89.736 C76.339,89.994 75.943,90.24 75.54,90.476 C74.999,90.792 74.447,91.089 73.885,91.368 C73.09,91.761 72.278,92.118 71.452,92.441 C69.744,93.11 67.981,93.635 66.193,94.038 C64.137,94.502 62.046,94.805 59.945,94.964 C57.284,95.166 54.606,95.138 51.95,94.879 C49.656,94.655 47.376,94.258 45.149,93.661 C42.833,93.04 40.567,92.203 38.439,91.093 C37.134,90.413 35.879,89.629 34.72,88.72 C34.505,88.552 34.294,88.378 34.086,88.201 C33.09,88.762 32.093,89.321 31.093,89.874 C30.536,90.17 29.933,90.363 29.305,90.429 C28.842,90.478 28.372,90.459 27.915,90.374 C27.504,90.297 27.103,90.166 26.725,89.986 C26.516,89.886 26.315,89.77 26.123,89.642 C26.116,89.639 26.11,89.636 26.103,89.634 C26.059,89.615 26.018,89.591 25.976,89.57 C24.651,88.782 23.326,87.996 21.999,87.212 C21.746,87.064 21.493,86.915 21.241,86.766 C21.008,86.63 20.773,86.498 20.543,86.357 C20.475,86.314 20.408,86.271 20.342,86.226 C20.063,86.028 19.802,85.806 19.568,85.556 C19.036,84.985 18.646,84.284 18.443,83.53 C18.339,83.147 18.287,82.753 18.277,82.356 C18.183,71.058 18.276,59.758 18.276,48.459 C18.278,48.244 18.284,48.029 18.298,47.815 C18.333,47.281 18.413,46.751 18.535,46.23 C18.947,44.483 19.848,42.863 21.114,41.59 C21.528,41.174 21.98,40.796 22.462,40.461 C22.683,40.308 22.911,40.166 23.143,40.029 L29.26,36.498 L29.26,22.884 C29.263,22.808 29.27,22.735 29.286,22.662 L29.286,22.662 Z M31.26,28.083 L31.26,35.343 L33.886,33.827 C33.993,33.775 34.018,33.756 34.134,33.726 C34.25,33.695 34.281,33.7 34.4,33.694 C34.445,33.697 34.49,33.701 34.535,33.705 C34.651,33.73 34.683,33.731 34.792,33.78 C34.931,33.841 35.039,33.937 35.155,34.032 C35.199,34.067 35.244,34.102 35.288,34.138 C35.425,34.244 35.425,34.244 35.564,34.349 C37.097,35.483 38.804,36.353 40.552,37.107 L40.552,37.107 C40.569,37.114 40.586,37.122 40.602,37.13 L40.606,37.132 C40.631,37.144 40.654,37.158 40.677,37.172 L40.68,37.173 C40.717,37.196 40.753,37.222 40.787,37.249 C40.79,37.251 40.792,37.253 40.795,37.255 C40.81,37.268 40.824,37.281 40.838,37.294 L40.849,37.304 C40.916,37.369 40.975,37.443 41.022,37.525 L41.028,37.536 C41.038,37.554 41.048,37.572 41.057,37.59 C41.077,37.632 41.094,37.675 41.108,37.719 L41.113,37.735 C41.121,37.761 41.128,37.787 41.134,37.814 L41.137,37.83 C41.139,37.84 41.141,37.851 41.143,37.861 L41.147,37.89 L41.148,37.901 C41.153,37.941 41.156,37.98 41.156,38.019 L41.156,38.025 L41.156,44.045 C41.149,44.161 41.152,44.191 41.122,44.304 C41.077,44.473 40.987,44.628 40.863,44.752 C40.781,44.835 40.752,44.847 40.656,44.911 C38.19,46.335 35.688,47.698 33.259,49.183 C33.108,49.279 32.967,49.388 32.839,49.512 C32.528,49.814 32.3,50.196 32.18,50.612 C32.123,50.81 32.092,51.014 32.084,51.219 C31.891,58.934 31.496,66.673 31.743,74.383 C32.454,73.971 33.174,73.574 33.886,73.163 C33.954,73.126 34.023,73.094 34.097,73.071 C34.171,73.049 34.246,73.038 34.324,73.031 C34.381,73.029 34.381,73.029 34.439,73.03 C34.497,73.035 34.553,73.041 34.61,73.054 C34.743,73.085 34.863,73.144 34.975,73.221 C35.081,73.303 35.183,73.389 35.288,73.473 C36.885,74.716 38.7,75.644 40.552,76.442 L40.606,76.467 C40.746,76.543 40.869,76.641 40.964,76.771 C41.034,76.867 41.086,76.975 41.119,77.089 C41.145,77.184 41.158,77.283 41.156,77.382 C41.155,77.404 41.154,77.426 41.152,77.447 C41.154,77.473 41.154,77.499 41.156,77.525 L41.156,83.546 C41.156,83.553 41.155,83.56 41.155,83.568 C41.157,83.602 41.156,83.636 41.154,83.671 C41.149,83.766 41.13,83.86 41.098,83.95 C41.034,84.129 40.918,84.289 40.766,84.405 C40.729,84.434 40.687,84.458 40.647,84.484 C39.081,85.368 37.519,86.258 35.954,87.144 C37.159,88.088 38.475,88.886 39.847,89.565 C41.879,90.573 44.035,91.325 46.234,91.876 C48.471,92.437 50.758,92.792 53.057,92.968 C55.5,93.155 57.961,93.139 60.402,92.92 C62.299,92.749 64.186,92.454 66.041,92.021 C67.632,91.649 69.201,91.174 70.723,90.579 C71.579,90.244 72.42,89.87 73.239,89.454 C73.831,89.153 74.412,88.829 74.978,88.481 C75.405,88.218 75.824,87.942 76.231,87.649 C76.551,87.419 76.865,87.18 77.171,86.93 C77.404,86.739 77.632,86.543 77.855,86.34 C79.31,85.013 80.553,83.385 81.165,81.494 C81.258,81.204 81.337,80.91 81.398,80.612 C81.497,80.136 81.549,79.653 81.561,79.167 L81.562,79.087 L81.563,79.002 L81.563,79.002 L81.563,28.112 C80.771,29.27 79.798,30.302 78.731,31.211 C77.703,32.086 76.585,32.852 75.416,33.527 C74.06,34.309 72.635,34.97 71.172,35.528 C69.065,36.33 66.877,36.919 64.661,37.331 C61.947,37.835 59.184,38.076 56.425,38.075 C53.769,38.074 51.111,37.85 48.497,37.383 C46.173,36.968 43.879,36.36 41.673,35.519 C40.164,34.944 38.696,34.259 37.302,33.444 C36.177,32.786 35.1,32.043 34.107,31.199 C33.034,30.285 32.056,29.248 31.26,28.083 L31.26,28.083 Z M39.156,39.749 C36.066,41.512 32.968,43.263 29.896,45.057 C29.404,45.356 28.942,45.697 28.522,46.09 C27.442,47.101 26.655,48.41 26.268,49.837 C26.094,50.478 26.007,51.134 25.99,51.797 C25.895,63.11 25.71,74.429 25.991,85.739 C26.006,86.107 26.087,86.467 26.238,86.803 C26.394,87.148 26.62,87.46 26.899,87.716 C27.285,88.07 27.768,88.312 28.283,88.408 C28.55,88.458 28.825,88.469 29.095,88.44 C29.462,88.401 29.814,88.288 30.139,88.116 L30.184,88.091 L33.56,86.186 C33.646,86.115 33.745,86.058 33.852,86.019 C33.856,86.018 33.86,86.016 33.864,86.015 L39.156,83.029 L39.156,79.257 L33.612,82.458 C33.547,82.494 33.547,82.494 33.48,82.528 C33.176,82.671 32.853,82.758 32.516,82.769 C32.287,82.776 32.057,82.75 31.835,82.691 C31.157,82.511 30.583,82.026 30.293,81.387 C30.164,81.103 30.099,80.801 30.084,80.491 C29.919,70.738 30.003,60.982 30.083,51.228 C30.093,50.832 30.148,50.439 30.258,50.058 C30.48,49.286 30.912,48.578 31.498,48.027 C31.75,47.79 32.029,47.586 32.327,47.41 L39.156,43.468 L39.156,39.749 L39.156,39.749 Z M37.976,38.121 C37.147,37.711 36.335,37.265 35.553,36.768 C35.147,36.51 34.752,36.236 34.365,35.95 L34.297,35.899 C33.153,36.56 32.008,37.217 30.862,37.874 C30.81,37.914 30.753,37.948 30.694,37.976 C30.678,37.984 30.662,37.991 30.646,37.998 C28.438,39.265 26.23,40.533 24.035,41.825 C23.925,41.892 23.926,41.892 23.816,41.962 C23.354,42.266 22.922,42.609 22.532,43.001 C21.585,43.952 20.894,45.148 20.544,46.444 C20.377,47.062 20.293,47.695 20.277,48.334 C20.182,59.679 19.995,71.028 20.278,82.37 C20.286,82.571 20.313,82.769 20.362,82.964 C20.481,83.436 20.725,83.874 21.062,84.224 C21.223,84.391 21.404,84.535 21.6,84.659 C21.815,84.791 22.035,84.914 22.252,85.041 C22.798,85.361 23.342,85.683 23.886,86.004 L24.01,86.078 C23.999,85.961 23.993,85.843 23.99,85.726 C23.897,74.46 23.989,63.193 23.989,51.927 C23.991,51.705 23.997,51.484 24.011,51.263 C24.048,50.713 24.13,50.167 24.257,49.631 C24.682,47.832 25.612,46.165 26.92,44.858 C27.347,44.431 27.814,44.042 28.311,43.699 C28.539,43.542 28.775,43.396 29.014,43.256 L37.976,38.121 L37.976,38.121 Z M31.835,76.656 C31.897,77.921 31.979,79.185 32.084,80.448 C32.106,80.637 32.271,80.781 32.463,80.769 C32.522,80.765 32.575,80.746 32.626,80.718 L38.137,77.536 C37.252,77.103 36.385,76.632 35.553,76.103 C35.147,75.845 34.752,75.572 34.365,75.286 L34.297,75.234 L31.835,76.656 L31.835,76.656 Z M38.022,67.676 C38.097,67.686 38.116,67.686 38.189,67.706 C38.262,67.726 38.278,67.736 38.348,67.765 C38.531,67.86 38.71,67.966 38.89,68.067 C39.528,68.412 40.176,68.736 40.838,69.032 C42.755,69.889 44.764,70.537 46.807,71.015 C49.159,71.566 51.562,71.894 53.972,72.028 C54.791,72.074 55.609,72.094 56.429,72.097 L56.514,72.101 C56.588,72.11 56.608,72.111 56.681,72.13 C56.79,72.159 56.894,72.207 56.988,72.27 C57.082,72.334 57.164,72.414 57.231,72.505 C57.298,72.596 57.349,72.699 57.382,72.808 C57.49,73.165 57.385,73.564 57.114,73.821 C56.97,73.958 56.786,74.05 56.59,74.083 C56.516,74.095 56.496,74.094 56.421,74.097 C56.208,74.096 55.996,74.094 55.783,74.092 C54.822,74.075 53.863,74.035 52.904,73.962 C50.185,73.754 47.481,73.307 44.852,72.58 C42.267,71.865 39.756,70.874 37.428,69.538 L37.356,69.493 C37.296,69.448 37.279,69.438 37.225,69.385 C37.144,69.306 37.077,69.213 37.027,69.111 C36.863,68.775 36.903,68.365 37.129,68.067 C37.197,67.977 37.281,67.898 37.375,67.836 C37.47,67.774 37.575,67.728 37.685,67.7 C37.758,67.682 37.778,67.682 37.852,67.674 C37.937,67.671 37.937,67.671 38.022,67.676 L38.022,67.676 Z M56.091,7.879 C55.375,7.886 54.66,7.906 53.945,7.945 C50.568,8.131 47.197,8.694 43.974,9.73 C41.636,10.482 39.363,11.487 37.306,12.836 C36.898,13.104 36.498,13.386 36.11,13.682 C35.835,13.893 35.566,14.112 35.303,14.339 C33.765,15.667 32.428,17.308 31.74,19.241 C31.646,19.504 31.565,19.771 31.498,20.042 C31.413,20.385 31.349,20.734 31.31,21.085 C31.253,21.591 31.245,22.103 31.287,22.61 C31.344,23.294 31.492,23.968 31.717,24.616 C32.031,25.524 32.495,26.376 33.053,27.157 C33.926,28.378 35.026,29.428 36.221,30.331 C37.137,31.022 38.114,31.631 39.126,32.173 C40.512,32.915 41.966,33.528 43.453,34.036 C45.306,34.668 47.215,35.136 49.144,35.466 C51.548,35.877 53.987,36.074 56.425,36.075 C58.762,36.076 61.101,35.895 63.409,35.519 C65.438,35.189 67.446,34.707 69.393,34.043 C70.795,33.566 72.166,32.994 73.479,32.309 C74.575,31.737 75.632,31.088 76.618,30.343 C77.812,29.441 78.909,28.393 79.78,27.172 C80.336,26.392 80.798,25.54 81.111,24.632 C81.335,23.985 81.481,23.311 81.537,22.628 C81.578,22.12 81.57,21.608 81.512,21.102 C81.472,20.751 81.408,20.402 81.322,20.059 C81.254,19.788 81.172,19.521 81.078,19.258 C80.387,17.323 79.047,15.681 77.506,14.352 C77.243,14.125 76.973,13.906 76.697,13.695 C76.308,13.398 75.908,13.116 75.499,12.848 C73.44,11.498 71.165,10.491 68.826,9.738 C65.699,8.731 62.432,8.169 59.156,7.965 C58.34,7.914 57.523,7.888 56.705,7.879 L56.091,7.879 L56.091,7.879 Z" id="Shape" fill="#000000"></path>
        </g>
    </g>
</svg>