<?xml version="1.0" encoding="UTF-8" standalone="no"?>
<svg width="66px" height="59px" viewBox="0 0 66 59" version="1.1" xmlns="http://www.w3.org/2000/svg" xmlns:xlink="http://www.w3.org/1999/xlink">
    <!-- Generator: Sketch 3.8.2 (29753) - http://www.bohemiancoding.com/sketch -->
    <title>Paperplane</title>
    <desc>Created with Sketch.</desc>
    <defs></defs>
    <g id="Page-1---Intro" stroke="none" stroke-width="1" fill="none" fill-rule="evenodd">
        <g id="Desktop-HD" transform="translate(-664.000000, -30.000000)" fill="#000000">
            <g id="Paperplane" transform="translate(664.000000, 30.000000)">
                <g id="Group">
                    <g id="noun_82552_cc">
                        <g id="Group">
                            <path d="M64.3924286,0.0677159091 L0.542142857,26.3093068 C-0.218877551,26.6230795 -0.165673469,27.7145795 0.620938776,27.9552727 L21.1826327,34.2092727 L24.0266939,52.3289773 C24.144551,53.0872614 25.1237755,53.3373409 25.5938571,52.7245455 L34.3247143,41.3154205 L50.017898,58.6118068 C50.4886531,59.1300682 51.3554082,58.9168636 51.5237755,58.2336705 L65.582449,1.084125 C65.7521633,0.390875 65.0578163,-0.205829545 64.3924286,0.0677159091 L64.3924286,0.0677159091 Z M3.47914286,27.0139545 L62.4548571,2.79244318 L22.2224694,32.7054432 L3.47914286,27.0139545 L3.47914286,27.0139545 Z M25.4450204,50.0353523 L22.8339796,33.4027159 L63.3855918,2.53565909 C63.3855918,2.53565909 36.8152041,35.3805568 25.4450204,50.0353523 L25.4450204,50.0353523 Z M50.2111837,56.2873409 L34.9207347,39.507875 L63.2360816,3.30064773 L50.2111837,56.2873409 L50.2111837,56.2873409 Z" id="Shape"></path>
                        </g>
                    </g>
                </g>
            </g>
        </g>
    </g>
</svg>