<?xml version="1.0" encoding="UTF-8"?>
<svg width="103px" height="58px" viewBox="0 0 103 58" version="1.1" xmlns="http://www.w3.org/2000/svg" xmlns:xlink="http://www.w3.org/1999/xlink">
    <!-- Generator: Sketch 40.1 (33804) - http://www.bohemiancoding.com/sketch -->
    <title>Shape</title>
    <desc>Created with Sketch.</desc>
    <defs></defs>
    <g id="Page-1---Intro" stroke="none" stroke-width="1" fill="none" fill-rule="evenodd">
        <g id="Desktop-HD" transform="translate(-815.000000, -528.000000)" stroke="#383838" stroke-width="0.5" fill="#000000">
            <path d="M908.216787,598.433755 L901.177787,585.349755 L839.846787,524.018755 L838.763787,522.936755 C838.882787,522.851755 838.870787,522.847755 838.883787,522.779755 C838.896787,522.709755 838.874787,522.637755 838.823787,522.587755 L835.059787,518.823755 C835.020787,518.784755 834.968787,518.761755 834.913787,518.760755 C834.804787,518.756755 834.740787,518.710755 834.584787,518.759755 L833.760787,517.934755 C831.984787,516.158755 829.095787,516.158755 827.320787,517.934755 C825.545787,519.709755 825.545787,522.598755 827.320787,524.374755 L828.168787,525.221755 C828.211787,525.264755 828.151787,525.411755 828.145787,525.507755 C828.143787,525.568755 828.165787,525.628755 828.208787,525.672755 L831.972787,529.437755 C832.022787,529.487755 832.096787,529.509755 832.165787,529.497755 C832.233787,529.485755 832.338787,529.392755 832.321787,529.376755 L833.404787,530.459755 L894.735787,591.791755 L907.909787,598.741755 C907.993787,598.787755 908.102787,598.764755 908.171787,598.697755 C908.239787,598.627755 908.261787,598.519755 908.216787,598.433755 L908.216787,598.433755 Z M827.194037,524.633255 C825.588037,523.026255 825.588037,520.413255 827.194037,518.807255 C828.800037,517.201255 831.413037,517.201255 833.020037,518.807255 L833.586037,519.373255 C830.886037,519.739255 828.449037,522.209255 827.811037,525.250255 L827.194037,524.633255 L827.194037,524.633255 Z M828.989537,525.8734 C829.034537,525.7134 829.037537,525.5994 829.052537,525.4774 C829.446537,522.4624 832.095537,519.7884 834.857537,519.6034 C834.917537,519.5994 834.957537,519.6154 835.017537,519.6134 C835.091537,519.6114 835.180537,519.5924 835.216537,519.6294 L838.707537,523.1204 C837.758537,523.6024 834.390537,525.5774 832.600537,529.0754 C832.554537,529.1654 832.542537,529.2224 832.464537,529.3494 L828.989537,525.8734 L828.989537,525.8734 Z M896.521537,590.496755 L837.746537,531.722755 L837.439537,532.029755 L896.214537,590.804755 L895.295537,591.723755 L834.847537,531.273755 L834.336537,530.763755 L834.029537,530.456755 L832.989537,529.416755 C834.707537,526.023755 837.757537,524.167755 838.827537,523.602755 L839.855537,524.630755 L840.162537,524.937755 L840.672537,525.448755 L901.121537,585.896755 L896.521537,590.496755 L896.521537,590.496755 Z M900.709537,586.602755 L905.778537,596.146755 C905.555537,596.334755 905.337537,596.530755 905.127537,596.740755 C904.918537,596.949755 904.722537,597.168755 904.534537,597.391755 L894.989537,592.321755 L900.709537,586.602755 L900.709537,586.602755 Z" id="Shape" transform="translate(867.114928, 557.684266) rotate(107.000000) translate(-867.114928, -557.684266) "></path>
        </g>
    </g>
</svg>