<?xml version="1.0" encoding="UTF-8"?>
<svg width="151px" height="91px" viewBox="0 0 151 91" version="1.1" xmlns="http://www.w3.org/2000/svg" xmlns:xlink="http://www.w3.org/1999/xlink">
    <!-- Generator: Sketch 40.1 (33804) - http://www.bohemiancoding.com/sketch -->
    <title>Page 1</title>
    <desc>Created with Sketch.</desc>
    <defs>
        <path d="M92.5283672,23.2917448 C85.1218737,20.6341693 76.7004831,19.5381445 68.5825189,19.8900408 L66.3845337,12.8320069 C68.5821118,12.3993939 70.4226784,11.6072022 71.7278065,10.5930565 C73.4650657,9.24511839 74.2551433,7.51129288 73.6860379,5.71475328 C72.5485053,2.13509523 66.3930234,-0.391160768 59.9663994,0.0500073914 C53.5414373,0.471883439 49.2364982,3.72969695 50.3756656,7.34767559 C51.372021,10.5319875 56.2173007,12.9330194 61.722851,13.1725152 L63.9206558,20.2456063 C55.9793327,21.1210717 48.6483869,23.4490158 43.2448706,27.1673215 L32.9256488,22.6240329 C35.1157715,19.8203264 33.5304593,16.2920837 28.8457425,14.2311352 C23.4966591,11.8672093 16.1014672,12.2418579 12.3621959,15.0856374 C8.62289757,17.939473 9.93279954,22.2598355 15.281883,24.6957442 C19.9665997,26.819394 26.2197922,26.7590009 30.2128769,24.7423328 L40.5320987,29.3128751 C36.0125666,33.4481955 34.329514,38.312416 35.2531675,43.1316921 L22.8442179,43.9368111 C20.8205104,40.812957 15.401493,38.6839438 9.77280829,38.9934136 C3.34686248,39.3265385 -0.954209552,42.7443372 0.182060933,46.6457312 C1.31960711,50.5677153 7.47508896,53.4838538 13.9016994,53.1088361 C17.1146723,52.91372 19.797743,51.9368065 21.5350021,50.5208084 C22.8401302,49.4585278 23.6092367,48.1515495 23.6697698,46.7450235 L36.0789134,45.9240784 C37.9997942,50.7211435 42.4730302,55.2590705 49.2615407,58.7072695 L42.0478869,64.7540033 C36.9951309,63.264053 30.9166525,64.0211861 27.6417943,66.7634577 C23.9025095,69.9047516 25.2123979,74.5179851 30.5614814,77.0246644 C35.9105648,79.5184306 43.3057431,78.9162745 47.0450279,75.7042467 C50.3198862,72.900265 49.7209358,69.0537379 45.9285336,66.5171653 L53.1421875,60.4435033 C60.5486946,63.3409235 68.9700716,64.5098476 77.0880358,64.0610947 L79.2862286,71.6135831 C74.1651337,72.7973999 70.9884534,76.0807569 71.9845032,79.5572704 C73.1220494,83.5447905 79.2775313,86.2660661 85.7041417,85.5888431 C88.9171146,85.2434252 91.6001853,84.117858 93.3374444,82.5830661 C95.0738897,81.0515002 95.8639809,79.1171949 95.294889,77.1476496 C94.2985336,73.7079388 89.4532404,71.2616336 83.9477172,71.1467374 L81.7499124,63.6108674 C89.6912084,62.5118695 97.0221542,59.8568314 102.425698,55.8157993 L112.744919,60.0826669 C110.554783,63.1159341 112.140109,66.7579439 116.824826,68.6940461 C122.173909,70.8936262 129.569074,69.9990277 133.308372,66.7214631 C137.047644,63.4557676 135.737769,59.0776471 130.388685,56.9417498 C125.703969,55.0617621 119.450762,55.4758383 115.457691,57.7550459 L105.13847,53.5132686 C109.657974,49.1369112 111.341027,44.19995 110.417401,39.4785764 L122.82635,38.1614115 C124.850031,41.1104063 130.269062,42.9026914 135.897746,42.2554353 C139.110719,41.8803173 141.79379,40.7849082 143.530249,39.3232741 C145.267508,37.8634747 146.057586,36.0435826 145.48848,34.2129524 C144.350948,30.5643198 138.195466,28.2021465 131.768842,28.9167102 C126.14167,29.5284088 122.142306,32.3189617 122.000663,35.4795503 L109.591641,36.7808523 C107.67076,32.206273 103.197538,27.9952818 96.4090139,24.8710014 L103.622668,19.0830254 C108.675424,20.3407726 114.753916,19.4603813 118.028774,16.8322011 C121.768045,13.8417114 120.45817,9.73796342 115.109087,7.66572523 C109.760003,5.58316287 102.364812,6.25354114 98.6255403,9.17909923 C95.3506821,11.7501739 95.9496189,15.25251 99.7420211,17.5291847 L92.5283672,23.2917448 Z M60.7921589,2.64757232 C64.6484366,2.38121387 68.3404839,3.90678848 69.0243688,6.06147585 C69.5599052,7.7619542 68.0604618,9.34706054 65.5243166,10.089175 C64.8382297,10.2897614 64.0910209,10.441092 63.2696166,10.5001915 C62.4483479,10.5588732 61.6414743,10.5191111 60.8625172,10.4234329 C57.9842242,10.0670437 55.575788,8.75274569 55.0374066,7.04144863 C54.6958033,5.95607151 55.1710824,4.9222658 56.2127869,4.12818885 C57.2553051,3.33429309 58.863706,2.77829038 60.7921589,2.64757232 Z M6.01998242,43.2995702 C7.06168683,42.4677169 8.67011487,41.9008958 10.5986763,41.7962521 C13.6336216,41.6282241 16.542822,42.6573756 17.9881651,44.2309791 C18.3792094,44.6570936 18.6850977,45.1155519 18.8308862,45.6110737 C18.9758933,46.1070431 18.9453951,46.5866964 18.8138526,47.0453182 C18.3277435,48.7439239 16.1096762,50.0854012 13.0761611,50.2659545 C9.21968938,50.4877071 5.52764208,48.7496733 4.84395114,46.403749 C4.50221212,45.2331545 4.97747774,44.1328642 6.01998242,43.2995702 Z M76.6461994,79.0952683 C76.3046544,77.9050355 76.77992,76.7499091 77.8224247,75.8441136 C78.4204688,75.3248938 79.2215041,74.902383 80.14631,74.5872436 C80.832397,74.3533644 81.5795922,74.1717401 82.4009245,74.0885395 C83.2221932,74.0053375 84.0288863,74.0291701 84.808051,74.1141958 C87.6863304,74.4253959 90.0947803,75.7890832 90.6331345,77.6492829 C91.3154826,80.0199272 88.7327915,82.2896418 84.8784094,82.6997552 C81.0221317,83.1024325 77.3300844,81.4804328 76.6461994,79.0952683 Z M135.071865,39.5692928 C132.036947,39.9153461 129.127733,39.0786332 127.682597,37.628287 C127.291539,37.2359993 126.985443,36.8080969 126.839655,36.3365168 C126.694332,35.8650782 126.725173,35.4008973 126.856851,34.9523653 C127.034109,34.3485002 127.417185,33.7759084 128.015229,33.280851 C129.057747,32.4185572 130.666148,31.7789493 132.594407,31.565603 C136.450879,31.1348084 140.142926,32.5611221 140.826617,34.7571801 C141.507341,36.9599324 138.928156,39.1238406 135.071865,39.5692928 Z M102.567644,15.2830305 C100.875638,13.9392069 100.740295,12.1123804 102.506187,10.7208058 C104.750043,8.95607431 109.186438,8.54806599 112.396315,9.80430545 C115.606192,11.0567973 116.391983,13.5245361 114.148127,15.3126669 C112.382235,16.7227006 109.263805,17.2720793 106.448291,16.8269747 C105.686532,16.7057654 104.941769,16.5267052 104.257999,16.2545952 C103.574229,15.9823112 103.025437,15.6468264 102.567644,15.2830305 Z M104.93195,37.2525154 C105.317231,38.1407796 105.592907,39.0433464 105.757624,39.9559689 C106.482923,43.9867472 105.043715,48.1795298 101.257823,51.9069576 C100.853895,52.3059303 100.457578,52.7067442 99.9998112,53.0936349 C99.5420174,53.4807185 99.0409498,53.838428 98.5450509,54.1999729 C93.9007464,57.5939741 87.6728202,59.8381005 80.9243677,60.7985219 C79.3913287,61.014015 77.8349522,61.1623273 76.2628343,61.242577 C69.342457,61.5815908 62.1847544,60.5865506 55.8549594,58.1700005 C55.1792213,57.9110366 54.5007399,57.6563864 53.8458808,57.3651448 C53.1910217,57.0737203 52.5857851,56.7573622 51.9743126,56.4438374 C46.2446099,53.5007308 42.4344406,49.6632233 40.7386179,45.5961499 C40.3533377,44.6749049 40.0776608,43.7446064 39.9129169,42.8099393 C39.1876318,38.709582 40.62684,34.5712391 44.4127454,31.0204452 C44.816673,30.6423562 45.2129632,30.2626329 45.670757,29.8988084 C46.1285237,29.5351633 46.6296185,29.2017671 47.1255173,28.8647225 C51.7698083,25.7117946 57.9977345,23.7108922 64.7461734,22.9195601 C66.2792395,22.7369868 67.835616,22.6164063 69.407734,22.5582619 C76.3280841,22.2880622 83.4858138,23.2285382 89.8155953,25.4693244 C90.4913469,25.7073835 91.1698283,25.9409277 91.8246874,26.2090911 C92.4795466,26.477089 93.0847831,26.7691494 93.696242,27.0581948 C99.4259584,29.7593575 103.2361,33.3537668 104.93195,37.2525154 Z M28.8835672,20.8326642 C28.6747654,21.260162 28.3627597,21.6735618 27.8847829,22.0449841 C27.4067789,22.4165952 26.8144236,22.7056136 26.1707953,22.9402044 C23.7916575,23.8062912 20.5207619,23.7315437 17.9946549,22.5921057 C14.784778,21.1404649 13.9989734,18.5546624 16.2428427,16.8346467 C18.4866984,15.1182761 22.9230937,14.8875868 26.1329706,16.3133403 C28.6590776,17.4324686 29.6555216,19.2555548 28.8835672,20.8326642 Z M43.1643812,73.9294632 C40.9205119,75.8471961 36.4841302,76.2018806 33.2742533,74.7123798 C30.0643763,73.218259 29.2785717,70.457276 31.522441,68.5649898 C33.2883199,67.0785476 36.4068987,66.5729803 39.2222501,67.1336183 C39.9841582,67.2844949 40.728799,67.4975999 41.412569,67.8100752 C42.0963389,68.1223448 42.6451176,68.5003762 43.1028968,68.9073871 C44.7949166,70.4115473 44.9302601,72.4230392 43.1643812,73.9294632 Z M116.787001,61.7421884 C116.995803,61.2854171 117.307781,60.8384219 117.785785,60.4266232 C118.263762,60.0150376 118.855951,59.6830448 119.499773,59.4048236 C121.878703,58.3762436 125.149806,58.2612437 127.675913,59.279893 C130.88579,60.5705734 131.671581,63.2034164 129.427726,65.1569258 C127.183856,67.1146916 122.747475,67.6449099 119.537598,66.3312707 C117.011491,65.2944903 116.015033,63.4326436 116.787001,61.7421884 Z" id="path-1"></path>
        <filter x="-50%" y="-50%" width="200%" height="200%" filterUnits="objectBoundingBox" id="filter-2">
            <feMorphology radius="0.35" operator="dilate" in="SourceAlpha" result="shadowSpreadOuter1"></feMorphology>
            <feOffset dx="0" dy="2" in="shadowSpreadOuter1" result="shadowOffsetOuter1"></feOffset>
            <feGaussianBlur stdDeviation="1" in="shadowOffsetOuter1" result="shadowBlurOuter1"></feGaussianBlur>
            <feComposite in="shadowBlurOuter1" in2="SourceAlpha" operator="out" result="shadowBlurOuter1"></feComposite>
            <feColorMatrix values="0 0 0 0 0.133882663   0 0 0 0 0.364612314   0 0 0 0 0.633636267  0 0 0 1 0" type="matrix" in="shadowBlurOuter1"></feColorMatrix>
        </filter>
        <path d="M84.4980571,32.073546 C83.4297286,32.4197414 82.3953676,32.7553289 81.3976409,33.0361633 C80.1575375,33.3878159 78.8617162,33.5534179 76.6726743,31.7521285 C74.4788622,29.9472425 72.165638,28.2121094 68.012514,26.8024961 C61.3263941,24.5218067 52.2095271,25.5863979 47.6905916,29.2079272 L47.5323014,29.3350654 C43.0128234,32.9731588 44.0536193,38.4787095 49.8512857,41.5832624 C53.4429815,43.505017 57.006897,44.2717051 60.6402245,44.9414866 C64.2714887,45.6098468 64.4275038,46.3633947 64.2579825,47.2117731 C64.1282191,47.8669763 63.9240776,48.5635334 63.7151047,49.2840582 C62.9679452,51.8526869 62.1222156,54.7759401 63.8966845,57.4425016 C64.246766,57.9705263 64.710066,58.4697565 65.3134954,58.9670654 C66.0951255,59.6114267 67.5788199,59.7615544 68.6266587,59.3029128 C69.6739685,58.8446322 69.8898018,57.9516525 69.1106682,57.310848 C68.7525573,57.0172533 68.4834051,56.7317752 68.2867498,56.4360972 C67.0180272,54.5345516 67.7099609,52.1418167 68.3801672,49.8354416 C68.605148,49.0617188 68.8221257,48.3132631 68.9611546,47.6116326 C69.0404705,47.2127781 69.0288469,46.8398013 68.9730118,46.4793928 C71.7151363,46.047566 75.941829,45.0431854 78.8273924,42.7574421 C78.8993994,42.6996784 78.969803,42.6422801 79.0393856,42.5843524 C81.2428346,40.7519681 82.1399138,38.5002466 81.7532738,35.8867134 C82.3383034,35.801167 82.9286472,35.6872649 83.530326,35.5155154 C84.5974233,35.2116446 85.7096797,34.8500574 86.8572843,34.4756405 C90.2688502,33.3601112 93.7953782,32.2043286 97.1804098,32.2829869 C97.7457488,32.2951406 98.3374521,32.3611206 98.9891482,32.4846842 C100.002925,32.6767406 101.079754,32.4508986 101.660559,31.9712629 C101.791735,31.8629736 101.898102,31.7415384 101.972135,31.6093622 C102.376114,30.8921722 101.694682,30.1221744 100.451082,29.888005 C99.3703216,29.684165 98.3494131,29.5745448 97.3374208,29.5525018 C92.6080821,29.4397137 88.29983,30.8405718 84.4980571,32.073546 Z M61.9119133,42.2666459 C58.0976275,41.566642 55.5385928,40.9229649 52.9441665,39.5421515 C49.0001415,37.4434301 48.2988352,33.5344449 51.4129481,31.0177832 L51.5712383,30.8900601 C54.6853784,28.3811941 61.1593141,27.5909374 65.7049269,29.1488886 C68.7073086,30.174417 70.5230231,31.3986583 72.823458,33.3000571 C74.1204225,34.3726301 75.5002498,35.1121898 76.9477753,35.5530734 C77.4556203,37.7926959 76.8726823,39.6515988 75.0329741,41.047385 C72.6588788,42.9338735 68.7836276,43.6370252 66.8677912,43.8781567 C65.6902981,43.2032166 64.0557728,42.6598582 61.9119133,42.2666459 Z" id="path-3"></path>
        <filter x="-50%" y="-50%" width="200%" height="200%" filterUnits="objectBoundingBox" id="filter-4">
            <feMorphology radius="0.35" operator="dilate" in="SourceAlpha" result="shadowSpreadOuter1"></feMorphology>
            <feOffset dx="0" dy="2" in="shadowSpreadOuter1" result="shadowOffsetOuter1"></feOffset>
            <feGaussianBlur stdDeviation="1" in="shadowOffsetOuter1" result="shadowBlurOuter1"></feGaussianBlur>
            <feComposite in="shadowBlurOuter1" in2="SourceAlpha" operator="out" result="shadowBlurOuter1"></feComposite>
            <feColorMatrix values="0 0 0 0 0.133882663   0 0 0 0 0.364612314   0 0 0 0 0.633636267  0 0 0 1 0" type="matrix" in="shadowBlurOuter1"></feColorMatrix>
        </filter>
    </defs>
    <g id="Page-4---UX--process" stroke="none" stroke-width="1" fill="none" fill-rule="evenodd">
        <g id="Desktop-HD" transform="translate(-321.000000, -463.000000)">
            <g id="UX" transform="translate(9.000000, -51.000000)">
                <g id="ux" transform="translate(185.000000, 248.000000)">
                    <g id="Page-1" transform="translate(130.000000, 267.000000)">
                        <g id="Fill-1">
                            <use fill="black" fill-opacity="1" filter="url(#filter-2)" xlink:href="#path-1"></use>
                            <use stroke-opacity="0.10716712" stroke="#000000" stroke-width="0.7" fill-opacity="0.680027174" fill="#7FCBF1" fill-rule="evenodd" xlink:href="#path-1"></use>
                        </g>
                        <g id="Fill-3">
                            <use fill="black" fill-opacity="1" filter="url(#filter-4)" xlink:href="#path-3"></use>
                            <use stroke-opacity="0.10716712" stroke="#000000" stroke-width="0.7" fill-opacity="0.680027174" fill="#7FCBF1" fill-rule="evenodd" xlink:href="#path-3"></use>
                        </g>
                    </g>
                </g>
            </g>
        </g>
    </g>
</svg>