<?xml version="1.0" encoding="UTF-8" standalone="no"?>
<svg width="65px" height="66px" viewBox="0 0 65 66" version="1.1" xmlns="http://www.w3.org/2000/svg" xmlns:xlink="http://www.w3.org/1999/xlink">
    <!-- Generator: Sketch 3.8.2 (29753) - http://www.bohemiancoding.com/sketch -->
    <title>Page 1</title>
    <desc>Created with Sketch.</desc>
    <defs></defs>
    <g id="Page-1---Intro" stroke="none" stroke-width="1" fill="none" fill-rule="evenodd">
        <g id="Desktop-HD" transform="translate(-902.000000, -32.000000)" fill="#000000">
            <g id="Page-1" transform="translate(937.000000, 75.000000) scale(-1, 1) translate(-937.000000, -75.000000) translate(902.000000, 32.000000)">
                <path d="M56.4516129,0 C52.9928151,0 49.5242849,1.34036906 46.8783602,4.00835623 L35.5174731,15.4643373 C36.3067419,15.3253138 37.0942269,15.250789 37.8931452,15.2271542 L47.9603495,5.07571807 C52.6809086,0.315662227 60.2223172,0.315662227 64.9428763,5.07571807 C69.6634355,9.83577391 69.686957,17.4877177 64.9663978,22.2477736 L45.3965054,41.9814065 C40.6759462,46.7414623 33.0874946,46.7174404 28.3669355,41.9576881 C25.8200645,39.3895076 24.6608946,35.9950192 24.8622312,32.6601111 L23.3803763,34.1543646 C23.5588839,37.3843049 24.8550505,40.5748159 27.3084677,43.0487303 C32.6003247,48.3849324 41.1631161,48.3850083 46.4549731,43.0487303 L66.0248656,23.3150975 C71.3167226,17.9789714 71.3167226,9.34448235 66.0248656,4.00835623 C63.3789409,1.34036906 59.9104108,0 56.4516129,0 L56.4516129,0 Z M38.3870968,18.2156611 C34.9234366,18.2156535 31.4597688,19.5559163 28.8138441,22.2240553 L9.24395161,41.9576881 C3.95209688,47.2938143 3.95209462,55.9282653 9.24395161,61.2643914 C11.8898763,63.9324545 15.3584065,65.2727856 18.8172043,65.2727856 C22.2760022,65.2727856 25.7445323,63.9324545 28.390457,61.2643914 L39.7513441,49.8084483 C38.9620753,49.9474945 38.1745903,50.0219511 37.375672,50.0456314 L27.3084677,60.1970676 C22.5879086,64.9571234 15.0465,64.9571234 10.3259409,60.1970676 C5.60538247,55.4370117 5.58186398,47.7850679 10.3024194,43.025012 L29.8723118,23.2913792 C34.592871,18.5313233 42.1813226,18.5553452 46.9018817,23.3150975 C49.4487527,25.883278 50.6079226,29.2777361 50.406586,32.6126745 L51.8884409,31.1184211 C51.7099333,27.8884504 50.4137667,24.6979698 47.9603495,22.2240553 C45.3144247,19.5559543 41.850757,18.2156687 38.3870968,18.2156611 L38.3870968,18.2156611 Z" id="Fill-1"></path>
            </g>
        </g>
    </g>
</svg>